SplineFontDB: 2.0
FontName: Umpush-Bold
FullName: Umpush Bold
FamilyName: Umpush
Weight: Bold
Copyright: Copyright (c) 2003 NECTEC. All rights reserved.\nCopyright (c) 2007 Widhaya Trisarnwadhana. All rights reserved.\nModified under GNU General Public License by TLWG.
Version: 0.9.7: 2007-04-13
ItalicAngle: 0
UnderlinePosition: -170
UnderlineWidth: 10
Ascent: 1638
Descent: 410
NeedsXUIDChange: 1
FSType: 0
OS2Version: 0
OS2_WeightWidthSlopeOnly: 0
OS2_UseTypoMetrics: 0
CreationTime: 1153662462
ModificationTime: 1200110018
PfmFamily: 33
TTFWeight: 700
TTFWidth: 5
LineGap: 0
VLineGap: 0
Panose: 2 11 6 4 2 2 2 2 2 4
OS2TypoAscent: 0
OS2TypoAOffset: 1
OS2TypoDescent: 0
OS2TypoDOffset: 1
OS2TypoLinegap: 0
OS2WinAscent: 0
OS2WinAOffset: 1
OS2WinDescent: 0
OS2WinDOffset: 1
HheadAscent: 0
HheadAOffset: 1
HheadDescent: 0
HheadDOffset: 1
OS2SubXSize: -17396
OS2SubYSize: -11016
OS2SubXOff: 13787
OS2SubYOff: 2000
OS2SupXSize: -11172
OS2SupYSize: 3
OS2SupXOff: 4916
OS2SupYOff: 24828
OS2StrikeYSize: 12944
OS2StrikeYPos: 90
OS2Vendor: 'PfEd'
Lookup: 6 0 0 "'ccmp' Thai General Composition"  {"'ccmp' Thai Below Vowel Tone Reordering"  "'ccmp' Thai General Composition"  } ['ccmp' ('thai' <'KUY ' 'PAL ' 'THA ' 'dflt' > ) ]
Lookup: 6 0 0 "'ccmp' Thai Conditional Descender Removal"  {"'ccmp' Thai Conditional Descender Removal"  } ['ccmp' ('thai' <'KUY ' 'PAL ' 'THA ' 'dflt' > ) ]
Lookup: 5 0 0 "Required Thai Descender Removal"  {"Required Thai Descender Removal"  } [' RQD' ('thai' <'PAL ' > ) ]
Lookup: 1 0 0 "Thai Descender Removal Single Substitution"  {"Thai Descender Removal Single Substitution" ("descless" ) } []
Lookup: 2 0 0 "Thai Sara Am Decomposition"  {"Thai Sara Am Decomposition"  } []
Lookup: 2 0 0 "Thai Tone Nikhahit Attachment"  {"Thai Tone Nikhahit Attachment"  } []
Lookup: 1 0 0 "Thai Sara Am Lakkhang"  {"Thai Sara Am Lakkhang"  } []
Lookup: 1 0 0 "Thai Tone Low Variant"  {"Thai Tone Low Variant" ("low" ) } []

StartChar: .notdef
Encoding: 65536 -1 0
Width: 1536
Flags: W
HStem: 0 32<288 1248> 1248 32<288 1248>
VStem: 256 32<32 1248> 1248 32<32 1248>
Fore
256 0 m 1
 256 1280 l 1
 1280 1280 l 1
 1280 0 l 1
 256 0 l 1
288 32 m 1
 1248 32 l 1
 1248 1248 l 1
 288 1248 l 1
 288 32 l 1
EndSplineSet
EndChar
StartChar: uni0E4D.high
Encoding: 63262 63262 2
Width: 0
VWidth: 2558
Flags: W
HStem: 2106 72<-335.271 -192.706> 2334 74<-335.082 -190.823>
VStem: -412 69<2187.04 2306.72> -183 70<2187.9 2324.43>
AnchorPoint: "AboveMark" -262 2120 mark 0
Fore
-412 2255 m 0
 -412 2335 -349 2408 -261 2408 c 0
 -181 2408 -113 2344 -113 2255 c 0
 -113 2168 -186 2106 -261 2106 c 0
 -336 2106 -412 2166 -412 2255 c 0
-343 2255 m 0
 -343 2209 -301 2178 -263 2178 c 0
 -220 2178 -183 2218 -183 2255 c 0
 -183 2308 -227 2334 -262 2334 c 0
 -320 2334 -343 2287 -343 2255 c 0
EndSplineSet
EndChar
StartChar: exclam
Encoding: 33 33 5
Width: 569
Flags: W
HStem: 0 194<177 400> 1430 20G<169 408>
VStem: 177 223<0 194 895.716 1450>
Fore
169 999 m 1
 169 1450 l 1
 408 1450 l 1
 408 999 l 1
 365 365 l 1
 213 365 l 1
 169 999 l 1
177 194 m 1
 400 194 l 1
 400 0 l 1
 177 0 l 1
 177 194 l 1
EndSplineSet
EndChar
StartChar: quotedbl
Encoding: 34 34 6
Width: 727
Flags: MW
HStem: 947 503<156 291 437 572>
VStem: 106 230<1178.29 1450> 389 230<1176.68 1450>
Fore
156 947 m 1
 106 1217 l 1
 106 1450 l 1
 336 1450 l 1
 336 1217 l 1
 291 947 l 1
 156 947 l 1
437 947 m 1
 389 1217 l 1
 389 1450 l 1
 619 1450 l 1
 619 1217 l 1
 572 947 l 1
 437 947 l 1
EndSplineSet
EndChar
StartChar: numbersign
Encoding: 35 35 7
Width: 1139
Flags: W
HStem: -10 21G<57 301.767 516 767.329> 355 240<21 144 414 602 872 1113> 865 240<21 248 518 698 977 1113> 1450 20G<360.233 605 819.233 1064>
Fore
57 -10 m 1
 144 355 l 1
 21 355 l 1
 21 595 l 1
 183 595 l 1
 248 865 l 1
 21 865 l 1
 21 1105 l 1
 278 1105 l 1
 365 1470 l 1
 605 1470 l 1
 518 1105 l 1
 737 1105 l 1
 824 1470 l 1
 1064 1470 l 1
 977 1105 l 1
 1113 1105 l 1
 1113 865 l 1
 938 864 l 1
 872 595 l 1
 1113 595 l 1
 1113 355 l 1
 842 355 l 1
 763 -10 l 1
 516 -10 l 1
 602 355 l 1
 384 355 l 1
 297 -10 l 1
 57 -10 l 1
414 595 m 1
 632 595 l 1
 698 865 l 1
 479 865 l 1
 414 595 l 1
EndSplineSet
EndChar
StartChar: dollar
Encoding: 36 36 8
Width: 1139
Flags: W
VStem: 76 209<246.043 344 344 417> 106 214<901.61 1188.27> 462 202<-118 -37 153 599 840 1239 1429 1488> 830 212<232.703 528.258>
Fore
1042 397 m 0x70
 1042 169 905 -21 664 -35 c 1
 664 -118 l 1
 462 -118 l 1
 462 -37 l 1
 230 -8 99 120 79 344 c 2
 76 417 l 1
 285 417 l 1
 285 400 l 2xb0
 285 256 350 192 462 153 c 1
 462 621 l 1
 288 655 106 785 106 1031 c 0
 106 1244 227 1406 462 1429 c 1
 462 1488 l 1
 664 1488 l 1
 664 1429 l 1
 878 1405 993 1279 1008 1050 c 1
 805 1050 l 1
 802 1088 774 1202 664 1239 c 1
 664 820 l 1
 754 803 1042 735 1042 397 c 0x70
462 1241 m 1
 346 1210 320 1152 320 999 c 0x70
 320 924 379 872 462 840 c 1
 462 1241 l 1
830 386 m 0
 830 515 777 568 664 599 c 1
 664 153 l 1
 769 181 830 253 830 386 c 0
EndSplineSet
EndChar
StartChar: percent
Encoding: 37 37 9
Width: 1821
Flags: W
HStem: -53 177<1294.98 1469.44> 546 175<1296.92 1467.88> 717 169<347.488 517.038> 1317 174<349.356 517.442>
VStem: 119 191<922.825 1282.26> 554 191<922.568 1280.45> 1067 190<159.958 512.764> 1507 189<161.114 508.19>
Fore
428 717 m 0xbf
 304 717 119 790 119 1114 c 0
 119 1260 180 1491 426 1491 c 0
 635 1491 745 1331 745 1104 c 0
 744 885 634 717 428 717 c 0xbf
554 1107 m 0
 554 1259 505 1317 431 1317 c 0
 332 1317 310 1208 310 1096 c 0
 310 915 383 886 431 886 c 0
 532 886 554 992 554 1107 c 0
1170 1491 m 1
 1447 1491 l 1
 688 -10 l 1
 411 -10 l 1
 1170 1491 l 1
1376 -53 m 0
 1167 -53 1067 116 1067 344 c 0
 1067 491 1129 721 1376 721 c 0xdf
 1583 721 1696 558 1696 334 c 0
 1696 95 1568 -53 1376 -53 c 0
1381 124 m 0
 1482 124 1507 222 1507 340 c 0
 1507 519 1431 546 1381 546 c 0
 1279 546 1257 443 1257 329 c 0
 1257 153 1331 124 1381 124 c 0
EndSplineSet
EndChar
StartChar: ampersand
Encoding: 38 38 10
Width: 1366
Flags: W
HStem: -22 207<407.998 699.777> 1286 205<535.197 713.299>
VStem: 88 239<270.565 535.755> 272 240<1048.64 1262.78> 737 240<1046.44 1262.1>
Fore
977 1178 m 0xd8
 977 1016 873 903 720 821 c 1
 926 522 l 1
 956 579 979 648 995 727 c 1
 1221 649 l 1
 1192 540 1150 442 1095 357 c 1
 1162 270 1238 195 1324 132 c 1
 1173 -67 l 1
 1101 -19 1026 50 948 140 c 1
 925 115 794 -22 576 -22 c 0
 214 -22 88 224 88 403 c 0xe8
 88 602 194 752 407 852 c 1
 325 949 272 1035 272 1163 c 0
 272 1351 429 1491 637 1491 c 0
 820 1491 977 1364 977 1178 c 0xd8
627 1286 m 0
 566 1286 512 1244 512 1167 c 0xd8
 512 1114 544 1052 609 983 c 1
 687 1023 737 1080 737 1171 c 0
 737 1224 700 1286 627 1286 c 0
327 411 m 0xe8
 327 339 370 185 540 185 c 0
 639 185 751 239 800 326 c 1
 530 671 l 1
 400 594 327 509 327 411 c 0xe8
EndSplineSet
EndChar
StartChar: quotesingle
Encoding: 39 39 11
Width: 391
Flags: W
HStem: 947 519<107 276>
VStem: 61 263<1180.08 1466 1221 1466 1221 1221>
Fore
107 947 m 1
 61 1221 l 1
 61 1466 l 1
 324 1466 l 1
 324 1221 l 1
 276 947 l 1
 107 947 l 1
EndSplineSet
EndChar
StartChar: parenleft
Encoding: 40 40 12
Width: 682
Flags: W
VStem: 81 276<200.379 880.853>
Fore
656 1491 m 1
 492 1212 357 980 357 530 c 0
 357 209 457 -111 656 -431 c 1
 436 -431 l 1
 253 -199 81 148 81 531 c 0
 81 918 217 1198 436 1491 c 1
 656 1491 l 1
EndSplineSet
EndChar
StartChar: parenright
Encoding: 41 41 13
Width: 682
Flags: W
VStem: 378 278<200.125 888.07>
Fore
656 531 m 0
 656 146 484 -197 301 -431 c 1
 79 -431 l 1
 278 -111 378 209 378 530 c 0
 378 969 259 1170 79 1491 c 1
 301 1491 l 1
 527 1188 656 915 656 531 c 0
EndSplineSet
EndChar
StartChar: asterisk
Encoding: 42 42 14
Width: 797
Flags: MW
VStem: 303 185<1285.87 1491>
Fore
65 1176 m 1
 107 1357 l 1
 274 1301 l 2
 285 1297 297 1291 310 1284 c 1
 305 1324 303 1362 303 1399 c 2
 306 1491 l 1
 483 1491 l 1
 488 1349 l 2
 487 1327 485 1305 482 1282 c 1
 522 1303 584 1326 667 1353 c 2
 688 1360 l 1
 721 1179 l 1
 643 1153 582 1137 537 1131 c 2
 513 1128 l 1
 547 1099 595 1044 662 962 c 1
 510 858 l 1
 470 913 431 974 392 1041 c 1
 340 943 293 883 277 862 c 1
 126 968 l 1
 201 1060 249 1116 271 1136 c 1
 102 1167 l 2
 86 1171 74 1174 65 1176 c 1
EndSplineSet
EndChar
StartChar: plus
Encoding: 43 43 15
Width: 1196
Flags: W
HStem: 237 969<483 713> 611 226<114 483 713 1082 114 1082 114 114>
VStem: 483 230<237 611 837 1206>
Fore
483 237 m 1xa0
 483 611 l 1
 114 611 l 1
 114 837 l 1
 483 837 l 1x60
 483 1206 l 1
 713 1206 l 1xa0
 713 837 l 1
 1082 837 l 1
 1082 611 l 1
 713 611 l 1x60
 713 237 l 1
 483 237 l 1xa0
EndSplineSet
EndChar
StartChar: comma
Encoding: 44 44 16
Width: 569
Flags: W
HStem: -300 531<122 268 122 122>
VStem: 122 297<-22 231 -207 231 -22 -22> 244 175<-137.148 -22>
Fore
122 -22 m 1xc0
 122 231 l 1
 419 231 l 1
 419 -22 l 2xc0
 419 -218 339 -266 268 -300 c 1
 111 -207 l 1
 219 -160 242 -65 244 -22 c 1xa0
 122 -22 l 1xc0
EndSplineSet
EndChar
StartChar: hyphen
Encoding: 45 45 17
Width: 682
Flags: W
HStem: 388 266<65 618 65 618 65 65>
Fore
65 388 m 1
 65 654 l 1
 618 654 l 1
 618 388 l 1
 65 388 l 1
EndSplineSet
EndChar
StartChar: period
Encoding: 46 46 18
Width: 569
Flags: W
HStem: 0 220<154 430>
VStem: 154 276<0 220>
Fore
154 0 m 1
 154 220 l 1
 430 220 l 1
 430 0 l 1
 154 0 l 1
EndSplineSet
EndChar
StartChar: slash
Encoding: 47 47 19
Width: 595
Flags: MW
HStem: -10 21G<-110 137.919> 1450 20G<469.068 716>
Fore
-110 -10 m 1
 477 1470 l 1
 716 1470 l 1
 130 -10 l 1
 -110 -10 l 1
EndSplineSet
EndChar
StartChar: zero
Encoding: 48 48 20
Width: 1139
Flags: W
HStem: -10 267<453.757 669.861> 1213 269<446.615 668.238>
VStem: 86 254<407.591 1073.12> 781 259<411.608 1064.11>
Fore
563 -10 m 0
 224 -10 86 273 86 736 c 0
 86 1142 181 1482 563 1482 c 0
 945 1482 1040 1121 1040 736 c 0
 1040 284 916 4 563 -10 c 0
559 1213 m 0
 428 1213 340 1101 340 735 c 0
 340 416 413 257 560 257 c 0
 724 257 781 460 781 735 c 0
 781 1040 712 1213 559 1213 c 0
EndSplineSet
EndChar
StartChar: one
Encoding: 49 49 21
Width: 1139
Flags: MW
HStem: 0 21G<525 763> 1452 20G<500.5 763>
VStem: 525 238<0 1045>
Fore
223 1104 m 1
 400 1188 476 1286 525 1472 c 1
 763 1472 l 1
 763 0 l 1
 525 0 l 1
 525 1045 l 1
 409 912 289 860 223 844 c 1
 223 1104 l 1
EndSplineSet
EndChar
StartChar: two
Encoding: 50 50 22
Width: 1139
Flags: W
HStem: 0 223<382 1031> 1273 209<419.5 707.41>
VStem: 96 235<1039 1179.4> 794 237<917.778 1192.9>
Fore
572 1482 m 0
 850 1482 1029 1315 1029 1075 c 0
 1029 964 960 813 873 705 c 0
 751 550 491 388 382 223 c 1
 1031 223 l 1
 1031 0 l 1
 62 0 l 1
 77 186 185 355 280 450 c 0
 494 666 794 830 794 1079 c 0
 794 1201 675 1273 568 1273 c 0
 423 1273 338 1186 331 1039 c 1
 96 1039 l 1
 96 1307 284 1482 572 1482 c 0
EndSplineSet
EndChar
StartChar: three
Encoding: 51 51 23
Width: 1139
Flags: W
HStem: -10 216<422.521 706.18> 668 214<468.874 666.069> 1070 21G<104 338.5> 1268 214<411.044 669.114>
VStem: 104 229<1070 1185.43> 740 234<956.357 1202.35> 805 241<305.763 574.459>
Fore
1046 449 m 0xfa
 1046 184 835 -10 552 -10 c 0
 299 -10 86 166 86 427 c 1
 316 427 l 1
 333 294 439 206 553 206 c 0
 717 206 805 316 805 445 c 0xfa
 805 579 688 668 537 668 c 0
 504 668 472 663 441 654 c 1
 441 882 l 1
 516 883 l 0
 708 892 740 1004 740 1105 c 0
 740 1196 636 1268 549 1268 c 0
 427 1268 344 1191 333 1070 c 1
 104 1070 l 1
 104 1305 296 1482 545 1482 c 0
 788 1482 974 1328 974 1101 c 0xfc
 974 930 928 838 812 794 c 1
 977 768 1046 645 1046 449 c 0xfa
EndSplineSet
EndChar
StartChar: four
Encoding: 52 52 24
Width: 1139
Flags: W
HStem: 0 21G<662 892> 327 225<321 662 892 1070 56 1070 321 321> 1452 20G<648.826 892>
VStem: 662 230<0 327 552 1077>
Fore
662 0 m 1
 662 327 l 1
 56 327 l 1
 56 552 l 1
 662 1472 l 1
 892 1472 l 1
 892 552 l 1
 1070 552 l 1
 1070 327 l 1
 892 327 l 1
 892 0 l 1
 662 0 l 1
662 552 m 1
 662 1077 l 1
 321 552 l 1
 662 552 l 1
EndSplineSet
EndChar
StartChar: five
Encoding: 53 53 25
Width: 1139
Flags: W
HStem: -10 214<409.254 705.565> 777 230<440.516 710.729> 1244 228<473 988>
VStem: 85 245<257.987 399.972> 817 240<323.991 672.453>
Fore
1057 512 m 0
 1055 211 871 -10 556 -10 c 0
 272 -10 112 158 85 415 c 1
 330 415 l 1
 341 236 477 204 556 204 c 0
 718 204 817 320 817 496 c 0
 817 680 720 777 553 777 c 0
 458 777 409 748 355 686 c 1
 117 708 l 1
 259 1472 l 1
 988 1472 l 1
 988 1244 l 1
 473 1244 l 1
 404 940 l 1
 477 988 523 1007 591 1007 c 0
 881 1003 1057 794 1057 512 c 0
EndSplineSet
EndChar
StartChar: six
Encoding: 54 54 26
Width: 1139
Flags: W
HStem: -10 210<449.525 724.843> 764 213<442.168 719.933> 1257 225<452.082 732.712>
VStem: 77 238<858 1079.42> 77 274<351.174 873.147> 819 227<300.492 659.66>
Fore
77 701 m 0xec
 77 1265 287 1482 603 1482 c 0
 837 1482 1019 1330 1019 1103 c 1
 807 1104 l 1
 772 1222 679 1257 600 1257 c 0
 416 1257 324 1112 315 858 c 1xf4
 380 937 471 977 589 977 c 0
 860 977 1046 752 1046 479 c 0
 1046 208 875 -10 586 -10 c 0
 179 -10 77 352 77 701 c 0xec
579 764 m 0
 435 764 351 660 351 489 c 0xec
 351 328 429 200 585 200 c 0
 736 200 819 312 819 481 c 0
 819 644 736 764 579 764 c 0
EndSplineSet
EndChar
StartChar: seven
Encoding: 55 55 27
Width: 1139
Flags: W
HStem: 0 21G<253 511> 1233 239<97 755>
VStem: 253 258<0 315.057>
Fore
97 1233 m 1
 97 1472 l 1
 1046 1472 l 1
 1046 1233 l 1
 954 1136 737 856 675 692 c 0
 539 328 511 138 511 0 c 1
 253 0 l 1
 254 243 319 502 446 776 c 0
 494 886 622 1069 755 1233 c 1
 97 1233 l 1
EndSplineSet
EndChar
StartChar: eight
Encoding: 56 56 28
Width: 1139
Flags: W
HStem: -11 210<420.575 718.947> 651 267<431.976 700.768> 1284 198<431.245 697.47>
VStem: 83 239<295.071 576.636> 142 227<979.539 1218.18> 761 228<977.341 1224.17> 812 237<291.82 571.635>
Fore
556 -11 m 0xe2
 313 -11 83 138 83 439 c 0xf2
 83 659 211 767 362 805 c 1
 215 859 142 959 142 1104 c 0
 142 1333 312 1482 563 1482 c 0
 810 1482 989 1340 989 1099 c 0xec
 989 981 935 876 773 805 c 1
 945 749 1049 642 1049 434 c 0
 1049 138 777 -11 556 -11 c 0xe2
565 1284 m 0
 444 1284 369 1202 369 1107 c 0
 371 981 454 918 567 918 c 0
 692 918 761 998 761 1099 c 0xec
 761 1220 675 1284 565 1284 c 0
812 433 m 0xf2
 812 572 720 651 563 651 c 0
 405 651 322 575 322 437 c 0
 322 291 428 199 568 199 c 0
 722 199 812 295 812 433 c 0xf2
EndSplineSet
EndChar
StartChar: nine
Encoding: 57 57 29
Width: 1139
Flags: W
HStem: -10 229<409.3 721.027> 495 227<447.305 715.44> 1257 225<447.962 709.497>
VStem: 113 244<821.537 1161.06> 800 281<602.6 1120.72> 825 256<392.576 579>
Fore
1081 771 m 0xf8
 1081 207 871 -10 555 -10 c 0
 320 -10 141 139 139 369 c 1
 354 369 l 1
 365 267 444 219 566 219 c 0
 773 219 815 358 825 579 c 1xf4
 759 513 686 495 564 495 c 0
 301 495 113 704 113 981 c 0
 113 1273 298 1482 572 1482 c 0
 979 1482 1081 1119 1081 771 c 0xf8
584 722 m 0
 757 722 800 877 800 982 c 0xf8
 800 1140 724 1257 579 1257 c 0
 435 1257 357 1144 357 991 c 0
 357 822 448 722 584 722 c 0
EndSplineSet
EndChar
StartChar: colon
Encoding: 58 58 30
Width: 569
Flags: W
HStem: 0 230<160 415> 832 230<160 415>
VStem: 160 255<0 230 832 1062>
Fore
160 832 m 1
 160 1062 l 1
 415 1062 l 1
 415 832 l 1
 160 832 l 1
160 0 m 1
 160 230 l 1
 415 230 l 1
 415 0 l 1
 160 0 l 1
EndSplineSet
EndChar
StartChar: semicolon
Encoding: 59 59 31
Width: 569
Flags: W
HStem: 832 230<157 412>
VStem: 157 255<0 205 832 1062> 259 153<-156.375 0>
Fore
157 832 m 1xc0
 157 1062 l 1
 412 1062 l 1
 412 832 l 1
 157 832 l 1xc0
157 0 m 1
 157 205 l 1
 412 205 l 1
 412 0 l 2xc0
 412 -163 365 -262 270 -297 c 1
 145 -213 l 1
 215 -182 256 -117 259 0 c 1xa0
 157 0 l 1
EndSplineSet
EndChar
StartChar: less
Encoding: 60 60 32
Width: 1196
Flags: MW
Fore
112 641 m 1
 112 809 l 1
 1083 1219 l 1
 1083 990 l 1
 423 724 l 1
 1083 455 l 1
 1083 226 l 1
 112 641 l 1
EndSplineSet
EndChar
StartChar: equal
Encoding: 61 61 33
Width: 1196
Flags: MW
HStem: 417 218<114 1082> 812 218<114 1082>
Fore
1082 812 m 1
 114 812 l 1
 114 1030 l 1
 1082 1030 l 1
 1082 812 l 1
1082 417 m 1
 114 417 l 1
 114 635 l 1
 1082 635 l 1
 1082 417 l 1
EndSplineSet
EndChar
StartChar: greater
Encoding: 62 62 34
Width: 1196
Flags: MW
Fore
1083 641 m 1
 112 226 l 1
 112 455 l 1
 750 724 l 1
 112 990 l 1
 112 1219 l 1
 1083 809 l 1
 1083 641 l 1
EndSplineSet
EndChar
StartChar: question
Encoding: 63 63 35
Width: 1139
Flags: W
HStem: 0 235<421 695> 1291 213<445.197 730.084>
VStem: 421 274<0 235> 432 242<361 564.344> 813 223<983.273 1209.35>
Fore
565 1504 m 0xd8
 835 1504 1036 1340 1036 1084 c 0
 1036 1024 1023 924 895 782 c 0
 792 683 674 580 674 361 c 1
 432 361 l 1
 432 615 542 715 639 803 c 0
 793 946 813 1031 813 1088 c 0
 813 1250 659 1291 568 1291 c 0
 435 1291 324 1140 324 1046 c 1
 90 1046 l 1
 90 1300 293 1504 565 1504 c 0xd8
421 0 m 1xe8
 421 235 l 1
 695 235 l 1
 695 0 l 1
 421 0 l 1xe8
EndSplineSet
EndChar
StartChar: at
Encoding: 64 64 36
Width: 2079
Flags: W
HStem: -431 200<807.286 1436.19> -33 252<1294.78 1545.48> -3 241<804.45 1035.87> 849 235<886.571 1134.53> 1279 214<837.114 1343.78>
VStem: 111 221<212.762 746.432> 502 239<304.383 672.776> 1740 216<476.576 923.19>
Fore
1354 -33 m 0xdf
 1200 -33 1168 47 1161 121 c 1
 1090 38 987 -3 854 -3 c 0xbf
 633 -3 502 209 502 461 c 0
 502 791 737 1084 1011 1084 c 0
 1198 1084 1265 977 1278 938 c 1
 1312 1079 l 1
 1526 1079 l 1
 1380 379 l 1
 1352 285 l 1
 1355 229 1400 219 1422 219 c 0
 1609 227 1740 475 1740 716 c 0
 1740 1068 1413 1279 1100 1279 c 0
 545 1279 332 800 332 485 c 0
 332 174 490 -231 1120 -231 c 0
 1445 -231 1573 -142 1748 19 c 1
 2005 19 l 1
 1873 -253 1545 -431 1123 -431 c 0
 508 -419 111 -120 111 469 c 0
 111 1039 484 1493 1102 1493 c 0
 1590 1493 1956 1181 1956 713 c 0
 1956 355 1688 -33 1354 -33 c 0xdf
741 474 m 0
 741 290 840 238 906 238 c 0
 1080 238 1188 442 1188 643 c 0
 1188 820 1083 849 1013 849 c 0
 830 849 741 629 741 474 c 0
EndSplineSet
EndChar
StartChar: A
Encoding: 65 65 37
Width: 1366
Flags: W
HStem: 0 21G<-2 281.73 1069.72 1368> 433 240<505 833> 1430 20G<551.262 776.276>
Fore
559 1450 m 1
 768 1450 l 1
 1368 0 l 1
 1079 0 l 1
 878 433 l 1
 462 433 l 1
 273 0 l 1
 -2 0 l 1
 559 1450 l 1
833 673 m 1
 659 1109 l 1
 505 673 l 1
 833 673 l 1
EndSplineSet
EndChar
StartChar: B
Encoding: 66 66 38
Width: 1366
Flags: W
HStem: 0 220<384 855.2> 629 213<384 879.251> 1231 219<384 906.429>
VStem: 164 220<220 629 842 1231> 955 231<913.687 1181.25> 1016 241<284.603 563.027>
Fore
1186 1079 m 0xf8
 1186 843 1050 791 1021 772 c 1
 1178 726 1257 609 1257 421 c 0xf4
 1257 230 1165 0 709 0 c 2
 164 0 l 1
 164 1450 l 1
 700 1450 l 2
 990 1450 1186 1330 1186 1079 c 0xf8
384 842 m 1
 661 842 l 2
 880 842 955 905 955 1056 c 0xf8
 955 1210 875 1231 637 1231 c 2
 384 1231 l 1
 384 842 l 1
384 220 m 1
 709 220 l 2
 835 220 1016 210 1016 421 c 0xf4
 1016 595 920 629 683 629 c 2
 384 629 l 1
 384 220 l 1
EndSplineSet
EndChar
StartChar: C
Encoding: 67 67 39
Width: 1479
Flags: W
HStem: -10 220<604.471 982.21> 1257 220<591.473 1003.27>
VStem: 102 238<504.785 990.551> 1143 230<1050 1185.47> 1168 230<343.774 480>
Fore
788 210 m 0xf0
 977 210 1149 328 1168 480 c 1
 1398 480 l 1xe8
 1327 201 1144 -10 791 -10 c 0
 356 -10 102 276 102 745 c 0
 102 1182 379 1477 794 1477 c 0
 1100 1477 1303 1304 1373 1050 c 1
 1143 1050 l 1
 1101 1182 975 1257 790 1257 c 0
 507 1257 340 1051 340 746 c 0
 340 438 528 210 788 210 c 0xf0
EndSplineSet
EndChar
StartChar: D
Encoding: 68 68 40
Width: 1479
Flags: W
HStem: 0 213<390 882.869> 1237 213<390 887.357>
VStem: 168 222<213 1237> 1143 237<486.989 981.421>
Fore
1380 733 m 0
 1380 147 1038 0 697 0 c 2
 168 0 l 1
 168 1450 l 1
 673 1450 l 2
 1239 1450 1380 1125 1380 733 c 0
675 213 m 2
 969 213 1143 417 1143 736 c 0
 1143 1060 970 1237 670 1237 c 2
 390 1237 l 1
 390 213 l 1
 675 213 l 2
EndSplineSet
EndChar
StartChar: E
Encoding: 69 69 41
Width: 1366
Flags: W
HStem: 0 229<401 1222> 621 230<401 1021> 1218 232<401 1222>
VStem: 162 239<229 621 851 1218>
Fore
162 0 m 1
 162 1450 l 1
 1222 1450 l 1
 1222 1218 l 1
 401 1218 l 1
 401 851 l 1
 1021 851 l 1
 1021 621 l 1
 401 621 l 1
 401 229 l 1
 1222 229 l 1
 1222 0 l 1
 162 0 l 1
EndSplineSet
EndChar
StartChar: F
Encoding: 70 70 42
Width: 1251
Flags: MW
HStem: 621 230<406 1008> 1218 232<406 1158>
VStem: 167 239<0 621 851 1218>
Fore
167 0 m 1
 167 1450 l 1
 1158 1450 l 1
 1158 1218 l 1
 406 1218 l 1
 406 851 l 1
 1008 851 l 1
 1008 621 l 1
 406 621 l 1
 406 0 l 1
 167 0 l 1
EndSplineSet
EndChar
StartChar: G
Encoding: 71 71 43
Width: 1479
Flags: W
HStem: -10 220<600.561 1010.03> 464 220<905 1164> 1236 241<602.934 984.114>
VStem: 102 237<504.483 958.245>
Fore
339 746 m 0
 339 448 513 210 788 210 c 0
 991 216 1157 287 1164 464 c 1
 905 464 l 1
 905 684 l 1
 1404 684 l 1
 1428 229 1226 -10 791 -10 c 0
 352 -10 102 294 102 745 c 0
 102 1175 371 1477 794 1477 c 0
 1113 1477 1301 1300 1373 1050 c 1
 1115 1050 l 1
 1068 1167 948 1236 790 1236 c 0
 550 1236 339 1050 339 746 c 0
EndSplineSet
EndChar
StartChar: H
Encoding: 72 72 44
Width: 1479
Flags: W
HStem: 0 21G<164 404 1074 1314> 619 244<404 1074> 1430 20G<164 404 1074 1314>
VStem: 164 240<0 619 863 1450> 1074 240<0 619 863 1450>
Fore
164 0 m 1
 164 1450 l 1
 404 1450 l 1
 404 863 l 1
 1074 863 l 1
 1074 1450 l 1
 1314 1450 l 1
 1314 0 l 1
 1074 0 l 1
 1074 619 l 1
 404 619 l 1
 404 0 l 1
 164 0 l 1
EndSplineSet
EndChar
StartChar: I
Encoding: 73 73 45
Width: 650
Flags: W
HStem: 0 210<25 205 445 625 25 625 25 25> 1250 200<25 205 445 625>
VStem: 205 240<210 1250>
Fore
625 210 m 1
 625 0 l 1
 25 0 l 1
 25 210 l 1
 205 210 l 1
 205 1250 l 1
 25 1250 l 1
 25 1450 l 1
 625 1450 l 1
 625 1250 l 1
 445 1250 l 1
 445 210 l 1
 625 210 l 1
EndSplineSet
EndChar
StartChar: J
Encoding: 74 74 46
Width: 1024
Flags: W
HStem: -10 225<366.258 572.504> 1235 215<408 645>
VStem: 64 237<284.719 455> 645 220<299.206 1235>
Fore
468 215 m 0
 583 215 645 328 645 471 c 2
 645 1235 l 1
 408 1235 l 1
 408 1450 l 1
 865 1450 l 1
 865 456 l 2
 865 116 706 -10 463 -10 c 4
 224 -10 64 112 64 455 c 1
 301 455 l 1
 309 260 401 215 468 215 c 0
EndSplineSet
EndChar
StartChar: K
Encoding: 75 75 47
Width: 1366
Flags: W
HStem: 0 21G<150 376 1034.21 1346> 1430 20G<150 376 1001.33 1316>
VStem: 150 226<0 499 825 1450>
Fore
150 0 m 1
 150 1450 l 1
 376 1450 l 1
 376 825 l 1
 1022 1450 l 1
 1316 1450 l 1
 659 806 l 1
 1346 0 l 1
 1053 -1 l 1
 479 610 l 1
 376 499 l 1
 376 0 l 1
 150 0 l 1
EndSplineSet
EndChar
StartChar: L
Encoding: 76 76 48
Width: 1139
Flags: MW
HStem: 0 219<380 1060> 1430 20G<150 380>
VStem: 150 230<219 1450>
Fore
150 0 m 1
 150 1450 l 1
 380 1450 l 1
 380 219 l 1
 1060 219 l 1
 1060 0 l 1
 150 0 l 1
EndSplineSet
EndChar
StartChar: M
Encoding: 77 77 49
Width: 1706
Flags: W
HStem: 0 21G<152 372 668.021 1033.98 1330 1550> 1430 20G<152 367.869 1332.16 1550>
VStem: 152 220<0 762> 1330 220<0 762>
Fore
152 0 m 1
 152 1450 l 1
 360 1450 l 1
 851 202 l 1
 1340 1450 l 1
 1550 1450 l 1
 1550 0 l 1
 1330 0 l 1
 1330 762 l 1
 1026 0 l 1
 676 0 l 1
 372 762 l 1
 372 0 l 1
 152 0 l 1
EndSplineSet
EndChar
StartChar: N
Encoding: 78 78 50
Width: 1479
Flags: W
HStem: 0 21G<156 395 1057.13 1311> 1430 20G<156 408.81 1071 1311>
VStem: 156 239<0 975> 1071 240<471 1450>
Fore
156 0 m 1
 156 1450 l 1
 395 1450 l 1
 1071 471 l 1
 1071 1450 l 1
 1311 1450 l 1
 1311 0 l 1
 1071 0 l 1
 395 975 l 1
 395 0 l 1
 156 0 l 1
EndSplineSet
EndChar
StartChar: O
Encoding: 79 79 51
Width: 1593
Flags: W
HStem: -10 230<590.924 1011.13> 1246 232<589.704 1008.36>
VStem: 104 246<473.013 983.044> 1252 244<479.174 987.466>
Fore
800 -10 m 0
 376 -10 104 286 104 714 c 0
 104 1183 355 1474 801 1478 c 0
 1233 1478 1496 1184 1496 731 c 0
 1496 291 1240 -10 800 -10 c 0
803 1246 m 0
 441 1246 350 983 350 712 c 0
 350 411 509 220 800 220 c 0
 1162 220 1252 497 1252 731 c 0
 1252 1043 1099 1246 803 1246 c 0
EndSplineSet
EndChar
StartChar: P
Encoding: 80 80 52
Width: 1366
Flags: W
HStem: 0 21G<158 402> 580 212<402 917.062> 1236 214<402 925.137>
VStem: 158 244<0 580 792 1236> 1023 254<886.992 1150.23>
Fore
1277 1026 m 0
 1277 669 1006 580 728 580 c 2
 402 580 l 1
 402 0 l 1
 158 0 l 1
 158 1450 l 1
 711 1450 l 2
 1147 1450 1277 1280 1277 1026 c 0
1023 1020 m 0
 1023 1193 885 1236 673 1236 c 2
 402 1236 l 1
 402 792 l 1
 677 792 l 2
 945 792 1023 883 1023 1020 c 0
EndSplineSet
EndChar
StartChar: Q
Encoding: 81 81 53
Width: 1659
Flags: W
HStem: -10 174<745.464 1030.42 1334.6 1480.92> 298 205<790.691 1021.8> 1251 227<586.309 1015.31>
VStem: 104 233<481.337 984.438> 1262 234<477.864 984.822>
Fore
894 503 m 0
 1058 503 1148 412 1167 392 c 1
 1229 467 1262 585 1262 736 c 0
 1262 1056 1104 1251 802 1251 c 0
 430 1251 337 983 337 717 c 0
 337 463 450 337 560 280 c 1
 598 424 747 503 894 503 c 0
801 1478 m 0
 1233 1478 1496 1177 1496 731 c 0
 1496 474 1436 299 1317 204 c 1
 1334 185 1359 176 1392 175 c 0
 1431 175 1489 192 1533 228 c 1
 1659 90 l 1
 1585 21 1498 -14 1399 -14 c 0
 1291 -14 1208 27 1156 88 c 1
 1039 11 934 -10 800 -10 c 0
 376 -10 104 286 104 714 c 0
 104 1183 355 1474 801 1478 c 0
1050 226 m 1
 1010 273 965 297 914 298 c 0
 856 298 770 272 738 174 c 1
 762 167 790 164 821 164 c 0
 932 164 1015 199 1050 226 c 1
EndSplineSet
EndChar
StartChar: R
Encoding: 82 82 54
Width: 1400
Flags: W
HStem: 0 21G<158 384 1057.9 1387> 580 206<384 663> 1239 211<384 907.112>
VStem: 158 226<0 580 786 1239> 1011 266<881.886 1150.61>
Fore
1277 1026 m 0
 1277 682 1006 611 924 596 c 1
 1387 0 l 1
 1072 0 l 1
 663 580 l 1
 384 580 l 1
 384 0 l 1
 158 0 l 1
 158 1450 l 1
 711 1450 l 2
 1140 1450 1277 1280 1277 1026 c 0
1011 1020 m 0
 1011 1193 870 1239 661 1239 c 2
 384 1239 l 1
 384 786 l 1
 665 786 l 2
 928 786 1011 880 1011 1020 c 0
EndSplineSet
EndChar
StartChar: S
Encoding: 83 83 55
Width: 1366
Flags: W
HStem: -10 224<496.637 914.145> 1250 221<460.452 859.752>
VStem: 92 233<376.398 502> 148 237<980.372 1182.34> 981 234<1019 1167.84> 1022 237<307.342 520.524>
Fore
1259 429 m 0xd4
 1259 157 1015 -10 717 -10 c 0
 200 -10 97 291 92 502 c 1
 325 502 l 1
 359 237 602 214 708 214 c 0
 908 214 1022 302 1022 413 c 0xe4
 1022 540 942 570 598 667 c 0
 405 722 148 776 148 1067 c 0
 148 1325 374 1471 664 1471 c 0
 992 1471 1171 1308 1215 1019 c 1
 981 1019 l 1xd8
 951 1173 849 1250 672 1250 c 0
 528 1250 385 1212 385 1080 c 0
 385 962 460 941 873 816 c 0
 1087 754 1259 688 1259 429 c 0xd4
EndSplineSet
EndChar
StartChar: T
Encoding: 84 84 56
Width: 1251
Flags: W
HStem: 0 21G<508 748> 1231 219<48 508 748 1210>
VStem: 508 240<0 1231>
Fore
508 0 m 1
 508 1231 l 1
 48 1231 l 1
 48 1450 l 1
 1210 1450 l 1
 1210 1231 l 1
 748 1231 l 1
 748 0 l 1
 508 0 l 1
EndSplineSet
EndChar
StartChar: U
Encoding: 85 85 57
Width: 1479
Flags: W
HStem: -10 250<559.076 921.8> 1430 20G<161 411 1065 1314>
VStem: 161 250<387.228 567 567 1450> 1065 249<385.584 1450>
Fore
737 240 m 0
 953 240 1065 365 1065 568 c 2
 1065 1450 l 1
 1314 1450 l 1
 1314 567 l 2
 1314 182 1123 -10 741 -10 c 0
 277 -10 161 262 161 567 c 2
 161 1450 l 1
 411 1450 l 1
 411 568 l 2
 411 354 538 240 737 240 c 0
EndSplineSet
EndChar
StartChar: V
Encoding: 86 86 58
Width: 1366
Flags: W
HStem: 0 21G<569.166 783.917> 1430 20G<9 350.803 1015.93 1350>
Fore
577 0 m 1
 9 1450 l 1
 344 1450 l 1
 677 471 l 1
 1023 1450 l 1
 1350 1450 l 1
 776 0 l 1
 577 0 l 1
EndSplineSet
EndChar
StartChar: W
Encoding: 87 87 59
Width: 1933
Flags: W
HStem: 0 21G<361.297 624.867 1292.23 1570.57> 1430 20G<25 284.027 815.362 1098.81 1621.34 1897>
Fore
366 0 m 1
 25 1450 l 1
 279 1450 l 1
 513 519 l 1
 822 1450 l 1
 1092 1450 l 1
 1409 519 l 1
 1626 1450 l 1
 1897 1450 l 1
 1566 0 l 1
 1299 0 l 1
 961 999 l 1
 618 0 l 1
 366 0 l 1
EndSplineSet
EndChar
StartChar: X
Encoding: 88 88 60
Width: 1366
Flags: W
HStem: 0 21G<9 332.309 1029.69 1353> 1430 20G<76 398.343 989.527 1313>
Fore
9 0 m 1
 494 756 l 1
 76 1450 l 1
 386 1450 l 1
 681 972 l 1
 1003 1450 l 1
 1313 1450 l 1
 868 756 l 1
 1353 0 l 1
 1043 0 l 1
 681 544 l 1
 319 0 l 1
 9 0 l 1
EndSplineSet
EndChar
StartChar: Y
Encoding: 89 89 61
Width: 1366
Flags: W
HStem: 0 21G<526 810> 1431 20G<6 338.128 1017.16 1350>
VStem: 526 284<0 621>
Fore
526 0 m 1
 526 621 l 1
 6 1451 l 1
 326 1451 l 1
 668 887 l 1
 1030 1451 l 1
 1350 1451 l 1
 810 621 l 1
 810 0 l 1
 526 0 l 1
EndSplineSet
EndChar
StartChar: Z
Encoding: 90 90 62
Width: 1251
Flags: W
HStem: 0 230<375 1200> 1220 230<45 885>
Fore
41 0 m 1
 41 237 l 1
 885 1220 l 1
 45 1220 l 1
 45 1450 l 1
 1213 1450 l 1
 1213 1220 l 1
 375 230 l 1
 1200 230 l 1
 1200 0 l 1
 41 0 l 1
EndSplineSet
EndChar
StartChar: bracketleft
Encoding: 91 91 63
Width: 569
Flags: MW
HStem: -407 188<359 536> 1278 188<359 536>
VStem: 139 220<-219 1278>
Fore
139 -407 m 1
 139 1466 l 1
 536 1466 l 1
 536 1278 l 1
 359 1278 l 1
 359 -219 l 1
 536 -219 l 1
 536 -407 l 1
 139 -407 l 1
EndSplineSet
EndChar
StartChar: backslash
Encoding: 92 92 64
Width: 569
Flags: MW
Fore
386 -25 m 1
 -39 1491 l 1
 185 1491 l 1
 609 -25 l 1
 386 -25 l 1
EndSplineSet
EndChar
StartChar: bracketright
Encoding: 93 93 65
Width: 569
Flags: W
HStem: -407 188<39 218> 1277 189<39 218>
VStem: 218 218<-219 1277>
Fore
436 -407 m 1
 39 -407 l 1
 39 -219 l 1
 218 -219 l 1
 218 1277 l 1
 39 1277 l 1
 39 1466 l 1
 436 1466 l 1
 436 -407 l 1
EndSplineSet
EndChar
StartChar: asciicircum
Encoding: 94 94 66
Width: 961
Flags: MW
Fore
288 690 m 1
 54 690 l 1
 387 1491 l 1
 572 1491 l 1
 907 690 l 1
 676 690 l 1
 479 1209 l 1
 288 690 l 1
EndSplineSet
EndChar
StartChar: underscore
Encoding: 95 95 67
Width: 1139
Flags: W
HStem: -427 190<-31 1162>
Fore
-31 -427 m 1
 -31 -237 l 1
 1162 -237 l 1
 1162 -427 l 1
 -31 -427 l 1
EndSplineSet
EndChar
StartChar: grave
Encoding: 96 96 68
Width: 682
Flags: W
HStem: 1194 280<291 360 60 495 60 60>
Fore
495 1194 m 1
 291 1194 l 1
 60 1474 l 1
 360 1474 l 1
 495 1194 l 1
EndSplineSet
EndChar
StartChar: a
Encoding: 97 97 69
Width: 1139
Flags: W
HStem: -24 179<345.362 660.429> 876 210<396.82 716.445>
VStem: 74 228<196.873 379.145> 775 220<346.444 434 434 487 674 817.064>
Fore
995 445 m 2
 995 153 1000 93 1052 0 c 1
 814 0 l 1
 803 31 795 63 792 96 c 1
 685 6 579 -24 437 -24 c 0
 149 -24 74 155 74 280 c 0
 74 488 230 579 492 612 c 0
 600 625 695 645 776 674 c 1
 774 721 l 2
 761 828 682 876 558 876 c 0
 422 876 342 809 318 729 c 1
 105 759 l 1
 152 982 304 1086 584 1086 c 0
 864 1086 995 1008 995 685 c 2
 995 445 l 2
302 289 m 0
 302 182 412 155 487 155 c 0
 636 155 715 225 750 291 c 0
 767 323 775 371 775 434 c 2
 775 487 l 1
 554 406 302 461 302 289 c 0
EndSplineSet
EndChar
StartChar: b
Encoding: 98 98 70
Width: 1139
Flags: W
HStem: -10 208<453.188 725.724> 870 216<464.907 732.003> 1446 20G<134 358>
VStem: 134 211<0 84 321.628 727.424 990 1466> 848 207<334.312 746.683>
Fore
596 -10 m 0
 445 -10 362 67 345 84 c 1
 345 0 l 1
 134 0 l 1
 134 1466 l 1
 358 1466 l 1
 358 990 l 1
 436 1054 518 1086 605 1086 c 0
 892 1086 1055 852 1055 547 c 0
 1055 225 895 -10 596 -10 c 0
589 870 m 0
 441 870 346 715 346 538 c 0
 346 260 488 198 582 198 c 0
 754 200 848 331 848 531 c 0
 848 716 780 870 589 870 c 0
EndSplineSet
EndChar
StartChar: c
Encoding: 99 99 71
Width: 1024
Flags: W
HStem: -10 210<420.241 716.367> 879 207<426.33 712.336>
VStem: 80 225<329.112 740.434> 788 217<274.552 403 696 799.343>
Fore
561 200 m 0
 701 200 785 266 788 403 c 1
 1005 403 l 1
 994 62 740 -10 563 -10 c 0
 271 -9 80 204 80 527 c 0
 80 858 245 1086 564 1086 c 0
 825 1086 1003 929 1003 696 c 1
 788 696 l 1
 786 807 682 879 571 879 c 0
 358 879 305 676 305 532 c 0
 305 347 386 200 561 200 c 0
EndSplineSet
EndChar
StartChar: d
Encoding: 100 100 72
Width: 1139
Flags: W
HStem: -10 208<397.276 669.812> 870 216<392.156 658.314> 1446 20G<765 989>
VStem: 68 207<334.106 740.781> 778 211<0 84 321.628 733.909 990 1466>
Fore
68 547 m 0
 68 862 234 1086 518 1086 c 0
 605 1086 687 1054 765 990 c 1
 765 1466 l 1
 989 1466 l 1
 989 0 l 1
 778 0 l 1
 778 84 l 1
 761 67 678 -10 527 -10 c 0
 228 -10 68 224 68 547 c 0
541 198 m 0
 635 198 777 260 777 538 c 0
 777 715 683 870 534 870 c 0
 430 870 275 814 275 531 c 0
 275 331 369 200 541 198 c 0
EndSplineSet
EndChar
StartChar: e
Encoding: 101 101 73
Width: 1139
Flags: W
HStem: -10 214<435.256 746.328> 485 190<318 816> 875 211<416.902 732.583>
VStem: 75 237<336.983 485 675 765.93> 807 241<266.41 333 675 788.308>
Fore
582 204 m 0
 762 204 799 307 807 333 c 1
 1048 333 l 1
 1006 121 839 -10 581 -10 c 0
 249 -10 75 191 75 522 c 0
 75 861 250 1086 571 1086 c 0
 876 1086 1053 869 1055 539 c 0
 1055 521 1054 503 1053 485 c 1
 312 485 l 1
 323 327 420 204 582 204 c 0
816 675 m 1
 802 807 720 875 572 875 c 0
 426 875 326 784 318 675 c 1
 816 675 l 1
EndSplineSet
EndChar
StartChar: f
Encoding: 102 102 74
Width: 569
Flags: W
HStem: 0 21G<153 380> 757 198<19 153 380 536> 1277 21G<610 640> 1304 211<416.253 565.62>
VStem: 153 227<0 757 955 1267.7>
Fore
524 1304 m 0
 438 1304 380 1260 380 1121 c 2
 380 955 l 1
 536 955 l 1
 536 757 l 1
 380 757 l 1
 380 0 l 1
 153 0 l 1
 153 757 l 1
 19 757 l 1
 19 955 l 1
 153 955 l 1
 153 1175 l 2
 153 1447 330 1515 462 1515 c 0
 529 1515 589 1506 640 1488 c 1
 640 1277 l 1
 580 1296 559 1304 524 1304 c 0
EndSplineSet
EndChar
StartChar: g
Encoding: 103 103 75
Width: 1139
Flags: MW
HStem: -435 219<371.178 684.401> 0 247<406.741 676.302> 839 247<405.559 670.41>
VStem: 66 249<343.363 740.864> 757 245<334.927 743.396> 836 166<974 1062>
Fore
522 -435 m 0
 153 -427 102 -236 102 -74 c 1
 315 -74 l 1
 315 -127 370 -216 521 -216 c 0
 698 -216 774 -121 774 75 c 1
 711 25 628 0 525 0 c 0
 237 0 66 222 66 537 c 0
 66 876 250 1086 526 1086 c 0
 667 1086 770 1049 836 974 c 1
 836 1062 l 1
 1002 1062 l 1
 1002 144 l 2
 1002 -330 842 -435 522 -435 c 0
538 839 m 0
 360 839 315 677 315 546 c 0
 315 347 390 247 540 247 c 0
 685 247 757 345 757 541 c 0
 757 800 626 839 538 839 c 0
EndSplineSet
EndChar
StartChar: h
Encoding: 104 104 76
Width: 1139
Flags: W
HStem: 0 21G<135 365 770 1000> 832 263<474.49 721.603> 1446 20G<135 365>
VStem: 135 230<0 706.351 1008 1466> 770 230<0 780.642>
Fore
596 832 m 0
 445 832 365 672 365 532 c 2
 365 0 l 1
 135 0 l 1
 135 1466 l 1
 365 1466 l 1
 365 1008 l 1
 416 1066 495 1095 600 1095 c 0
 920 1095 1000 858 1000 673 c 2
 1000 0 l 1
 770 0 l 1
 770 624 l 2
 770 786 700 832 596 832 c 0
EndSplineSet
EndChar
StartChar: i
Encoding: 105 105 77
Width: 455
Flags: W
HStem: 0 21G<106 346> 1042 20G<106 346> 1218 248<111 342>
VStem: 106 240<0 1062 1218 1466>
Fore
111 1218 m 1
 111 1466 l 1
 342 1466 l 1
 342 1218 l 1
 111 1218 l 1
106 0 m 1
 106 1062 l 1
 346 1062 l 1
 346 0 l 1
 106 0 l 1
EndSplineSet
EndChar
StartChar: j
Encoding: 106 106 78
Width: 455
Flags: W
HStem: -428 215<-66.0374 75.2804> 1042 20G<112 340> 1220 246<112 340>
VStem: 112 228<-175.048 1062 1220 1466>
Fore
112 1220 m 1
 112 1466 l 1
 340 1466 l 1
 340 1220 l 1
 112 1220 l 1
340 -58 m 2
 340 -336 230 -428 65 -428 c 0
 8 -428 -45 -423 -94 -412 c 1
 -94 -205 l 1
 -59 -210 -38 -213 -29 -213 c 0
 56 -213 112 -176 112 -20 c 2
 112 1062 l 1
 340 1062 l 1
 340 -58 l 2
EndSplineSet
EndChar
StartChar: k
Encoding: 107 107 79
Width: 1024
Flags: MW
HStem: 0 21G<136 356 727.727 1016> 1042 20G<678.011 975> 1446 20G<136 356>
VStem: 136 220<0 390 684 1466>
Fore
136 0 m 1
 136 1466 l 1
 356 1466 l 1
 356 684 l 1
 696 1062 l 1
 975 1062 l 1
 592 636 l 1
 1016 0 l 1
 740 0 l 1
 443 484 l 1
 356 390 l 1
 356 0 l 1
 136 0 l 1
EndSplineSet
EndChar
StartChar: l
Encoding: 108 108 80
Width: 455
Flags: W
HStem: 0 1466<104 340 104 340 104 104>
VStem: 104 236<0 1466>
Fore
104 0 m 1
 104 1466 l 1
 340 1466 l 1
 340 0 l 1
 104 0 l 1
EndSplineSet
EndChar
StartChar: m
Encoding: 109 109 81
Width: 1706
Flags: W
HStem: 0 21G<135 362 742 986 1356 1574> 842 244<446.283 702.11 1054.17 1308.13>
VStem: 135 227<0 751.625> 742 244<0 771.504> 1356 218<0 796.881>
Fore
578 842 m 0
 405 842 362 698 362 551 c 2
 362 0 l 1
 135 0 l 1
 135 1062 l 1
 343 1062 l 1
 343 978 l 1
 411 1050 503 1086 618 1086 c 0
 814 1086 896 994 918 948 c 1
 979 1047 1126 1086 1246 1086 c 0
 1508 1086 1574 912 1574 729 c 2
 1574 0 l 1
 1356 0 l 1
 1356 669 l 2
 1351 782 1301 839 1206 842 c 0
 1094 842 986 797 986 617 c 2
 986 0 l 1
 742 0 l 1
 742 690 l 2
 742 812 645 842 578 842 c 0
EndSplineSet
EndChar
StartChar: n
Encoding: 110 110 82
Width: 1139
Flags: W
HStem: 0 21G<135 368 776 1000> 828 267<457.901 723.853>
VStem: 135 233<0 726.38 1012 1064> 776 224<0 771.532>
Fore
596 828 m 0
 414 828 368 670 368 532 c 2
 368 0 l 1
 135 0 l 1
 135 1064 l 1
 368 1064 l 1
 368 1012 l 1
 435 1074 501 1095 600 1095 c 0
 920 1095 1000 858 1000 673 c 2
 1000 0 l 1
 776 0 l 1
 776 624 l 2
 776 779 704 828 596 828 c 0
EndSplineSet
EndChar
StartChar: o
Encoding: 111 111 83
Width: 1139
Flags: W
HStem: -11 217<413.351 710.862> 864 222<423.832 704.533>
VStem: 68 241<325.313 739.391> 821 242<327.831 735.451>
Fore
566 -11 m 0
 244 -11 68 189 68 531 c 0
 68 876 247 1086 566 1086 c 0
 876 1086 1063 877 1063 546 c 0
 1063 113 820 -11 566 -11 c 0
566 864 m 0
 360 864 309 682 309 529 c 0
 309 249 463 206 566 206 c 0
 770 206 821 374 821 534 c 0
 821 808 668 864 566 864 c 0
EndSplineSet
EndChar
StartChar: p
Encoding: 112 112 84
Width: 1139
Flags: W
HStem: -10 216<450.848 717.107> 878 208<438.772 712.098>
VStem: 120 224<-390 86 342.091 753.928 992 1076> 834 207<335.842 741.471>
Fore
1041 529 m 0
 1041 216 876 -10 591 -10 c 0
 504 -10 422 22 344 86 c 1
 344 -390 l 1
 120 -390 l 1
 120 1076 l 1
 331 1076 l 1
 331 992 l 1
 361 1016 431 1086 582 1086 c 0
 881 1086 1041 851 1041 529 c 0
569 878 m 0
 474 878 332 815 332 538 c 0
 332 361 426 206 576 206 c 0
 679 206 834 263 834 545 c 0
 834 744 741 876 569 878 c 0
EndSplineSet
EndChar
StartChar: q
Encoding: 113 113 85
Width: 1139
Flags: W
HStem: -10 216<411.323 677.093> 878 208<416.276 688.812>
VStem: 87 207<335.219 741.688> 784 224<-390 86 348.576 754.372 992 1076>
Fore
546 1086 m 0
 697 1086 780 1009 797 992 c 1
 797 1076 l 1
 1008 1076 l 1
 1008 -390 l 1
 784 -390 l 1
 784 86 l 1
 706 22 624 -10 537 -10 c 0
 254 -10 87 214 87 529 c 0
 87 851 247 1086 546 1086 c 0
553 206 m 0
 701 206 796 361 796 538 c 0
 796 816 654 878 560 878 c 0
 388 876 294 745 294 545 c 0
 294 262 449 206 553 206 c 0
EndSplineSet
EndChar
StartChar: r
Encoding: 114 114 86
Width: 682
Flags: MW
HStem: 0 21G<133 380> 828 249<448.034 657.521>
VStem: 133 229<947 1062> 133 247<0 645.139>
Fore
133 0 m 1
 133 1062 l 1
 362 1062 l 1
 362 947 l 1
 435 1068 486 1077 580 1077 c 0
 636 1077 675 1051 710 1028 c 1
 648 789 l 1
 622 803 607 828 565 828 c 0
 369 828 380 603 380 484 c 2
 380 0 l 1
 133 0 l 1
EndSplineSet
EndChar
StartChar: s
Encoding: 115 115 87
Width: 1024
Flags: W
HStem: -11 212<361.926 668.034> 875 211<353.243 645.878>
VStem: 93 236<696.917 844.424> 710 235<241.669 402.26>
Fore
945 325 m 0
 945 114 758 -11 517 -11 c 0
 154 -11 73 210 63 358 c 1
 291 358 l 1
 304 257 389 201 516 201 c 0
 645 201 710 265 710 306 c 0
 710 409 649 420 523 443 c 0
 272 489 93 540 93 780 c 0
 93 975 260 1086 484 1086 c 0
 839 1086 903 895 905 764 c 1
 679 764 l 1
 672 840 606 875 497 875 c 0
 372 875 329 820 329 783 c 0
 329 690 398 676 517 654 c 0
 826 597 945 524 945 325 c 0
EndSplineSet
EndChar
StartChar: t
Encoding: 116 116 88
Width: 569
Flags: MW
HStem: -13 204<389.211 515.056> 892 196<18 140 372 497>
VStem: 140 232<205.9 892 1088 1433>
Fore
528 199 m 1
 554 2 l 1
 506 -8 456 -13 406 -13 c 0
 146 -13 140 129 140 311 c 2
 140 892 l 1
 18 892 l 1
 18 1088 l 1
 140 1088 l 1
 140 1433 l 1
 372 1433 l 1
 372 1088 l 1
 497 1088 l 1
 497 892 l 1
 372 892 l 1
 372 301 l 2
 372 238 391 191 474 191 c 0
 475 191 493 194 528 199 c 1
EndSplineSet
EndChar
StartChar: u
Encoding: 117 117 89
Width: 1139
Flags: W
HStem: -10 253<402.459 645.877> 1065 20G<104 330 726 969>
VStem: 104 226<316.902 412 412 1085> 726 243<299.607 1085>
Fore
534 243 m 0
 688 243 726 342 726 456 c 2
 726 1085 l 1
 969 1085 l 1
 969 0 l 1
 789 0 l 1
 789 64 l 1
 728 -2 576 -10 537 -10 c 0
 191 -10 104 210 104 412 c 2
 104 1085 l 1
 330 1085 l 1
 330 461 l 2
 330 287 446 243 534 243 c 0
EndSplineSet
EndChar
StartChar: v
Encoding: 118 118 90
Width: 1024
Flags: W
HStem: 0 21G<421.411 606.552> 1042 20G<26 275.179 753.162 1000>
VStem: 26 974<1062 1062 1062 1062>
Fore
429 0 m 1
 26 1062 l 1
 268 1062 l 1
 520 360 l 1
 760 1062 l 1
 1000 1062 l 1
 599 0 l 1
 429 0 l 1
EndSplineSet
EndChar
StartChar: w
Encoding: 119 119 91
Width: 1479
Flags: W
HStem: 0 21G<290.539 549.799 935.5 1204.95> 1042 20G<6 260.814 641.582 838.791 1231.21 1463>
Fore
296 0 m 1
 6 1062 l 1
 256 1062 l 1
 424 364 l 1
 648 1062 l 1
 832 1062 l 1
 1069 364 l 1
 1236 1062 l 1
 1463 1062 l 1
 1200 0 l 1
 956 0 l 1
 915 149 843 374 740 676 c 1
 544 0 l 1
 296 0 l 1
EndSplineSet
EndChar
StartChar: x
Encoding: 120 120 92
Width: 1024
Flags: W
HStem: 0 21G<15 295.978 719.696 1009> 1042 20G<44 335.006 687.359 981>
VStem: 15 994<0 0 1.53064e-18 1.53064e-18>
Fore
15 0 m 1
 346 552 l 1
 44 1062 l 1
 324 1062 l 1
 499 744 l 1
 700 1062 l 1
 981 1062 l 1
 657 562 l 1
 1009 0 l 1
 732 0 l 1
 505 369 l 1
 284 0 l 1
 15 0 l 1
EndSplineSet
EndChar
StartChar: y
Encoding: 121 121 93
Width: 1024
Flags: W
HStem: -409 217<127 175.025 175.025 191.742 183.384 358.955> 1042 20G<33 298.754 737.652 1006>
VStem: 33 973<1062 1062 1023.03 1039.74>
Fore
214 -206 m 0
 330 -206 417 -143 417 -54 c 0
 417 -37 414 -19 408 0 c 2
 33 1062 l 1
 292 1062 l 1
 525 372 l 1
 744 1062 l 1
 1006 1062 l 1
 624 0 l 1
 599 -240 472 -422 239 -422 c 0
 197 -422 157 -421 127 -409 c 1
 107 -192 l 1
 141 -201 177 -206 214 -206 c 0
EndSplineSet
EndChar
StartChar: z
Encoding: 122 122 94
Width: 1024
Flags: MW
HStem: 0 212<344 980> 864 198<60 664>
Fore
40 0 m 1
 40 212 l 1
 664 864 l 1
 60 864 l 1
 60 1062 l 1
 948 1062 l 1
 948 864 l 1
 344 212 l 1
 980 212 l 1
 980 0 l 1
 40 0 l 1
EndSplineSet
EndChar
StartChar: braceleft
Encoding: 123 123 95
Width: 684
Flags: W
HStem: 449 163<57 186.32>
VStem: 265 219<-91.8112 359.986 700.646 1170.96>
Fore
454 -418 m 0
 290 -390 265 -230 265 77 c 0
 265 275 251 445 57 449 c 1
 57 612 l 1
 251 616 264 785 264 971 c 0
 264 1215 250 1405 438 1475 c 0
 467 1486 515 1491 580 1491 c 2
 636 1491 l 1
 636 1280 l 1
 595 1280 l 2
 555 1280 547 1272 528 1254 c 0
 486 1218 484 1149 484 981 c 0
 481 729 446 618 308 530 c 1
 452 445 484 290 484 57 c 0
 483 -52 490 -170 536 -196 c 0
 549 -203 569 -212 605 -212 c 2
 636 -212 l 1
 636 -431 l 1
 580 -431 l 2
 532 -431 491 -425 454 -418 c 0
EndSplineSet
EndChar
StartChar: bar
Encoding: 124 124 96
Width: 532
Flags: W
HStem: -431 1922<140 390 140 390 140 140>
VStem: 140 250<-431 1491>
Fore
140 -431 m 1
 140 1491 l 1
 390 1491 l 1
 390 -431 l 1
 140 -431 l 1
EndSplineSet
EndChar
StartChar: braceright
Encoding: 125 125 97
Width: 684
Flags: W
HStem: 449 163<496.68 626>
VStem: 199 219<-91.8112 57 77 359.986 700.646 971 981 1170.96>
Fore
229 -418 m 0
 393 -390 418 -230 418 77 c 0
 418 275 432 445 626 449 c 1
 626 612 l 1
 432 616 419 785 419 971 c 0
 419 1215 433 1405 245 1475 c 0
 216 1486 168 1491 103 1491 c 2
 47 1491 l 1
 47 1280 l 1
 88 1280 l 2
 128 1280 136 1272 155 1254 c 0
 197 1218 199 1149 199 981 c 0
 202 729 237 618 375 530 c 1
 231 445 199 290 199 57 c 0
 200 -52 193 -170 147 -196 c 0
 134 -203 114 -212 78 -212 c 2
 47 -212 l 1
 47 -431 l 1
 103 -431 l 2
 151 -431 192 -425 229 -418 c 0
EndSplineSet
EndChar
StartChar: asciitilde
Encoding: 126 126 98
Width: 1196
Flags: MW
HStem: 531 237<688.953 994.271> 665 237<197.32 520.352>
Fore
348 665 m 0
 246 665 178 617 87 529 c 1
 87 782 l 1
 158 862 250 902 365 902 c 0
 559 902 716 768 852 768 c 0
 955 768 1055 846 1110 905 c 1
 1110 645 l 1
 1025 566 944 531 833 531 c 0
 635 531 510 665 348 665 c 0
EndSplineSet
EndChar
StartChar: exclamdown
Encoding: 161 161 100
Width: 680
Flags: W
HStem: 0 21G<228 452> 1059 20G<255.481 422.556> 1278 211<238 442>
VStem: 238 204<0 257.809 1278 1489> 256 166<821.191 1079>
Fore
442 1278 m 1xf0
 238 1278 l 1
 238 1489 l 1
 442 1489 l 1
 442 1278 l 1xf0
452 0 m 1
 228 0 l 1
 256 1079 l 1
 422 1079 l 1xe8
 452 0 l 1
EndSplineSet
EndChar
StartChar: cent
Encoding: 162 162 101
Width: 1118
Flags: W
HStem: 2 144<463.918 557 671 714.009> 971 144<460.707 557 671 817.47> 1455 20G<557 671>
VStem: 114 193<320.266 797.956> 557 114<-361 1 146 971 1116 1475>
Fore
975 83 m 1
 807 5 714 3 671 1 c 1
 671 -361 l 1
 557 -361 l 1
 557 2 l 1
 256 38 114 249 114 557 c 0
 114 878 281 1083 557 1115 c 1
 557 1475 l 1
 671 1475 l 1
 671 1116 l 1
 794 1112 903 1074 975 1037 c 1
 975 837 l 1
 965 837 l 1
 820 958 713 971 671 977 c 1
 671 141 l 1
 704 144 821 159 965 281 c 1
 975 281 l 1
 975 83 l 1
557 971 m 1
 494 960 307 907 307 557 c 0
 307 209 495 157 557 146 c 1
 557 971 l 1
EndSplineSet
EndChar
StartChar: sterling
Encoding: 163 163 102
Width: 1118
Flags: W
HStem: 0 171<261 1031> 613 138<130 291 483 847> 1264 21G<947 1001> 1351 167<577.589 869.482>
VStem: 291 192<367.797 613 751 1244.02>
Fore
483 552 m 2
 483 330 322 218 261 182 c 1
 261 171 l 1
 1031 171 l 1
 1031 0 l 1
 89 0 l 1
 89 207 l 1
 253 256 291 398 291 613 c 1
 130 613 l 1
 130 751 l 1
 291 751 l 1
 291 1071 l 2
 291 1340 459 1518 708 1518 c 0
 789 1518 838 1516 1001 1470 c 1
 1001 1264 l 1
 991 1264 l 1
 903 1325 806 1351 727 1351 c 0
 553 1351 483 1232 483 1052 c 2
 483 751 l 1
 847 751 l 1
 847 613 l 1
 483 613 l 1
 483 552 l 2
EndSplineSet
EndChar
StartChar: currency
Encoding: 164 164 103
Width: 1118
Flags: W
HStem: 326 138<439.532 656.434> 858 138<467.65 680.151>
VStem: 225 143<567.566 785.003> 752 144<567.535 787.234>
Fore
896 661 m 0
 896 608 881 545 843 486 c 1
 1057 272 l 1
 951 166 l 1
 737 378 l 1
 674 340 631 326 560 326 c 0
 490 326 426 353 385 379 c 1
 170 164 l 1
 65 273 l 1
 277 486 l 1
 240 546 225 613 225 661 c 0
 225 730 249 788 278 835 c 1
 65 1051 l 1
 172 1157 l 1
 386 944 l 1
 445 982 508 996 560 996 c 0
 630 996 692 971 736 945 c 1
 948 1157 l 1
 1057 1052 l 1
 843 836 l 1
 878 780 896 731 896 661 c 0
560 464 m 0
 660 464 752 547 752 661 c 0
 752 772 663 858 560 858 c 0
 460 858 368 775 368 661 c 0
 368 550 457 464 560 464 c 0
EndSplineSet
EndChar
StartChar: yen
Encoding: 165 165 104
Width: 1118
Flags: W
HStem: 0 21G<465 653> 440 138<125 465 653 993>
VStem: 467 184<0 440 578 657>
Fore
1059 1489 m 1
 651 678 l 1
 651 578 l 1
 993 578 l 1
 993 440 l 1
 653 440 l 1
 653 0 l 1
 465 0 l 1
 465 440 l 1
 125 440 l 1
 125 578 l 1
 467 578 l 1
 467 657 l 1
 56 1489 l 1
 266 1489 l 1
 560 850 l 1
 858 1489 l 1
 1059 1489 l 1
EndSplineSet
EndChar
StartChar: brokenbar
Encoding: 166 166 105
Width: 783
Flags: W
VStem: 308 167<-392 406 758 1556>
Fore
475 758 m 1
 308 758 l 1
 308 1556 l 1
 475 1556 l 1
 475 758 l 1
475 -392 m 1
 308 -392 l 1
 308 406 l 1
 475 406 l 1
 475 -392 l 1
EndSplineSet
EndChar
StartChar: section
Encoding: 167 167 106
Width: 1118
Flags: W
HStem: -385 165<278.47 689.964> 1268 21G<850.5 946> 1355 164<421.235 771.682>
VStem: 119 189<446.034 668.338> 148 192<1053.55 1281.3> 776 193<-147.719 83.4846> 810 188<430.026 688.913>
Fore
667 315 m 1xf2
 700 335 810 411 810 555 c 0
 810 711 707 745 549 788 c 2
 450 819 l 1
 324 741 308 624 308 579 c 0
 308 444 385 402 492 369 c 2
 667 315 l 1xf2
490 -385 m 0
 368 -385 263 -360 172 -327 c 1
 172 -133 l 1
 182 -133 l 1
 245 -166 370 -220 509 -220 c 0
 618 -220 776 -183 776 -36 c 0
 776 76 711 121 594 154 c 2
 460 192 l 2
 287 242 119 308 119 533 c 0xf4
 119 611 144 752 318 858 c 1
 318 865 l 1
 249 902 148 978 148 1147 c 0
 148 1320 268 1519 628 1519 c 0
 755 1519 848 1497 946 1462 c 1
 946 1268 l 1
 936 1268 l 1
 765 1354 660 1355 607 1355 c 0
 470 1355 340 1302 340 1176 c 0
 340 1036 430 1000 657 942 c 0
 863 887 998 805 998 601 c 0xea
 998 516 973 381 799 277 c 1
 799 270 l 1
 872 231 969 158 969 -10 c 0xe4
 969 -160 866 -385 490 -385 c 0
EndSplineSet
EndChar
StartChar: dieresis
Encoding: 168 168 107
Width: 1118
Flags: W
HStem: 1304 195<253 454 666 867>
VStem: 253 201<1304 1499> 666 201<1304 1499>
Fore
867 1304 m 1
 666 1304 l 1
 666 1499 l 1
 867 1499 l 1
 867 1304 l 1
454 1304 m 1
 253 1304 l 1
 253 1499 l 1
 454 1499 l 1
 454 1304 l 1
EndSplineSet
EndChar
StartChar: copyright
Encoding: 169 169 108
Width: 1902
Flags: W
HStem: -210 110<704.404 1202.27> 180 147<833.888 1160.54> 996 147<831.454 1159.17> 1409 110<702.387 1199.5>
VStem: 86 117<401.782 906.111> 531 185<454.683 870.14> 1701 115<394.849 907.182>
Fore
1816 655 m 0
 1816 169 1430 -210 951 -210 c 0
 465 -210 86 176 86 655 c 0
 86 1152 483 1519 951 1519 c 0
 1441 1519 1816 1130 1816 655 c 0
1701 655 m 0
 1701 1088 1359 1409 952 1409 c 0
 527 1409 203 1070 203 655 c 0
 203 221 546 -100 952 -100 c 0
 1375 -100 1701 237 1701 655 c 0
986 327 m 0
 1124 327 1238 416 1258 434 c 1
 1274 434 l 1
 1274 255 l 1
 1136 194 1076 180 982 180 c 0
 781 180 531 276 531 660 c 0
 531 973 718 1143 982 1143 c 0
 1099 1143 1202 1106 1274 1070 c 1
 1274 889 l 1
 1258 889 l 1
 1203 937 1095 996 986 996 c 0
 878 996 716 948 716 660 c 0
 716 375 878 327 986 327 c 0
EndSplineSet
EndChar
StartChar: ordfeminine
Encoding: 170 170 109
Width: 1010
Flags: W
HStem: 541 155<326.931 508.318> 1045 139<397.349 708> 1365 154<323.181 663.108>
VStem: 114 172<736.89 960.686> 708 166<566 657 802 1045 1184 1319.56>
Fore
483 1519 m 0
 778 1519 874 1389 874 1194 c 2
 874 566 l 1
 708 566 l 1
 708 657 l 1
 657 618 l 2
 559 548 472 541 404 541 c 0
 238 541 114 662 114 839 c 0
 114 1115 340 1166 708 1184 c 1
 708 1203 l 2
 708 1333 631 1365 482 1365 c 0
 425 1365 368 1361 204 1304 c 1
 189 1304 l 1
 189 1474 l 1
 221 1484 365 1519 483 1519 c 0
461 696 m 0
 509 696 586 702 708 802 c 1
 708 1045 l 1
 500 1030 286 1031 286 849 c 0
 286 770 323 696 461 696 c 0
EndSplineSet
EndChar
StartChar: guillemotleft
Encoding: 171 171 110
Width: 1174
Flags: MW
Fore
1043 191 m 1
 555 610 l 1
 555 695 l 1
 1043 1113 l 1
 1043 925 l 1
 726 652 l 1
 1043 379 l 1
 1043 191 l 1
613 162 m 1
 103 608 l 1
 103 697 l 1
 613 1142 l 1
 613 946 l 1
 282 652 l 1
 613 358 l 1
 613 162 l 1
EndSplineSet
EndChar
StartChar: logicalnot
Encoding: 172 172 111
Width: 1490
Flags: MW
HStem: 602 160<157 1152>
VStem: 1152 171<57 602>
Fore
1323 57 m 1
 1152 57 l 1
 1152 602 l 1
 157 602 l 1
 157 762 l 1
 1323 762 l 1
 1323 57 l 1
EndSplineSet
EndChar
StartChar: registered
Encoding: 174 174 113
Width: 1902
Flags: W
HStem: -210 110<704.404 1202.27> 570 126<815 938> 1005 125<815 1042.01> 1409 110<702.387 1199.5>
VStem: 86 117<401.782 906.111> 650 165<215 570 696 1005> 1120 182<743.168 969.525> 1701 115<394.849 907.182>
Fore
1816 655 m 0
 1816 169 1430 -210 951 -210 c 0
 465 -210 86 176 86 655 c 0
 86 1152 483 1519 951 1519 c 0
 1441 1519 1816 1130 1816 655 c 0
1701 655 m 0
 1701 1088 1359 1409 952 1409 c 0
 527 1409 203 1070 203 655 c 0
 203 221 546 -100 952 -100 c 0
 1375 -100 1701 237 1701 655 c 0
1302 879 m 0
 1302 773 1253 676 1102 615 c 1
 1448 215 l 1
 1221 215 l 1
 938 570 l 1
 815 570 l 1
 815 215 l 1
 650 215 l 1
 650 1130 l 1
 929 1130 l 2
 1006 1130 1302 1146 1302 879 c 0
913 696 m 2
 1074 696 1120 765 1120 868 c 0
 1120 991 1024 1005 930 1005 c 2
 815 1005 l 1
 815 696 l 1
 913 696 l 2
EndSplineSet
EndChar
StartChar: macron
Encoding: 175 175 114
Width: 1118
Flags: MW
HStem: 1659 130<-16 1134>
Fore
1134 1659 m 1
 -16 1659 l 1
 -16 1789 l 1
 1134 1789 l 1
 1134 1659 l 1
EndSplineSet
EndChar
StartChar: degree
Encoding: 176 176 115
Width: 964
Flags: W
HStem: 755 152<349.969 615.091> 1363 152<347.406 615.305>
VStem: 101 157<999.256 1270.4> 706 157<998.49 1272.1>
Fore
482 1515 m 0
 695 1515 863 1354 863 1135 c 0
 863 917 695 755 482 755 c 0
 270 755 101 914 101 1135 c 0
 101 1353 269 1515 482 1515 c 0
482 907 m 0
 616 907 706 1013 706 1135 c 0
 706 1269 607 1363 482 1363 c 0
 351 1363 258 1262 258 1135 c 0
 258 999 362 907 482 907 c 0
EndSplineSet
EndChar
StartChar: plusminus
Encoding: 177 177 116
Width: 1490
Flags: W
HStem: 159 158<162 662 828 1328> 739 158<162 662 828 1328>
VStem: 662 166<317 739 897 1402>
Fore
1328 159 m 1
 162 159 l 1
 162 317 l 1
 662 317 l 1
 662 739 l 1
 162 739 l 1
 162 897 l 1
 662 897 l 1
 662 1402 l 1
 828 1402 l 1
 828 897 l 1
 1328 897 l 1
 1328 739 l 1
 828 739 l 1
 828 317 l 1
 1328 317 l 1
 1328 159 l 1
EndSplineSet
EndChar
StartChar: uni00B2
Encoding: 178 178 117
Width: 1010
Flags: W
HStem: 566 144<373 866> 1279 21G<191 226.5> 1371 148<284.031 580.059>
VStem: 619 185<1116.78 1332.3>
Fore
481 1519 m 0
 738 1519 804 1354 804 1239 c 0
 804 1064 684 945 496 802 c 2
 373 710 l 1
 866 710 l 1
 866 566 l 1
 185 566 l 1
 185 718 l 1
 332 832 l 2
 456 925 556 1036 586 1088 c 0
 608 1127 619 1173 619 1227 c 0
 619 1342 529 1371 457 1371 c 0
 352 1371 247 1311 206 1279 c 1
 191 1279 l 1
 191 1458 l 1
 268 1491 377 1519 481 1519 c 0
EndSplineSet
EndChar
StartChar: uni00B3
Encoding: 179 179 118
Width: 1010
Flags: MW
HStem: 542 139<322.13 617.723> 968 139<334 600.275> 1380 139<299.434 606.231>
VStem: 641 173<1148.72 1344.89> 665 172<727.81 932.392>
Fore
640 1047 m 1
 741 1026 837 959 837 828 c 0
 837 714 768 542 474 542 c 0
 394 542 290 553 184 600 c 1
 184 775 l 1
 201 775 l 1
 250 730 358 681 471 681 c 0
 552 681 665 710 665 826 c 0
 665 937 591 968 474 968 c 2
 334 968 l 1
 334 1107 l 1
 459 1107 l 2
 564 1107 641 1152 641 1249 c 0
 641 1301 617 1380 472 1380 c 0
 371 1380 258 1322 216 1283 c 1
 199 1283 l 1
 199 1458 l 1
 280 1492 381 1519 492 1519 c 0
 737 1519 814 1378 814 1281 c 0
 814 1145 720 1082 640 1055 c 1
 640 1047 l 1
EndSplineSet
EndChar
StartChar: acute
Encoding: 180 180 119
Width: 1118
Flags: W
HStem: 1302 374<598 871 871 871>
Fore
871 1676 m 1
 598 1302 l 1
 449 1302 l 1
 628 1676 l 1
 871 1676 l 1
EndSplineSet
EndChar
StartChar: mu
Encoding: 181 181 120
Width: 1163
Flags: W
HStem: -17 181<419.54 742.443>
VStem: 136 188<-412 115 275 1117> 839 188<275 1117> 855 172<0 116>
Fore
578 164 m 0xd0
 690 164 769 199 839 275 c 1
 839 1117 l 1
 1027 1117 l 1xe0
 1027 0 l 1
 855 0 l 1
 855 116 l 1
 849 116 l 1
 739 0 661 -17 578 -17 c 0
 476 -17 418 11 324 115 c 1
 324 -412 l 1
 136 -412 l 1
 136 1117 l 1
 324 1117 l 1
 324 275 l 1
 388 199 474 164 578 164 c 0xd0
EndSplineSet
EndChar
StartChar: paragraph
Encoding: 182 182 121
Width: 1118
Flags: W
HStem: 1359 130<655 842>
VStem: 57 598<843.042 1261.05> 515 140<-363 593> 842 140<-363 1359>
Fore
57 1050 m 0xd0
 57 1340 250 1489 560 1489 c 2
 982 1489 l 1
 982 -363 l 1
 842 -363 l 1
 842 1359 l 1
 655 1359 l 1
 655 -363 l 1
 515 -363 l 1
 515 593 l 1xb0
 240 599 57 775 57 1050 c 0xd0
EndSplineSet
EndChar
StartChar: periodcentered
Encoding: 183 183 122
Width: 724
Flags: W
HStem: 832 285<243 482>
VStem: 243 239<832 1117>
Fore
482 832 m 1
 243 832 l 1
 243 1117 l 1
 482 1117 l 1
 482 832 l 1
EndSplineSet
EndChar
StartChar: cedilla
Encoding: 184 184 123
Width: 1118
Flags: MW
HStem: -423 150<375.037 575.357>
VStem: 614 159<-236.97 -39.4845 -44.3767 -34.5923 -34.5923 20>
Fore
614 -107 m 0
 614 -56 613 -69 610 20 c 1
 767 20 l 1
 770 -12 773 -61 773 -89 c 0
 773 -355 591 -423 466 -423 c 0
 431 -423 357 -419 289 -399 c 1
 289 -239 l 1
 298 -239 l 1
 343 -259 390 -273 440 -273 c 0
 561 -273 614 -227 614 -107 c 0
EndSplineSet
EndChar
StartChar: uni0E01
Encoding: 3585 3585 124
Width: 1417
VWidth: 2045
Flags: W
HStem: 0 21G<260 480 1041 1262> 701 220<480 591> 1062 222<505.973 850.016>
VStem: 260 220<0 701> 1041 221<0 868.25>
Fore
1041 700 m 2
 1041 909 875 1062 680 1062 c 0
 509 1062 417 951 395 921 c 1
 591 921 l 1
 591 701 l 1
 480 701 l 1
 480 0 l 1
 260 0 l 1
 260 701 l 1
 100 701 l 1
 100 1022 355 1284 682 1284 c 0
 990 1284 1262 1043 1262 702 c 2
 1262 0 l 1
 1041 0 l 1
 1041 700 l 2
EndSplineSet
EndChar
StartChar: uni0E02
Encoding: 3586 3586 125
Width: 1410
VWidth: 2045
Flags: W
HStem: 0 220<411 521 741 1035> 618 188<269.808 424.186> 982 287<297.325 548.679>
VStem: 74 183<817.587 965.709> 437 185<819.297 969.249> 521 220<220 487.719> 686 218<758.235 1006.11> 1035 220<220 1254>
Fore
489 1269 m 0xfb
 746 1269 904 1091 904 878 c 0xfb
 904 780 866 681 789 581 c 0
 757 535 741 483 741 425 c 2
 741 220 l 1
 1035 220 l 1
 1035 1254 l 1
 1255 1254 l 1
 1255 0 l 1
 411 0 l 1
 411 220 l 1
 521 220 l 1
 521 426 l 2xf5
 521 519 559 612 634 706 c 0
 669 750 686 802 686 861 c 0
 686 936 665 1029 552 1074 c 1
 599 1017 622 956 622 892 c 0
 622 737 498 618 348 618 c 0
 193 618 74 742 74 892 c 8
 74 1157 321 1269 489 1269 c 0xfb
348 982 m 0
 298 982 257 941 257 894 c 0
 257 841 297 806 351 806 c 0
 404 806 437 849 437 894 c 0
 437 946 394 982 348 982 c 0
EndSplineSet
EndChar
StartChar: uni0E03
Encoding: 3587 3587 126
Width: 1542
VWidth: 2045
Flags: W
HStem: 0 220<531 641 861 1165> 468 190<306.086 463.995> 834 184<317.277 457.64> 1244 20G<339 415.955 669.409 735.5 1165 1385>
VStem: 52 243<671.66 896.944> 475 187<668.483 821.129> 641 220<220 510.353> 818 214<701.579 1010.23> 1165 220<220 1254>
Fore
641 365 m 2xfa80
 641 572 818 683 818 850 c 0
 818 962 785 1025 696 1076 c 1
 541 1000 l 1
 385 1073 l 1
 340 1064 318 1046 317 1018 c 1
 610 1018 662 848 662 746 c 0
 662 589 525 468 388 468 c 0
 303 468 52 540 52 860 c 8
 52 973 88 1066 157 1136 c 0
 226 1208 300 1250 378 1264 c 1
 545 1176 l 1
 706 1264 l 1
 765 1256 834 1216 912 1144 c 0
 993 1068 1032 972 1032 844 c 0xfd80
 1032 565 861 570 861 345 c 2
 861 220 l 1
 1165 220 l 1
 1165 1254 l 1
 1385 1254 l 1
 1385 0 l 1
 531 0 l 1
 531 220 l 1
 641 220 l 1
 641 365 l 2xfa80
386 834 m 0
 336 834 295 793 295 746 c 0
 295 693 335 658 389 658 c 0
 442 658 475 701 475 746 c 0
 475 798 432 834 386 834 c 0
EndSplineSet
EndChar
StartChar: uni0E04
Encoding: 3588 3588 127
Width: 1460
VWidth: 2045
Flags: W
HStem: 0 21G<141 369.049 1082 1303> 330 186<642.066 795.61> 694 184<640.918 797.068> 1062 222<550.606 891.016>
VStem: 141 220<452 866.835> 809 185<527.75 680.268> 1082 221<0 868.25>
Fore
720 694 m 0
 669 694 629 653 629 606 c 0
 629 560 665 516 720 516 c 0
 776 516 809 561 809 606 c 0
 809 653 772 694 720 694 c 0
994 604 m 0
 994 449 870 330 720 330 c 0
 645 330 580 357 526 410 c 9
 361 0 l 17
 141 0 l 1
 141 702 l 2
 141 1039 414 1284 723 1284 c 0
 1031 1284 1303 1043 1303 702 c 2
 1303 0 l 1
 1082 0 l 1
 1082 700 l 2
 1082 909 916 1062 721 1062 c 0
 516 1062 361 899 361 702 c 2
 361 452 l 1
 474 726 l 2
 488 760 565 878 720 878 c 0
 875 878 994 754 994 604 c 0
EndSplineSet
EndChar
StartChar: uni0E05
Encoding: 3589 3589 128
Width: 1452
VWidth: 2045
Flags: W
HStem: 0 21G<141 369.049 1082 1303> 330 186<642.299 795.776> 694 184<644.013 796.967> 1264 20G<954.133 1102>
VStem: 141 220<452 960.78> 809 185<527.649 680.296> 1082 221<0 967.912>
Fore
720 694 m 0
 670 694 629 653 629 606 c 0
 629 558 667 516 720 516 c 0
 773 516 809 560 809 606 c 0
 809 658 766 694 720 694 c 0
994 604 m 0
 994 449 870 330 720 330 c 0
 645 330 580 357 526 410 c 9
 361 0 l 17
 141 0 l 1
 141 782 l 2
 141 1010 226 1241 471 1286 c 1
 734 1134 l 1
 988 1284 l 1
 1216 1204 1303 1069 1303 782 c 2
 1303 0 l 1
 1082 0 l 1
 1082 780 l 2
 1082 925 1037 1010 946 1036 c 1
 724 917 l 1
 506 1036 l 1
 409 1013 361 929 361 782 c 2
 361 452 l 1
 474 726 l 2
 488 760 565 878 720 878 c 0
 875 878 994 754 994 604 c 0
EndSplineSet
EndChar
StartChar: uni0E06
Encoding: 3590 3590 129
Width: 1623
VWidth: 2045
Flags: W
HStem: -20 186<506.625 657.449> 344 188<503.408 646.816> 549 159<268.212 422.624> 884 150<306.306 423.072> 1254 20<349 425.955 679.409 745.5 1250 1470>
VStem: 55 200<720.812 869.422> 308 183<180.508 328.114> 435 167<719.499 870.103> 671 214<182.968 235 522 576.508> 829 212<764.735 1037.75> 1250 220<226 1254>
Fore
582 344 m 0xfea0
 531 344 491 303 491 256 c 0
 491 210 527 166 582 166 c 0
 638 166 671 211 671 256 c 0
 671 303 634 344 582 344 c 0xfea0
308 254 m 0
 308 435 456 532 582 532 c 0
 626 532 657 529 675 522 c 1
 675 662 829 764 829 888 c 0
 829 1065 708 1095 706 1096 c 1
 551 1020 l 1
 395 1093 l 1
 344 1078 314 1056 304 1026 c 1
 325 1032 345 1034 365 1034 c 0
 461 1034 602 958 602 810 c 0
 602 708 550 549 343 549 c 0
 160 549 55 685 55 838 c 8
 55 968 92 1070 164 1143 c 0
 235 1216 310 1260 388 1274 c 1
 555 1186 l 1
 716 1274 l 1
 775 1266 844 1226 922 1154 c 0
 1002 1080 1041 986 1041 871 c 0xfd60
 1041 602 885 618 885 448 c 9
 1250 226 l 1
 1250 1254 l 1
 1470 1254 l 1
 1470 0 l 25
 1250 0 l 25
 885 235 l 17
 885 112 785 -20 598 -20 c 0
 414 -20 308 112 308 254 c 0
346 884 m 0
 296 884 255 843 255 796 c 0
 255 743 295 708 349 708 c 0
 402 708 435 751 435 796 c 0
 435 848 392 884 346 884 c 0
EndSplineSet
EndChar
StartChar: uni0E07
Encoding: 3591 3591 130
Width: 1081
VWidth: 2045
Flags: W
HStem: 0 21G<684 924> 726 186<572.613 701.998> 1090 184<573.285 726.967>
VStem: 376 183<924.876 1076.6> 704 220<262 731> 739 185<923.609 1074.54>
Fore
650 1274 m 0xf8
 805 1274 924 1150 924 1000 c 10
 924 0 l 1xf4
 704 0 l 9
 108 596 l 1
 240 728 l 1
 704 262 l 25
 704 731 l 1
 687 728 669 726 650 726 c 0
 495 726 376 850 376 1000 c 0
 376 1155 500 1274 650 1274 c 0xf8
650 1090 m 0
 600 1090 559 1049 559 1002 c 0
 559 954 597 912 650 912 c 0
 703 912 739 956 739 1002 c 0
 739 1054 696 1090 650 1090 c 0
EndSplineSet
EndChar
StartChar: uni0E08
Encoding: 3592 3592 131
Width: 1368
VWidth: 2045
Flags: W
HStem: 0 21G<844.289 1072.22> 352 186<562.381 704.347> 716 184<563.177 715.077> 1064 220<495.322 819.182>
VStem: 106 220<732 888.824> 366 183<551.093 702.599> 990 220<626.904 686.684 686.684 696.454 691.569 894.678>
Fore
658 1064 m 0
 473 1064 326 916 326 732 c 9
 106 732 l 17
 106 1053 366 1284 658 1284 c 0
 979 1284 1210 1024 1210 732 c 0
 1210 691 1206 651 1197 612 c 10
 1068 0 l 1
 848 0 l 1
 776 388 l 17
 735 364 690 352 640 352 c 0
 485 352 366 476 366 626 c 0
 366 781 490 900 640 900 c 0
 789 900 889 790 909 678 c 10
 946 485 l 1
 983 661 l 18
 988 684 990 707 990 732 c 0
 990 917 842 1064 658 1064 c 0
640 716 m 0
 589 716 549 675 549 628 c 0
 549 582 585 538 640 538 c 0
 696 538 729 583 729 628 c 0
 729 675 692 716 640 716 c 0
EndSplineSet
EndChar
StartChar: uni0E09
Encoding: 3593 3593 132
Width: 1466
VWidth: 2045
Flags: W
HStem: -20 186<1021.11 1175.61> 254 186<272.613 402.941> 618 184<273.285 426.967> 1064 220<492.448 823.032>
VStem: 76 183<452.876 604.599> 439 185<451.609 602.542> 992 220<507 892.662> 1189 185<177.75 331.543>
Fore
658 1064 m 0xfe
 473 1064 378 925 350 859 c 9
 147 942 l 17
 222 1124 406 1284 658 1284 c 0
 968 1284 1212 1033 1212 732 c 2
 1212 505 l 17xfe
 1266 480 1374 405 1374 254 c 0xfd
 1374 99 1250 -20 1100 -20 c 0
 946 -20 867 94 843 157 c 9
 624 0 l 9
 405 0 l 25
 405 259 l 1
 388 256 369 254 350 254 c 0
 195 254 76 378 76 528 c 0
 76 683 200 802 350 802 c 0
 505 802 624 678 624 528 c 2
 624 240 l 25
 931 470 l 2
 954 487 974 499 992 507 c 9
 992 729 l 2
 992 923 837 1064 658 1064 c 0xfe
1100 344 m 0
 1049 344 1009 303 1009 256 c 0
 1009 210 1045 166 1100 166 c 0
 1156 166 1189 211 1189 256 c 0xfd
 1189 303 1152 344 1100 344 c 0
350 618 m 0
 300 618 259 577 259 530 c 0
 259 482 297 440 350 440 c 0
 403 440 439 484 439 530 c 0
 439 582 396 618 350 618 c 0
EndSplineSet
EndChar
StartChar: uni0E0A
Encoding: 3594 3594 133
Width: 1435
VWidth: 2045
Flags: W
HStem: 0 220<411 521 741 1035> 618 188<269.808 424.186> 982 287<297.325 548.679>
VStem: 74 183<817.587 965.709> 437 185<819.297 969.249> 521 220<220 489.828> 686 218<759.35 1006.11> 1035 220<220 751.312> 1143 219<1151.74 1368>
Fore
489 1269 m 0xfa
 746 1269 904 1091 904 878 c 0xfa
 904 783 866 684 789 581 c 0
 757 538 741 486 741 425 c 2
 741 220 l 1
 1035 220 l 1
 1035 704 l 18xf5
 1035 739 1010 756 960 756 c 1
 960 976 l 1
 1054 1025 1143 1189 1143 1368 c 1
 1362 1368 l 1xf080
 1362 1172 1288 1003 1188 879 c 1
 1232 829 1254 770 1254 702 c 2
 1255 0 l 1
 411 0 l 1
 411 220 l 1
 521 220 l 1
 521 426 l 2xf5
 521 519 559 612 634 706 c 0
 669 750 686 802 686 861 c 0
 686 936 665 1029 552 1074 c 1
 599 1017 622 956 622 892 c 0
 622 737 498 618 348 618 c 0
 193 618 74 742 74 892 c 0
 74 1157 321 1269 489 1269 c 0xfa
348 982 m 0
 298 982 257 941 257 894 c 0
 257 841 297 806 351 806 c 0
 404 806 437 849 437 894 c 0
 437 946 394 982 348 982 c 0
EndSplineSet
EndChar
StartChar: uni0E0B
Encoding: 3595 3595 134
Width: 1572
VWidth: 2045
Flags: W
HStem: 0 220<531 641 861 1155> 468 190<307.671 463.046> 834 184<317.277 457.64> 1244 20G<327 415.955 669.409 735.5>
VStem: 52 243<671.811 932.943> 475 187<669.19 821.129> 641 220<220 510.166> 818 215<698.966 1011.13> 1155 220<220 751.312> 1263 219<1151.74 1368>
Fore
1033 846 m 0xfd
 1033 572 861 566 861 345 c 2
 861 220 l 1
 1155 220 l 1
 1155 704 l 18xfa80
 1155 739 1130 756 1080 756 c 1
 1080 976 l 1
 1174 1025 1263 1189 1263 1368 c 1
 1482 1368 l 1xf840
 1482 1172 1408 1003 1308 879 c 1
 1352 829 1374 770 1374 702 c 2
 1375 0 l 1
 531 0 l 1
 531 220 l 1
 641 220 l 1
 641 365 l 2xfa80
 641 572 818 683 818 850 c 0
 818 962 785 1025 696 1076 c 1
 541 1000 l 1
 385 1073 l 1
 340 1064 318 1046 317 1018 c 1
 610 1018 662 848 662 746 c 0
 662 593 530 468 381 468 c 0
 303 468 52 544 52 857 c 0
 52 1136 276 1246 378 1264 c 1
 545 1176 l 1
 706 1264 l 1
 765 1256 834 1216 912 1144 c 0
 998 1065 1033 954 1033 846 c 0xfd
386 834 m 0
 336 834 295 793 295 746 c 0
 295 693 335 658 389 658 c 0
 442 658 475 701 475 746 c 0xfc
 475 798 432 834 386 834 c 0
1358 1362 m 1
EndSplineSet
EndChar
StartChar: uni0E0C
Encoding: 3596 3596 135
Width: 1940
VWidth: 2045
Flags: W
HStem: -10 186<410.027 563.61 1022.38 1174.77> 354 184<436.296 565.068> 701 220<435 546> 1062 222<501.127 845.238>
VStem: 214 183<189.812 340.887> 215 220<533 701> 577 185<187.75 340.268> 826 183<189.093 340.615> 1036 221<531 868.25> 1552 220<240 1254>
Fore
1100 354 m 0xf3c0
 1049 354 1009 313 1009 266 c 0
 1009 220 1045 176 1100 176 c 0
 1156 176 1189 221 1189 266 c 0
 1189 313 1152 354 1100 354 c 0xf3c0
488 354 m 0
 437 354 397 313 397 266 c 0xfbc0
 397 220 433 176 488 176 c 0
 544 176 577 221 577 266 c 0
 577 313 540 354 488 354 c 0
1036 700 m 2
 1036 908 871 1062 675 1062 c 0
 504 1062 413 952 390 921 c 1
 546 921 l 1
 546 701 l 1
 435 701 l 1
 435 533 l 17xf7c0
 452 536 469 538 488 538 c 0
 643 538 762 414 762 264 c 0
 762 109 638 -10 488 -10 c 0
 331 -10 214 115 214 264 c 2xfbc0
 215 701 l 1xf7c0
 95 701 l 1
 95 1022 350 1284 677 1284 c 0
 985 1284 1257 1043 1257 702 c 2
 1257 484 l 17
 1272 475 1284 466 1294 458 c 2
 1552 240 l 25
 1552 1254 l 1
 1772 1254 l 1
 1772 0 l 25
 1552 0 l 17
 1357 167 l 1
 1333 104 1254 -10 1100 -10 c 0
 945 -10 826 114 826 264 c 0
 826 409 930 506 1036 531 c 1
 1036 700 l 2
EndSplineSet
EndChar
StartChar: uni0E0D
Encoding: 3597 3597 136
Width: 1940
VWidth: 2045
Flags: W
HStem: -577 163<1301 1464.97> -207 134<1056.75 1210.08> -10 186<410.027 563.61> 0 220<1258 1552> 354 184<436.296 565.068> 701 220<435 546> 1062 222<501.127 847.251>
VStem: 214 183<189.812 340.887> 215 220<533 701> 577 185<187.75 340.268> 911 133<-372.042 -221.616> 1038 220<220 864.928> 1552 220<220 1254>
Fore
677 1284 m 0xeec8
 996 1284 1256 1032 1258 703 c 2
 1258 220 l 17
 1552 220 l 9
 1552 1254 l 1
 1772 1254 l 1
 1772 0 l 25
 1038 0 l 25
 1038 700 l 2
 1038 911 870 1062 675 1062 c 0
 504 1062 413 952 390 921 c 1
 546 921 l 1
 546 701 l 1
 435 701 l 1
 435 533 l 17xded8
 452 536 469 538 488 538 c 0
 643 538 762 414 762 264 c 0
 762 109 638 -10 488 -10 c 0
 331 -10 214 115 214 264 c 2xef48
 215 701 l 1
 95 701 l 1
 95 1022 350 1284 677 1284 c 0xeec8
488 354 m 0
 437 354 397 313 397 266 c 0
 397 220 433 176 488 176 c 0xef48
 544 176 577 221 577 266 c 0
 577 313 540 354 488 354 c 0
1301 -414 m 1
 1486 -422 1572 -270 1621 -154 c 1
 1764 -249 l 1
 1705 -374 1632 -460 1544 -507 c 0
 1458 -553 1365 -577 1267 -577 c 0
 1100 -577 1029 -525 994 -488 c 0
 939 -430 911 -368 911 -301 c 0xce68
 914 -165 1008 -73 1135 -73 c 0
 1260 -73 1367 -179 1359 -294 c 0
 1355 -349 1336 -389 1301 -414 c 1
1134 -207 m 0
 1082 -207 1044 -249 1044 -296 c 0
 1044 -343 1082 -385 1134 -385 c 0
 1184 -385 1225 -343 1225 -296 c 0
 1225 -245 1180 -207 1134 -207 c 0
EndSplineSet
Substitution2: "Thai Descender Removal Single Substitution" uni0E0D.descless
EndChar
StartChar: uni0E0E
Encoding: 3598 3598 137
Width: 1493
VWidth: 2045
Flags: W
HStem: -626 186<444.613 579.792> -262 184<445.285 579.792> -10 186<240.506 394.503> 354 184<240.817 368.704> 701 220<590 701> 1062 222<565.973 910.016>
VStem: 43 185<188.634 341.064> 248 183<-427.124 -275.401> 370 220<533 701> 408 183<189.458 340.887> 1101 221<-277 868.25>
AnchorPoint: "BelowBase" 1176 -661 basechar 0
Fore
742 1284 m 0xfea0
 1050 1284 1322 1043 1322 702 c 2
 1322 -321 l 25
 969 -668 l 1
 779 -481 l 25
 716 -546 l 2
 662 -599 597 -626 522 -626 c 0
 367 -626 248 -502 248 -352 c 0xff20
 248 -197 372 -78 522 -78 c 0
 597 -78 662 -105 716 -158 c 2
 777 -218 l 25
 873 -120 l 1
 1005 -251 l 1
 909 -349 l 17
 969 -408 l 17
 1101 -277 l 25
 1101 700 l 2
 1101 909 935 1062 740 1062 c 0
 569 1062 477 951 455 921 c 1
 701 921 l 1
 701 701 l 1
 590 701 l 1xfea0
 591 264 l 2xfe60
 591 114 472 -10 317 -10 c 0
 162 -10 43 114 43 264 c 0
 43 419 167 538 317 538 c 0
 336 538 353 536 370 533 c 9
 370 701 l 1
 160 701 l 1
 160 1022 415 1284 742 1284 c 0xfea0
431 -350 m 0
 431 -398 469 -440 522 -440 c 0
 547 -440 568 -431 585 -414 c 2
 647 -350 l 25
 585 -288 l 2
 568 -271 547 -262 522 -262 c 0
 472 -262 431 -303 431 -350 c 0
317 176 m 0
 371 176 408 219 408 266 c 0xfe60
 408 313 368 354 317 354 c 0
 270 354 228 317 228 266 c 0
 228 221 261 176 317 176 c 0
EndSplineSet
EndChar
StartChar: uni0E0F
Encoding: 3599 3599 138
Width: 1493
VWidth: 2045
Flags: W
HStem: -610 188<247.613 382.766> -244 182<248.303 382.823> -10 186<240.506 394.503> 354 184<240.817 368.704> 701 220<590 701> 1062 222<565.973 910.016>
VStem: 51 183<-406.87 -258.401 188.634 341.064> 370 220<533 701> 408 183<189.458 340.887> 1101 221<-277 868.25>
AnchorPoint: "BelowBase" 1065 -661 basechar 0
Fore
51 -336 m 0xff40
 51 -181 175 -62 325 -62 c 0
 400 -62 465 -89 518 -142 c 2
 580 -202 l 25
 646 -134 l 1
 778 -265 l 1
 712 -333 l 17
 750 -371 l 25
 882 -241 l 9
 1009 -368 l 1
 1101 -277 l 25
 1101 700 l 2
 1101 909 935 1062 740 1062 c 0
 569 1062 477 951 455 921 c 1
 701 921 l 1
 701 701 l 1
 590 701 l 1xff40
 591 264 l 2xfec0
 591 114 472 -10 317 -10 c 0
 162 -10 43 114 43 264 c 0
 43 419 167 538 317 538 c 0
 336 538 353 536 370 533 c 9
 370 701 l 1
 160 701 l 1
 160 1022 415 1284 742 1284 c 0
 1050 1284 1322 1043 1322 702 c 2
 1322 -321 l 25
 1009 -628 l 1
 883 -501 l 17
 750 -634 l 25
 582 -465 l 9
 518 -530 l 2
 465 -583 400 -610 325 -610 c 0
 170 -610 51 -486 51 -336 c 0xff40
234 -332 m 0
 234 -380 272 -422 325 -422 c 0
 350 -422 371 -413 388 -396 c 2
 450 -332 l 25
 388 -270 l 2
 371 -253 350 -244 326 -244 c 0
 275 -244 234 -285 234 -332 c 0
317 176 m 0
 371 176 408 219 408 266 c 0xfec0
 408 313 368 354 317 354 c 0
 270 354 228 317 228 266 c 0
 228 221 261 176 317 176 c 0
EndSplineSet
EndChar
StartChar: uni0E10
Encoding: 3600 3600 139
Width: 1245
VWidth: 2045
Flags: W
HStem: -807 134<51.0592 203.021> -521 133<715.818 838.433> -494 134<50.5561 202.828> -210 134<716.701 869.465> 0 21G<691.958 920.888> 132 186<404.116 544.304> 496 184<403.177 555.554> 732 186<384 772.629> 1064 220<494.601 820.816>
VStem: -98 134<-659.602 -506.925> 206 183<330.739 482.599> 569 134<-373.115 -222.999> 795 216<598.101 692.651> 883 136<-375.988 -223.591> 980 204<847.318 976.567>
Fore
106 732 m 1x9ff8
 106 1053 366 1284 658 1284 c 0
 925 1284 1118 1104 1184 902 c 9
 980 818 l 17x9ff2
 955 913 851 1064 658 1064 c 0
 494 1064 407 954 384 918 c 1
 737 918 l 2
 892 918 1011 794 1011 644 c 1
 918 0 l 1
 698 0 l 1
 640 192 l 17
 600 145 531 132 472 132 c 0
 330 132 206 254 206 406 c 0
 206 561 330 680 480 680 c 0
 649 680 736 540 759 458 c 10
 776 400 l 1
 793 601 l 18
 794 619 795 631 795 637 c 0
 795 641 784 732 704 732 c 2
 106 732 l 1x9ff8
480 496 m 0
 429 496 389 455 389 408 c 0
 389 362 425 318 480 318 c 0
 536 318 569 363 569 408 c 0
 569 455 532 496 480 496 c 0
793 -76 m 0
 922 -76 1019 -179 1019 -299 c 2
 1019 -603 l 25
 744 -875 l 1
 628 -760 l 1
 515 -873 l 1
 332 -695 l 1
 287 -740 l 2
 241 -785 188 -807 127 -807 c 0
 -1 -807 -98 -704 -98 -583 c 0
 -98 -463 -3 -360 127 -360 c 0xbff4
 188 -360 241 -382 285 -426 c 2
 332 -474 l 1
 439 -369 l 1
 550 -477 l 1
 444 -583 l 1
 515 -654 l 1
 628 -541 l 1
 744 -656 l 1
 839 -562 l 1
 839 -518 l 1
 824 -520 808 -521 793 -521 c 0xdff4
 669 -521 569 -423 569 -299 c 0
 569 -180 663 -76 793 -76 c 0
794 -210 m 0
 742 -210 703 -251 703 -298 c 0
 703 -345 742 -388 794 -388 c 0xdff4
 848 -388 883 -342 883 -298 c 0
 883 -251 846 -210 794 -210 c 0
126 -494 m 0xbff0
 74 -494 36 -536 36 -583 c 0
 36 -634 80 -673 126 -673 c 0
 173 -673 216 -635 216 -583 c 0
 216 -535 177 -494 126 -494 c 0xbff0
EndSplineSet
Substitution2: "Thai Descender Removal Single Substitution" uni0E10.descless
EndChar
StartChar: uni0E11
Encoding: 3601 3601 140
Width: 1835
VWidth: 2045
Flags: W
HStem: 0 21G<641 966 1431 1651> 468 190<308.062 461.734> 834 184<317.277 457.64> 996 263<1311.26 1426.62>
VStem: 52 243<672.34 891.444> 475 187<669.544 821.129> 641 220<264 510.801> 818 215<686.51 1011.52> 1431 220<0 986.197>
Fore
1033 879 m 0xed80
 1033 643 861 564 861 345 c 2
 861 264 l 17
 1209 948 1045 801 1189 1133 c 16
 1225 1216 1292 1258 1391 1259 c 0
 1547 1259 1653 1186 1651 966 c 10
 1651 0 l 1
 1431 0 l 1
 1431 936 l 2
 1431 975 1412 995 1373 996 c 0
 1336 997 1311 972 1299 921 c 0
 1266 742 1046 182 886 0 c 9
 641 0 l 25
 641 363 l 2xda80
 641 532 818 641 818 850 c 0
 818 962 785 1025 696 1076 c 1
 541 1000 l 1
 385 1073 l 1
 340 1064 318 1046 317 1018 c 1
 610 1018 662 848 662 746 c 0
 662 595 533 468 386 468 c 0
 299 468 52 546 52 857 c 0
 52 962 81 1058 157 1136 c 0
 226 1208 300 1250 378 1264 c 1
 545 1176 l 1
 706 1264 l 1
 765 1256 834 1216 912 1144 c 0
 990 1071 1033 985 1033 879 c 0xed80
386 834 m 0xec80
 336 834 295 793 295 746 c 0
 295 694 335 658 389 658 c 0
 442 658 475 701 475 746 c 0
 475 798 432 834 386 834 c 0xec80
EndSplineSet
EndChar
StartChar: uni0E12
Encoding: 3602 3602 141
Width: 1987
VWidth: 2045
Flags: W
HStem: -10 186<1067.38 1219.77> 706 193<601.239 752.916> 1264 20<954.133 1102.5 1597 1817>
VStem: 141 220<242 966.304> 405 182<555.189 692.054> 767 186<539.782 691.245> 871 183<189.093 340.843> 1081 221<531 968.244> 1597 220<240 1254>
Fore
1145 354 m 0xfb80
 1094 354 1054 313 1054 266 c 0
 1054 220 1090 176 1145 176 c 0
 1201 176 1234 221 1234 266 c 0
 1234 317 1192 354 1145 354 c 0xfb80
871 264 m 0
 871 410 978 507 1081 531 c 1
 1081 779 l 2
 1081 925 1036 1011 946 1036 c 1
 724 917 l 1
 506 1036 l 1
 409 1013 361 929 361 782 c 2
 361 242 l 9
 536 392 l 1
 415 460 405 586 405 632 c 0
 405 776 544 899 679 899 c 0
 819 899 953 774 953 618 c 0xfd80
 953 538 926 470 873 414 c 8
 699 233 528 95 361 0 c 17
 141 0 l 1
 141 782 l 2
 141 910 168 1021 220 1114 c 0
 274 1207 357 1265 471 1286 c 1
 734 1134 l 1
 988 1284 l 1
 1217 1203 1302 1070 1302 781 c 2
 1302 484 l 17
 1317 475 1329 466 1338 458 c 2
 1597 240 l 25
 1597 1254 l 1
 1817 1254 l 1
 1817 0 l 25
 1597 0 l 17
 1402 167 l 1
 1378 104 1299 -10 1145 -10 c 0
 990 -10 871 114 871 264 c 0
678 706 m 0
 627 706 587 665 587 618 c 0
 587 572 623 528 678 528 c 0
 734 528 767 573 767 618 c 0
 767 665 730 706 678 706 c 0
EndSplineSet
EndChar
StartChar: uni0E13
Encoding: 3603 3603 142
Width: 2038
VWidth: 2045
Flags: W
HStem: -10 186<420.819 572.678 1643.84 1795.28> 354 184<446.014 574.967> 701 220<445 556> 1062 222<511.127 856.859>
VStem: 224 183<189.812 340.887> 225 220<533 701> 587 185<187.649 340.296> 1047 220<240 868.604> 1562 220<531 1254> 1809 184<186.649 337.735>
Fore
1720 352 m 0xf3c0
 1670 352 1629 311 1629 264 c 0
 1629 216 1667 174 1720 174 c 0
 1773 174 1809 218 1809 264 c 0
 1809 309 1773 352 1720 352 c 0xf3c0
498 354 m 0
 448 354 407 313 407 266 c 0xfbc0
 407 218 445 176 498 176 c 0
 551 176 587 220 587 266 c 0
 587 318 544 354 498 354 c 0
687 1284 m 0
 994 1284 1267 1044 1267 702 c 2
 1267 240 l 9
 1526 458 l 2
 1535 466 1547 475 1562 484 c 1
 1562 1254 l 1
 1782 1254 l 9
 1783 531 l 17
 1886 507 1993 410 1993 264 c 0
 1993 109 1869 -10 1719 -10 c 0
 1565 -10 1486 104 1462 167 c 1
 1267 0 l 9
 1047 0 l 25
 1046 700 l 18
 1046 916 872 1062 685 1062 c 0
 514 1062 423 952 400 921 c 1
 556 921 l 1
 556 701 l 1
 445 701 l 1
 445 533 l 17xf7c0
 462 536 479 538 498 538 c 0
 653 538 772 414 772 264 c 0
 772 109 648 -10 498 -10 c 0
 341 -10 224 115 224 264 c 2xfbc0
 225 701 l 1xf7c0
 105 701 l 1
 105 1022 360 1284 687 1284 c 0
1832 -392 m 0
EndSplineSet
EndChar
StartChar: uni0E14
Encoding: 3604 3604 143
Width: 1443
VWidth: 2045
Flags: W
HStem: 0 21G<141 458.5 1082 1303> 686 196<640.101 794.936> 1062 222<550.606 891.016>
VStem: 141 220<242 866.835> 445 182<535.189 673.069> 807 186<519.815 671.677> 1082 221<0 868.25>
Fore
718 686 m 0
 667 686 627 645 627 598 c 0
 627 552 663 508 718 508 c 0
 774 508 807 553 807 598 c 0
 807 645 770 686 718 686 c 0
719 882 m 0
 853 882 993 756 993 598 c 0
 993 513 966 445 913 394 c 8
 740 231 556 100 361 0 c 17
 141 0 l 1
 141 702 l 2
 141 1039 414 1284 723 1284 c 0
 1031 1284 1303 1043 1303 702 c 2
 1303 0 l 1
 1082 0 l 1
 1082 700 l 2
 1082 909 916 1062 721 1062 c 0
 516 1062 361 899 361 702 c 2
 361 242 l 9
 576 372 l 1
 455 440 445 566 445 612 c 0
 445 762 594 882 719 882 c 0
EndSplineSet
EndChar
StartChar: uni0E15
Encoding: 3605 3605 144
Width: 1453
VWidth: 2045
Flags: W
HStem: 0 21G<141 458.5 1082 1303> 686 193<641.239 792.916> 1264 20G<954.133 1102>
VStem: 141 220<242 960.78> 445 182<535.189 672.054> 807 186<519.815 671.245> 1082 221<0 967.912>
Fore
988 1284 m 1
 1216 1204 1303 1069 1303 782 c 2
 1303 0 l 1
 1082 0 l 1
 1082 780 l 2
 1082 925 1037 1010 946 1036 c 1
 724 917 l 1
 506 1036 l 1
 409 1013 361 929 361 782 c 2
 361 242 l 9
 576 372 l 1
 455 440 445 566 445 612 c 0
 445 756 584 879 719 879 c 0
 859 879 993 754 993 598 c 0
 993 513 966 445 913 394 c 8
 740 231 556 100 361 0 c 17
 141 0 l 1
 141 782 l 2
 141 1010 226 1241 471 1286 c 1
 734 1134 l 1
 988 1284 l 1
718 686 m 0
 667 686 627 645 627 598 c 0
 627 552 663 508 718 508 c 0
 774 508 807 553 807 598 c 0
 807 645 770 686 718 686 c 0
EndSplineSet
EndChar
StartChar: uni0E16
Encoding: 3606 3606 145
Width: 1412
VWidth: 2045
Flags: W
HStem: -10 186<458.381 611.61> 354 184<484.296 613.068> 1062 222<505.973 850.016>
VStem: 262 183<189.458 340.887> 263 220<533 701> 625 185<187.75 340.268> 1041 221<0 868.25>
Fore
536 354 m 0xf6
 485 354 445 313 445 266 c 0
 445 220 481 176 536 176 c 0
 592 176 625 221 625 266 c 0
 625 313 588 354 536 354 c 0xf6
536 -10 m 0
 381 -10 262 114 262 264 c 2xf6
 263 701 l 1
 100 701 l 1
 100 1022 355 1284 682 1284 c 0
 990 1284 1262 1043 1262 702 c 2
 1262 0 l 1
 1041 0 l 1
 1041 700 l 2
 1041 909 875 1062 680 1062 c 0
 509 1062 417 951 395 921 c 1
 591 921 l 1
 591 701 l 1
 483 701 l 1
 483 533 l 17xee
 500 536 517 538 536 538 c 0
 691 538 810 414 810 264 c 0
 810 109 686 -10 536 -10 c 0
EndSplineSet
EndChar
StartChar: uni0E17
Encoding: 3607 3607 146
Width: 1547
VWidth: 2045
Flags: W
HStem: 0 21G<414 642.728 1171 1391> 726 186<282.613 411.998> 996 263<1066.58 1168.24> 1090 184<283.285 436.96>
VStem: 86 183<924.876 1076.6> 414 220<463 731> 449 185<923.609 1074.54> 1171 220<0 986.197>
Fore
360 1274 m 0xdd
 515 1274 634 1150 634 1000 c 2xdb
 634 463 l 25xdd
 929 1133 l 18
 965 1216 1032 1259 1131 1259 c 0
 1287 1259 1393 1186 1391 966 c 10
 1391 0 l 1
 1171 0 l 1
 1171 936 l 2
 1171 977 1152 996 1113 996 c 0
 1083 996 1062 980 1049 951 c 2
 634 0 l 1xeb
 414 0 l 9
 414 731 l 1
 397 728 379 726 360 726 c 0
 205 726 86 850 86 1000 c 0
 86 1155 210 1274 360 1274 c 0xdd
360 1090 m 0
 310 1090 269 1049 269 1002 c 0
 269 954 307 912 360 912 c 0
 413 912 449 956 449 1002 c 0
 449 1049 411 1090 360 1090 c 0
EndSplineSet
EndChar
StartChar: uni0E18
Encoding: 3608 3608 147
Width: 1228
VWidth: 2045
Flags: W
HStem: 0 220<191 302 522 793> 732 186<522 779.576> 1064 220<494.601 820.816>
VStem: 302 220<220 732> 793 218<213 718.542> 980 204<847.318 976.567>
Fore
522 732 m 25xf8
 522 212 l 9
 793 213 l 25
 791 648 l 2
 791 704 762 732 704 732 c 2
 522 732 l 25xf8
737 918 m 2
 892 918 1011 794 1011 644 c 10
 1011 0 l 17xf8
 191 0 l 1
 191 220 l 1
 302 220 l 1
 302 732 l 25
 106 732 l 1
 106 1053 366 1284 658 1284 c 0
 925 1284 1118 1104 1184 902 c 9
 980 818 l 17xf4
 955 913 851 1064 658 1064 c 0
 494 1064 407 954 384 918 c 1
 737 918 l 2
EndSplineSet
EndChar
StartChar: uni0E19
Encoding: 3609 3609 148
Width: 1603
VWidth: 2045
Flags: W
HStem: -10 184<1130.59 1282.28> 726 186<282.613 411.998> 1090 184<283.285 434.324>
VStem: 86 183<924.876 1076.6> 414 220<230 731> 449 185<923.609 1073.48> 1079 221<531 1254> 1296 184<186.649 340.1>
Fore
1208 352 m 0xf1
 1157 352 1116 311 1116 264 c 0
 1116 216 1154 174 1207 174 c 0
 1260 174 1296 218 1296 264 c 0
 1296 309 1260 352 1208 352 c 0xf1
1206 -10 m 0
 1130 -10 978 39 926 212 c 1
 634 0 l 1xf5
 414 0 l 9
 414 731 l 1xf8
 397 728 379 726 360 726 c 0
 205 726 86 850 86 1000 c 0
 86 1155 210 1274 360 1274 c 0
 519 1274 634 1147 634 1000 c 2xf4
 634 230 l 25
 1079 524 l 17
 1080 1254 l 1
 1300 1254 l 9
 1300 531 l 17xfa
 1354 504 1480 424 1480 264 c 0
 1480 109 1356 -10 1206 -10 c 0
360 1090 m 0
 310 1090 269 1049 269 1002 c 0
 269 954 307 912 360 912 c 0
 413 912 449 956 449 1002 c 0
 449 1049 411 1090 360 1090 c 0
EndSplineSet
EndChar
StartChar: uni0E1A
Encoding: 3610 3610 149
Width: 1502
VWidth: 2045
Flags: W
HStem: 0 214<303 414 634 1114> 726 186<282.613 411.998> 1090 184<283.285 434.324>
VStem: 86 183<924.876 1076.6> 414 220<214 731> 449 185<923.609 1073.48> 1114 219<214 1254>
Fore
360 1274 m 0xfa
 519 1274 634 1147 634 1000 c 2xf6
 634 214 l 25
 1114 214 l 25
 1114 1254 l 25
 1333 1254 l 25
 1333 0 l 17
 303 0 l 1
 303 214 l 1
 414 214 l 9
 414 731 l 1
 397 728 379 726 360 726 c 0
 205 726 86 850 86 1000 c 0
 86 1155 210 1274 360 1274 c 0xfa
360 1090 m 0
 310 1090 269 1049 269 1002 c 0
 269 954 307 912 360 912 c 0
 413 912 449 956 449 1002 c 0
 449 1049 411 1090 360 1090 c 0
EndSplineSet
EndChar
StartChar: uni0E1B
Encoding: 3611 3611 150
Width: 1508
VWidth: 2045
Flags: W
HStem: 0 214<303 414 634 1114> 726 186<282.613 411.998> 1090 184<283.285 434.324>
VStem: 86 183<924.876 1076.6> 414 220<214 731> 449 185<923.609 1073.48> 1114 219<214 1834>
AnchorPoint: "AboveBase" 993 1375 basechar 0
Fore
360 1274 m 0xfa
 519 1274 634 1147 634 1000 c 2xf6
 634 214 l 25
 1114 214 l 25
 1114 1834 l 25
 1333 1834 l 25
 1333 0 l 17
 303 0 l 1
 303 214 l 1
 414 214 l 9
 414 731 l 1
 397 728 379 726 360 726 c 0
 205 726 86 850 86 1000 c 0
 86 1155 210 1274 360 1274 c 0xfa
360 1090 m 0
 310 1090 269 1049 269 1002 c 0
 269 954 307 912 360 912 c 0
 413 912 449 956 449 1002 c 0
 449 1049 411 1090 360 1090 c 0
EndSplineSet
EndChar
StartChar: uni0E1C
Encoding: 3612 3612 151
Width: 1393
VWidth: 2045
Flags: W
HStem: 0 21G<146 383.181 994.819 1232> 726 186<368.002 496.386> 1090 184<342.87 497.735>
VStem: 146 185<923.609 1074.19> 146 220<284 731> 511 183<927.296 1075.64> 1012 220<284 1254>
Fore
694 1000 m 0xf6
 694 845 570 726 420 726 c 0
 401 726 383 728 366 731 c 1
 365 284 l 1
 689 662 l 1
 1012 284 l 1
 1012 1254 l 1
 1232 1254 l 1
 1232 0 l 25
 1012 0 l 17
 689 376 l 1
 366 0 l 1
 146 -0 l 25xee
 146 1000 l 2
 146 1149 263 1274 420 1274 c 0
 575 1274 694 1150 694 1000 c 0xf6
420 912 m 0
 472 912 511 954 511 1002 c 0
 511 1053 466 1090 420 1090 c 0
 366 1090 331 1047 331 1002 c 0xf6
 331 956 367 912 420 912 c 0
EndSplineSet
EndChar
StartChar: uni0E1D
Encoding: 3613 3613 152
Width: 1393
VWidth: 2045
Flags: W
HStem: 0 21G<146 383.181 994.819 1232> 726 186<368.002 496.386> 1090 184<342.87 497.735>
VStem: 146 185<923.609 1074.19> 146 220<284 731> 511 183<927.296 1075.64> 1012 220<284 1834>
AnchorPoint: "AboveBase" 903 1375 basechar 0
Fore
694 1000 m 0xf6
 694 845 570 726 420 726 c 0
 401 726 383 728 366 731 c 1
 365 284 l 1
 689 662 l 1
 1012 284 l 1
 1012 1834 l 1
 1232 1834 l 1
 1232 0 l 25
 1012 0 l 17
 689 376 l 1
 366 0 l 1
 146 -0 l 25xee
 146 1000 l 2
 146 1149 263 1274 420 1274 c 0
 575 1274 694 1150 694 1000 c 0xf6
420 912 m 0
 472 912 511 954 511 1002 c 0
 511 1053 466 1090 420 1090 c 0
 366 1090 331 1047 331 1002 c 0xf6
 331 956 367 912 420 912 c 0
EndSplineSet
EndChar
StartChar: uni0E1E
Encoding: 3614 3614 153
Width: 1650
VWidth: 2045
Flags: W
HStem: 0 21G<414 641.331 1242.72 1470> 726 186<282.613 411.998> 1090 184<283.285 436.96>
VStem: 86 183<924.876 1076.6> 414 220<514.819 731> 449 185<923.609 1074.54> 1250 220<494 1254>
Fore
360 1274 m 0xfa
 515 1274 634 1150 634 1000 c 2
 634 493 l 17
 884 1254 l 1
 1000 1254 l 1
 1250 494 l 1
 1250 1254 l 1
 1470 1254 l 1
 1470 0 l 1
 1250 0 l 1
 943 843 l 1
 634 0 l 1xf6
 414 0 l 9
 414 731 l 1
 397 728 379 726 360 726 c 0
 205 726 86 850 86 1000 c 0
 86 1155 210 1274 360 1274 c 0xfa
360 1090 m 0
 310 1090 269 1049 269 1002 c 0
 269 954 307 912 360 912 c 0
 413 912 449 956 449 1002 c 0
 449 1049 411 1090 360 1090 c 0
EndSplineSet
EndChar
StartChar: uni0E1F
Encoding: 3615 3615 154
Width: 1652
VWidth: 2045
Flags: W
HStem: 0 21G<414 641.331 1242.72 1470> 726 186<282.613 411.998> 1090 184<283.285 436.96>
VStem: 86 183<924.876 1076.6> 414 220<514.819 731> 449 185<923.609 1074.54> 1250 220<494 1834>
AnchorPoint: "AboveBase" 1156 1375 basechar 0
Fore
360 1274 m 0xfa
 515 1274 634 1150 634 1000 c 2
 634 493 l 17
 884 1254 l 1
 1000 1254 l 1
 1250 494 l 1
 1250 1834 l 1
 1470 1834 l 1
 1470 0 l 1
 1250 0 l 1
 943 843 l 1
 634 0 l 1xf6
 414 0 l 9
 414 731 l 1
 397 728 379 726 360 726 c 0
 205 726 86 850 86 1000 c 0
 86 1155 210 1274 360 1274 c 0xfa
360 1090 m 0
 310 1090 269 1049 269 1002 c 0
 269 954 307 912 360 912 c 0
 413 912 449 956 449 1002 c 0
 449 1049 411 1090 360 1090 c 0
EndSplineSet
EndChar
StartChar: uni0E20
Encoding: 3616 3616 155
Width: 1501
VWidth: 2045
Flags: W
HStem: -10 186<240.506 394.503> 354 184<240.817 368.704> 701 220<590 701> 1062 222<565.973 910.016>
VStem: 43 185<188.634 341.064> 370 220<533 701> 408 183<189.458 340.887> 1101 219<0 868.25>
Fore
317 176 m 0xfb
 371 176 408 219 408 266 c 0
 408 313 368 354 317 354 c 0
 270 354 228 317 228 266 c 0
 228 221 261 176 317 176 c 0xfb
742 1284 m 0
 1050 1284 1322 1043 1322 702 c 2
 1320 0 l 17
 1101 0 l 9
 1101 700 l 2
 1101 909 935 1062 740 1062 c 0
 569 1062 477 951 455 921 c 1
 701 921 l 1
 701 701 l 1
 590 701 l 1xfd
 591 264 l 2xfb
 591 114 472 -10 317 -10 c 0
 162 -10 43 114 43 264 c 0
 43 419 167 538 317 538 c 0
 336 538 353 536 370 533 c 9
 370 701 l 1xfd
 160 701 l 1
 160 1022 415 1284 742 1284 c 0
EndSplineSet
EndChar
StartChar: uni0E21
Encoding: 3617 3617 156
Width: 1422
VWidth: 2045
Flags: W
HStem: 0 186<282.381 434.795> 364 184<283.177 413.131> 726 186<282.613 411.998> 1090 184<283.285 436.96>
VStem: 86 183<199.093 350.599 924.876 1076.6> 415 219<543 731> 449 185<923.609 1074.54> 1036 220<213 1254>
Fore
360 1274 m 0xfd
 515 1274 634 1150 634 1000 c 2
 634 439 l 17xfb
 1036 213 l 25
 1036 1254 l 1
 1256 1254 l 1
 1256 0 l 1
 1036 0 l 1
 631 228 l 17
 612 112 510 0 360 0 c 0
 205 0 86 124 86 274 c 0
 86 429 210 548 360 548 c 0
 379 548 398 546 415 543 c 1
 414 731 l 1
 397 728 379 726 360 726 c 0
 205 726 86 850 86 1000 c 0
 86 1155 210 1274 360 1274 c 0xfd
360 364 m 0
 309 364 269 323 269 276 c 0
 269 230 305 186 360 186 c 0
 416 186 449 231 449 276 c 0
 449 323 412 364 360 364 c 0
360 1090 m 0
 310 1090 269 1049 269 1002 c 0
 269 954 307 912 360 912 c 0
 413 912 449 956 449 1002 c 0
 449 1049 411 1090 360 1090 c 0
EndSplineSet
EndChar
StartChar: uni0E22
Encoding: 3618 3618 157
Width: 1331
VWidth: 2045
Flags: W
HStem: 0 218<448 937> 420 218<506.102 722> 716 186<444.891 599.434> 1080 184<448.695 598.914>
VStem: 124 308<865.256 1055.4> 228 220<218 404.611> 612 186<913.922 1067.65> 937 220<218 1254>
Fore
798 990 m 0xfb
 798 838 675 716 524 716 c 0
 449 716 394 733 358 767 c 1
 358 756 368 638 519 638 c 2
 722 638 l 1
 722 420 l 1
 527 420 l 2
 514 420 448 392 448 327 c 2
 448 218 l 1
 937 218 l 1
 937 1254 l 1
 1157 1254 l 1
 1157 0 l 1
 228 0 l 1
 228 365 l 2xf7
 228 428 249 479 290 517 c 1
 129 666 124 816 124 876 c 0
 124 999 204 1264 524 1264 c 0
 672 1264 798 1146 798 990 c 0xfb
524 1080 m 0
 478 1080 432 1043 432 992 c 0xfb
 432 945 470 902 524 902 c 0
 580 902 612 949 612 992 c 0
 612 1042 571 1080 524 1080 c 0
EndSplineSet
EndChar
StartChar: uni0E23
Encoding: 3619 3619 158
Width: 1172
VWidth: 2045
Flags: W
HStem: -10 186<580.506 733.619> 354 184<580.817 709.703> 732 186<384 699.576> 1064 220<494.601 823.517>
VStem: 383 185<188.634 341.064> 711 220<533 724.987> 748 183<194.297 340.887>
Fore
657 176 m 0xfa
 711 176 748 219 748 266 c 0
 748 313 708 354 657 354 c 0
 610 354 568 317 568 266 c 0
 568 221 601 176 657 176 c 0xfa
106 732 m 1
 106 1053 366 1284 658 1284 c 0
 878 1284 1048 1161 1136 1009 c 9
 958 875 l 17
 931 932 838 1064 658 1064 c 0
 494 1064 407 954 384 918 c 1
 657 918 l 2
 812 918 931 794 931 644 c 10xfc
 931 264 l 18xfa
 931 109 807 -10 657 -10 c 0
 502 -10 383 114 383 264 c 0
 383 419 507 538 657 538 c 0
 676 538 694 536 711 533 c 9
 711 648 l 2xfc
 711 704 682 732 624 732 c 2
 106 732 l 1
EndSplineSet
EndChar
StartChar: uni0E24
Encoding: 3620 3620 159
Width: 1435
VWidth: 2045
Flags: W
HStem: -10 186<458.381 611.61> 354 184<484.296 613.068> 1062 222<505.973 850.016>
VStem: 262 221<533 701> 262 183<189.458 340.887> 625 185<187.75 340.268> 1041 221<-560 868.25>
Fore
536 354 m 0xee
 485 354 445 313 445 266 c 0
 445 220 481 176 536 176 c 0
 592 176 625 221 625 266 c 0
 625 313 588 354 536 354 c 0xee
536 -10 m 0
 381 -10 262 114 262 264 c 2xee
 262 701 l 1
 100 701 l 1
 100 1022 355 1284 682 1284 c 0
 990 1284 1262 1043 1262 702 c 2
 1262 -560 l 1
 1041 -560 l 1
 1041 700 l 2
 1041 909 875 1062 680 1062 c 0
 509 1062 417 951 395 921 c 1
 591 921 l 1
 591 701 l 1
 483 701 l 1
 483 533 l 17xf6
 500 536 517 538 536 538 c 0
 691 538 810 414 810 264 c 0
 810 109 686 -10 536 -10 c 0
EndSplineSet
EndChar
StartChar: uni0E25
Encoding: 3621 3621 160
Width: 1477
VWidth: 2045
Flags: W
HStem: -0 186<480.381 633.61> 652 222<587.316 891.454> 1062 222<550.606 892.501>
VStem: 141 220<702 866.835> 284 183<199.458 350.887> 647 185<197.75 350.268> 1082 221<0 463.801>
Fore
558 364 m 0xee
 507 364 467 323 467 276 c 0
 467 230 503 186 558 186 c 0
 614 186 647 231 647 276 c 0
 647 323 610 364 558 364 c 0xee
723 1284 m 0
 1031 1284 1303 1043 1303 702 c 2
 1303 0 l 1
 1082 0 l 9
 1082 291 l 18
 1082 510 903 651 721 652 c 0
 627 652 573 617 558 548 c 1
 713 548 832 424 832 274 c 0
 832 119 708 -0 558 -0 c 0
 403 0 284 124 284 274 c 2
 284 332 l 2xee
 284 472 308 580 354 656 c 0
 427 772 535 874 718 874 c 0
 873 874 994 820 1079 752 c 1
 1057 912 918 1062 721 1062 c 0
 516 1062 361 899 361 702 c 9
 141 702 l 17xf6
 141 1039 414 1284 723 1284 c 0
EndSplineSet
EndChar
StartChar: uni0E26
Encoding: 3622 3622 161
Width: 1504
VWidth: 2045
Flags: W
HStem: -10 186<240.506 394.503> 354 184<240.817 368.704> 701 220<590 701> 1062 222<565.973 910.016>
VStem: 43 185<188.634 341.064> 370 220<533 701> 408 183<189.458 340.887> 1101 219<-560 868.25>
Fore
317 176 m 0xfb
 371 176 408 219 408 266 c 0
 408 313 368 354 317 354 c 0
 270 354 228 317 228 266 c 0
 228 221 261 176 317 176 c 0xfb
742 1284 m 0
 1050 1284 1322 1043 1322 702 c 2
 1320 -560 l 17
 1101 -560 l 9
 1101 700 l 2
 1101 909 935 1062 740 1062 c 0
 569 1062 477 951 455 921 c 1
 701 921 l 1
 701 701 l 1
 590 701 l 1xfd
 591 264 l 2xfb
 591 114 472 -10 317 -10 c 0
 162 -10 43 114 43 264 c 0
 43 419 167 538 317 538 c 0
 336 538 353 536 370 533 c 9
 370 701 l 1xfd
 160 701 l 1
 160 1022 415 1284 742 1284 c 0
EndSplineSet
EndChar
StartChar: uni0E27
Encoding: 3623 3623 162
Width: 1258
VWidth: 2045
Flags: W
HStem: -10 186<730.506 882.534> 354 184<730.817 858.704> 1064 220<436.303 734.584>
VStem: 88 220<788 937.898> 533 185<188.634 341.064> 860 221<533 929.286> 898 183<189.79 340.887>
Fore
584 1064 m 0xfc
 432 1064 308 943 308 788 c 9
 88 788 l 17
 88 1068.45 311.878 1284 584 1284 c 0
 867.85 1284 1081 1045.21 1081 788 c 2xfc
 1081 264 l 2xfa
 1081 148 992 -10 807 -10 c 0
 652 -10 533 114 533 264 c 0
 533 419 657 538 807 538 c 0
 826 538 843 536 860 533 c 1
 860 788 l 2
 860 940 739 1064 584 1064 c 0xfc
807 176 m 0
 861 176 898 219 898 266 c 0xfa
 898 313 858 354 807 354 c 0
 760 354 718 317 718 266 c 0
 718 221 751 176 807 176 c 0
EndSplineSet
EndChar
StartChar: uni0E28
Encoding: 3624 3624 163
Width: 1502
VWidth: 2045
Flags: W
HStem: 0 21G<141 369.049 1082 1303> 330 186<642.066 795.61> 694 184<640.94 797.761> 1062 222<550.606 893.653>
VStem: 141 220<452 702 702 866.835> 809 185<527.75 669.119> 1082 221<0 759.51>
Back
0 1200 m 4
 121.333 1200 225 1243 311 1329 c 4
 397 1415 440 1518.67 440 1640 c 5
 660 1640 l 5
 660 1520.67 630.5 1410.33 571.5 1309 c 4
 512.5 1207.67 432.333 1127.5 331 1068.5 c 4
 229.667 1009.5 119.333 980 0 980 c 4
EndSplineSet
Fore
721 1062 m 0
 516 1062 361 899 361 702 c 2
 361 452 l 1
 474 726 l 2
 488 760 565 878 720 878 c 0
 815 878 900 905 974 958 c 1
 904 1027 820 1062 721 1062 c 0
723 1284 m 0
 921 1284 1059 1187 1119 1129 c 1
 1146 1186 1160 1249 1160 1318 c 1
 1380 1318 l 1
 1380 1182 1339 1054 1257 934 c 1
 1288 863 1303 785 1303 702 c 2
 1303 0 l 1
 1082 0 l 1
 1082 700 l 2
 1082 722 1080 743 1077 763 c 1
 1058 744 1023 726 974 708 c 1
 987 676 994 641 994 604 c 0
 994 449 870 330 720 330 c 0
 645 330 580 357 526 410 c 9
 361 0 l 17
 141 0 l 1
 141 702 l 2
 141 1039 414 1284 723 1284 c 0
720 694 m 0
 669 694 629 653 629 606 c 0
 629 560 665 516 720 516 c 0
 776 516 809 561 809 606 c 0
 809 653 772 694 720 694 c 0
EndSplineSet
EndChar
StartChar: uni0E29
Encoding: 3625 3625 164
Width: 1533
VWidth: 2045
Flags: W
HStem: 0 214<303 414 634 1114> 386 192<768.332 1017.33> 726 186<282.613 411.998> 756 134<770.12 922.075> 1090 184<283.285 434.324>
VStem: 86 183<924.876 1076.6> 414 342<591.386 730.643> 414 220<214 591> 449 185<923.609 1073.48> 1113 220<213 402 809 1254>
Fore
847 890 m 0xdcc0
 972 890 1079 784 1071 669 c 0
 1067 614 1048 574 1013 549 c 1
 1047 548 1080 553 1113 564 c 9
 1114 1254 l 9
 1333 1254 l 17
 1333 809 l 17
 1476 714 l 1
 1435 628 1388 560 1333 511 c 9
 1333 0 l 1
 303 0 l 1
 303 214 l 1
 414 214 l 9
 414 731 l 1
 397 728 379 726 360 726 c 0xed40
 205 726 86 850 86 1000 c 0
 86 1155 210 1274 360 1274 c 0
 519 1274 634 1147 634 1000 c 2
 634 735 l 17
 653 799 719 890 847 890 c 0xdcc0
1113 402 m 17
 1068 391 1021 386 973 386 c 0
 851 387 762 416 706 474 c 0
 671 511 647 550 634 591 c 9
 634 214 l 9
 1114 213 l 17
 1113 402 l 17
846 756 m 0xde40
 794 756 756 714 756 667 c 0
 756 620 794 578 846 578 c 0
 896 578 937 620 937 667 c 0
 937 718 892 756 846 756 c 0xde40
360 1090 m 0
 310 1090 269 1049 269 1002 c 0
 269 954 307 912 360 912 c 0
 413 912 449 956 449 1002 c 0xecc0
 449 1049 411 1090 360 1090 c 0
EndSplineSet
EndChar
StartChar: uni0E2A
Encoding: 3626 3626 165
Width: 1484
VWidth: 2045
Flags: W
HStem: -0 186<480.381 633.61> 652 222<587.335 892.97> 1062 222<550.606 894.55>
VStem: 141 220<702 866.835> 284 183<199.458 350.887> 647 185<197.75 350.268> 1082 221<0 463.801 742 796.519>
Fore
1001 791 m 25xe6
 1079 742 l 17
 1078 816 l 25
 1001 791 l 25xe6
558 364 m 0
 507 364 467 323 467 276 c 0xee
 467 230 503 186 558 186 c 0
 614 186 647 231 647 276 c 0
 647 323 610 364 558 364 c 0
723 1284 m 0
 877 1284 1015 1225 1119 1130 c 1
 1145 1186 1158 1247 1158 1314 c 1
 1378 1314 l 1
 1377 1175 1337 1048 1258 933 c 1
 1288 862 1303 785 1303 702 c 2
 1303 0 l 1
 1082 0 l 9
 1082 291 l 18
 1082 510 903 651 721 652 c 0
 627 653 573 618 558 548 c 1
 713 548 832 424 832 274 c 0
 832 119 708 -0 558 -0 c 0
 403 0 284 124 284 274 c 2
 284 332 l 2xee
 284 472 308 580 354 656 c 0
 427 772 535 874 718 874 c 0
 815 874 901 902 976 957 c 1
 905 1027 820 1062 721 1062 c 0
 516 1062 361 899 361 702 c 9
 141 702 l 17xf6
 141 1039 414 1284 723 1284 c 0
718 654 m 0
EndSplineSet
EndChar
StartChar: uni0E2B
Encoding: 3627 3627 166
Width: 1581
VWidth: 2045
Flags: W
HStem: 0 21G<414 647.835 1171 1391> 726 186<282.613 411.998> 1090 184<283.285 436.96 1087.18 1241.07>
VStem: 86 183<924.876 1076.6> 414 220<343 731> 449 185<923.609 1074.54> 890 183<924.351 1076.6> 1171 220<0 613.865> 1253 185<923.814 1076.27>
Fore
1164 1274 m 0xfa
 1319 1274 1438 1150 1438 1000 c 0xfa80
 1438 919 1405 849 1340 790 c 1
 1375 741 1392 673 1391 586 c 10
 1391 0 l 1
 1171 0 l 1
 1171 556 l 2
 1171 597 1148 616 1103 616 c 0
 1074 616 1050 600 1029 571 c 2
 634 0 l 1xf7
 414 0 l 9
 414 731 l 1xfa
 397 728 379 726 360 726 c 0
 205 726 86 850 86 1000 c 0
 86 1155 210 1274 360 1274 c 0
 515 1274 634 1150 634 1000 c 2xf6
 634 343 l 25
 909 753 l 18
 925 777 943 798 962 815 c 1
 914 867 890 929 890 1000 c 0
 890 1155 1014 1274 1164 1274 c 0xfa
1164 1090 m 0
 1113 1090 1073 1049 1073 1002 c 0
 1073 956 1109 912 1164 912 c 0
 1220 912 1253 957 1253 1002 c 0
 1253 1049 1216 1090 1164 1090 c 0
360 1090 m 0
 310 1090 269 1049 269 1002 c 0
 269 954 307 912 360 912 c 0
 413 912 449 956 449 1002 c 0xf6
 449 1049 411 1090 360 1090 c 0
EndSplineSet
EndChar
StartChar: uni0E2C
Encoding: 3628 3628 167
Width: 1654
VWidth: 2045
Flags: W
HStem: 0 21G<414 643.611 1240.45 1470> 726 186<282.613 411.998> 978 186<1083.38 1224.93> 1090 184<283.285 436.96> 1342 184<1084.18 1238.14>
VStem: 86 183<924.876 1076.6> 414 220<433 731> 449 185<923.609 1074.54> 887 183<1177.09 1328.6> 1250 220<434 992>
AnchorPoint: "AboveBase" 869 1375 basechar 0
Fore
1161 1526 m 0xeec0
 1300 1526 1371 1432 1393 1399 c 9
 1485 1492 l 1
 1641 1338 l 1
 1470 1164 l 1
 1470 0 l 1
 1250 0 l 1
 943 643 l 1
 634 0 l 1xedc0
 414 0 l 9
 414 731 l 1xeec0
 397 728 379 726 360 726 c 0
 205 726 86 850 86 1000 c 0
 86 1155 210 1274 360 1274 c 0
 515 1274 634 1150 634 1000 c 2xddc0
 634 433 l 17
 884 974 l 1
 1000 974 l 1
 1250 434 l 1
 1250 992 l 17
 1222 983 1192 978 1161 978 c 0
 1006 978 887 1102 887 1252 c 0
 887 1407 1011 1526 1161 1526 c 0xeec0
1161 1342 m 0
 1110 1342 1070 1301 1070 1254 c 0
 1070 1208 1106 1164 1161 1164 c 0
 1217 1164 1250 1209 1250 1254 c 0
 1250 1301 1213 1342 1161 1342 c 0
360 1090 m 0xddc0
 310 1090 269 1049 269 1002 c 0
 269 954 307 912 360 912 c 0
 413 912 449 956 449 1002 c 0
 449 1049 411 1090 360 1090 c 0xddc0
EndSplineSet
EndChar
StartChar: uni0E2D
Encoding: 3629 3629 168
Width: 1489
VWidth: 2045
Flags: W
HStem: -0 213<606 1082> 336 186<608.002 736.386> 700 184<582.578 737.735> 1062 222<550.606 891.016>
VStem: 141 220<702 866.835> 386 220<213 341> 386 185<533.609 684.188> 751 183<537.296 685.637> 1082 221<213 868.25>
Fore
721 1062 m 0xfd80
 516 1062 361 899 361 702 c 9
 141 702 l 17
 141 1039 414 1284 723 1284 c 0
 1031 1284 1303 1043 1303 702 c 2
 1303 0 l 1
 386 -0 l 25
 386 610 l 2xfb80
 386 759 503 884 660 884 c 0
 815 884 934 760 934 610 c 0
 934 455 810 336 660 336 c 0
 641 336 623 338 606 341 c 1
 606 213 l 9
 1082 213 l 17
 1082 700 l 2
 1082 909 916 1062 721 1062 c 0xfd80
660 522 m 0
 712 522 751 564 751 612 c 0
 751 663 706 700 660 700 c 0
 608 700 571 659 571 612 c 0
 571 566 607 522 660 522 c 0
EndSplineSet
EndChar
StartChar: uni0E2E
Encoding: 3630 3630 169
Width: 1298
VWidth: 2045
Flags: W
HStem: -0 213<350 856> 236 186<350.563 478.386> 600 184<324.578 476.431> 800 179<404.608 671.344> 1090 195<379.586 692.908>
VStem: 130 181<433.609 584.188> 491 187<437.296 585.637> 856 221<213 817.898>
Fore
678 510 m 0
 678 355 554 236 404 236 c 0
 385 236 367 238 350 241 c 1
 350 213 l 9
 856 213 l 17
 856 741 l 2
 856 792 848 838 831 878 c 1
 735 825 627 800 506 800 c 0
 210 800 115 933 114 1025 c 0
 113 1127 217 1285 538 1285 c 0
 720 1285 852 1202 899 1153 c 1
 938 1200 961 1241 968 1276 c 1
 1160 1184 l 1
 1129 1111 1085 1045 1028 987 c 1
 1061 913 1077 832 1077 743 c 2
 1077 0 l 1
 130 -0 l 25
 130 510 l 2
 130 659 247 784 404 784 c 0
 559 784 678 660 678 510 c 0
400 422 m 0
 452 422 491 464 491 512 c 0
 491 563 446 600 400 600 c 0
 348 600 311 559 311 512 c 0
 311 466 347 422 400 422 c 0
367 1029 m 0
 367 989 459 979 536 979 c 0
 609 979 672 993 723 1019 c 1
 682 1068 616 1092 526 1090 c 0
 420 1088 367 1068 367 1029 c 0
EndSplineSet
EndChar
StartChar: uni0E2F
Encoding: 3631 3631 170
Width: 1295
VWidth: 2045
Flags: W
HStem: 0 21G<919 1139> 637 255<277.372 432.678> 1070 184<279.177 433.068>
VStem: 82 183<907.814 1056.6> 445 185<916.974 1056.27> 919 220<0 813 1061.19 1254>
Fore
356 1070 m 0
 305 1070 265 1029 265 982 c 0
 265 936 301 892 356 892 c 0
 412 892 445 937 445 982 c 0
 445 1029 408 1070 356 1070 c 0
356 1254 m 0
 511 1254 630 1130 630 980 c 0
 630 944 622 909 606 876 c 1
 678 887 748 924 816 987 c 0
 885 1050 919 1139 919 1254 c 1
 1139 1254 l 1
 1139 0 l 1
 919 0 l 1
 919 813 l 1
 787 684 651 636 444 637 c 0
 203 639 82 840 82 980 c 0
 82 1135 206 1254 356 1254 c 0
EndSplineSet
EndChar
StartChar: uni0E30
Encoding: 3632 3632 171
Width: 1158
VWidth: 2045
Flags: MW
HStem: 45 163<489 644.156> 417 133<245.534 399.573> 665 163<489 644.016> 1036 133<244.426 399.813>
VStem: 99 133<252.312 402.539 870.23 1023.48> 412 135<250.64 404.251 887.432 1023.24>
Fore
951 994 m 1
 880 841 750 665 448 665 c 0
 152 665 99 864 99 941 c 0
 99 1076 197 1169 322 1169 c 0
 447 1169 547 1065 547 960 c 0
 547 907 530 857 489 828 c 1
 695 828 769 991 810 1089 c 1
 951 994 l 1
322 1036 m 0
 269 1036 232 995 232 946 c 0
 232 897 270 858 322 858 c 0
 374 858 412 899 412 946 c 0
 412 993 376 1036 322 1036 c 0
951 375 m 1
 881 224 750 45 448 45 c 0
 145 45 99 252 99 322 c 0
 99 462 203 550 322 550 c 0
 447 550 547 446 547 341 c 0
 547 284 526 236 489 208 c 1
 695 208 769 372 810 470 c 1
 951 375 l 1
322 417 m 0
 273 417 232 379 232 327 c 0
 232 274 274 238 322 238 c 0
 369 238 412 274 412 327 c 0
 412 379 369 417 322 417 c 0
EndSplineSet
EndChar
StartChar: uni0E31
Encoding: 3633 3633 172
Width: 0
VWidth: 2045
Flags: MW
HStem: 1414 163<-422 -220.116> 1785 133<-667.398 -514.116>
VStem: -813 133<1620.48 1772.61> -500 135<1619.04 1771.82>
AnchorPoint: "AboveMark" -346 1986 basemark 0
AnchorPoint: "AboveBase" -115 1375 mark 0
Fore
-3 1838 m 1
 139 1743 l 1
 -42 1441 -307 1414 -454 1414 c 0
 -756 1414 -813 1618 -813 1690 c 0
 -813 1825 -715 1918 -590 1918 c 0
 -460 1918 -365 1810 -365 1709 c 0
 -365 1652 -386 1603 -422 1577 c 1
 -309 1577 -151 1594 -3 1838 c 1
-590 1785 m 0
 -646 1785 -680 1740 -680 1695 c 0
 -680 1648 -643 1607 -590 1607 c 0
 -538 1607 -500 1648 -500 1695 c 0
 -500 1740 -534 1785 -590 1785 c 0
EndSplineSet
EndChar
StartChar: uni0E32
Encoding: 3634 3634 173
Width: 1169
VWidth: 2045
Flags: W
HStem: 1064 220<435.193 736.071>
VStem: 88 220<788 934.777> 860 220<788 940.142>
Fore
585 1064 m 0
 745 1064 860 936 860 788 c 2
 860 0 l 1
 1080 0 l 9
 1081 788 l 2
 1081 1044 868 1284 584 1284 c 0
 304 1284 88 1060 88 788 c 9
 308 788 l 17
 308 944 433 1064 585 1064 c 0
EndSplineSet
EndChar
StartChar: uni0E34
Encoding: 3636 3636 175
Width: 0
VWidth: 2045
Flags: W
HStem: 1762 174<-818.748 -540.924>
AnchorPoint: "AboveMark" -249 2120 basemark 0
AnchorPoint: "AboveBase" -163 1375 mark 0
Fore
-425 1623 m 1
 -447 1652 -536 1756 -709 1762 c 0
 -745 1762 -900 1730 -939 1672 c 9
 -425 1623 l 1
-1229 1543 m 17
 -1143 1843 -881 1936 -709 1936 c 0
 -477 1936 -208 1778 -171 1444 c 1
 -1229 1543 l 17
EndSplineSet
EndChar
StartChar: uni0E35
Encoding: 3637 3637 176
Width: 0
VWidth: 2045
Flags: W
HStem: 1759 174<-818.748 -538.245>
VStem: -328 157<1777 2076 1441 2076 1777 1777>
AnchorPoint: "AboveBase" -159 1375 mark 0
AnchorPoint: "AboveMark" -249 2120 basemark 0
Fore
-1229 1540 m 1
 -1143 1840 -881 1933 -709 1933 c 0
 -576 1933 -449 1879 -328 1777 c 9
 -328 2076 l 1
 -171 2076 l 1
 -171 1441 l 1
 -1229 1540 l 1
-425 1620 m 1
 -447 1649 -536 1753 -709 1759 c 0
 -745 1759 -900 1727 -939 1669 c 9
 -425 1620 l 1
EndSplineSet
EndChar
StartChar: uni0E36
Encoding: 3638 3638 177
Width: 0
VWidth: 2045
Flags: MW
HStem: 1757 174<-818.308 -603.432> 2007 133<-438.944 -287.157>
VStem: -588 135<1917 1992.81> -273 136<1841.36 1993.98>
AnchorPoint: "AboveBase" -174 1375 mark 0
AnchorPoint: "AboveMark" -356 2120 basemark 0
Fore
-137 1918 m 0
 -137 1795 -231 1731 -273 1713 c 1
 -217 1637 -183 1546 -171 1439 c 1
 -1229 1538 l 1
 -1143 1838 -879 1931 -709 1931 c 0
 -669 1931 -629 1926 -588 1917 c 1
 -588 2038 -493 2140 -363 2140 c 0
 -235 2140 -137 2039 -137 1918 c 0
-363 2007 m 0
 -415 2007 -453 1964 -453 1917 c 0
 -453 1864 -407 1829 -363 1829 c 0
 -314 1829 -273 1868 -273 1917 c 0
 -273 1963 -309 2007 -363 2007 c 0
-425 1618 m 1
 -447 1647 -536 1751 -709 1757 c 0
 -745 1757 -900 1725 -939 1667 c 9
 -425 1618 l 1
EndSplineSet
EndChar
StartChar: uni0E37
Encoding: 3639 3639 178
Width: 0
VWidth: 2045
Flags: MW
HStem: 1764 174<-818.748 -597.829>
VStem: -564 157<1915 2081> -328 157<1782 2081>
AnchorPoint: "AboveMark" -367 2120 basemark 0
AnchorPoint: "AboveBase" -175 1375 mark 0
Fore
-1229 1545 m 1
 -1143 1845 -881 1938 -709 1938 c 0
 -662 1938 -613 1930 -564 1915 c 1
 -564 2081 l 1
 -407 2081 l 1
 -407 1842 l 17
 -377 1821 -351 1801 -328 1782 c 1
 -328 2081 l 1
 -171 2081 l 1
 -171 1446 l 1
 -1229 1545 l 1
-425 1625 m 1
 -447 1654 -536 1758 -709 1764 c 0
 -745 1764 -900 1732 -939 1674 c 9
 -425 1625 l 1
EndSplineSet
EndChar
StartChar: uni0E38
Encoding: 3640 3640 179
Width: 0
VWidth: 2045
Flags: W
HStem: -532 133<-458.914 -338.863> -221 134<-460.23 -307.081>
VStem: -610 136<-384.115 -233.507> -338 180<-755 -529> -294 136<-386.272 -235.239>
AnchorPoint: "BelowBase" -159 -88 mark 0
Fore
-384 -87 m 0xf0
 -252 -87 -158 -194 -158 -308 c 2xe8
 -158 -755 l 1
 -338 -755 l 9
 -338 -529 l 1
 -354 -531 -369 -532 -384 -532 c 0
 -509 -532 -610 -434 -610 -310 c 0
 -610 -188 -514 -87 -384 -87 c 0xf0
-384 -221 m 0
 -438 -221 -474 -263 -474 -309 c 0
 -474 -356 -435 -399 -384 -399 c 0
 -338 -399 -294 -360 -294 -309 c 0
 -294 -261 -332 -221 -384 -221 c 0
EndSplineSet
Substitution2: "Thai Sara U Mai Ek Reordering" uni0E48.low
Substitution2: "Thai Sara U Mai Tho Reordering" uni0E49.low
Substitution2: "Thai Sara U Mai Tri Reordering" uni0E4A.low
Substitution2: "Thai Sara U Mai Chattawa Reordering" uni0E4B.low
Substitution2: "Thai Sara U Thanthakhat Reordering" uni0E4C.low
Substitution2: "Thai Sara U Nikhahit Reordering" uni0E4D
EndChar
StartChar: uni0E39
Encoding: 3641 3641 180
Width: 0
VWidth: 2045
Flags: W
HStem: -775 156<-494 -331> -532 133<-795.028 -674.618> -221 134<-796.398 -642.67>
VStem: -945 136<-386.112 -233.654> -674 180<-619 -529> -630 136<-386.504 -234.438> -331 180<-619 -85>
AnchorPoint: "BelowBase" -112 -85 mark 0
Fore
-720 -87 m 0xfa
 -587 -87 -494 -192 -494 -308 c 2xf6
 -494 -619 l 1
 -331 -619 l 1
 -331 -85 l 1
 -151 -85 l 1
 -151 -775 l 1
 -674 -775 l 25
 -674 -529 l 1
 -689 -531 -704 -532 -720 -532 c 0
 -846 -532 -945 -432 -945 -310 c 0
 -945 -190 -851 -87 -720 -87 c 0xfa
-720 -221 m 0
 -768 -221 -809 -256 -809 -309 c 0
 -809 -364 -764 -399 -720 -399 c 0
 -673 -399 -630 -361 -630 -309 c 0
 -630 -261 -666 -221 -720 -221 c 0
EndSplineSet
Substitution2: "Thai Sara UU Mai Ek Reordering" uni0E48.low
Substitution2: "Thai Sara UU Mai Tho Reordering" uni0E49.low
Substitution2: "Thai Sara UU Mai Tri Reordering" uni0E4A.low
Substitution2: "Thai Sara UU Mai Chattawa Reordering" uni0E4B.low
Substitution2: "Thai Sara UU Thanthakhat Reordering" uni0E4C.low
Substitution2: "Thai Sara UU Nikhahit Reordering" uni0E4D
EndChar
StartChar: uni0E3A
Encoding: 3642 3642 181
Width: 0
VWidth: 2045
Flags: W
HStem: -438 356<-488.489 -253.23>
VStem: -552 360<-376.849 -143.31>
AnchorPoint: "BelowBase" -185 -86 mark 0
Fore
-370 -438 m 0
 -469 -438 -552 -360 -552 -258 c 0
 -552 -158 -471 -82 -370 -82 c 0
 -266 -82 -192 -162 -192 -258 c 0
 -192 -360 -271 -438 -370 -438 c 0
EndSplineSet
Substitution2: "Thai Phinthu Maitaikhu Reordering" uni0E47
Substitution2: "Thai Phinthu Mai Ek Reordering" uni0E48.low
Substitution2: "Thai Phinthu Mai Tho Reordering" uni0E49.low
Substitution2: "Thai Phinthu Mai Tri Reordering" uni0E4A.low
Substitution2: "Thai Phinthu Mai Chattawa Reordering" uni0E4B.low
Substitution2: "Thai Phinthu Thanthakhat Reordering" uni0E4C.low
Substitution2: "Thai Phinthu Nikhahit Reordering" uni0E4D
EndChar
StartChar: uni0E3F
Encoding: 3647 3647 182
Width: 1364
VWidth: 2045
Flags: W
HStem: 0 172<345 550 707 945.044> 669 174<345 550 707 908.803> 1278 172<345 550 707 895.146>
VStem: 165 180<172 669 843 1278> 550 157<-131 0 172 669 843 1276 1450 1598> 994 191<922.828 1195.24> 1055 201<274.158 566.426>
Fore
980 772 m 1xfc
 1139 728 1256 605 1256 420 c 0xfa
 1256 252 1180 0 707 0 c 9
 707 -131 l 1
 550 -131 l 1
 550 0 l 1
 165 0 l 1
 165 1450 l 1
 550 1450 l 1
 550 1598 l 1
 707 1598 l 1
 707 1450 l 1
 1133 1448 1185 1191 1185 1080 c 0
 1185 1004 1152 856 980 772 c 1xfc
707 843 m 17
 807 846 994 853 994 1056 c 0xfc
 994 1265 816 1271 707 1276 c 1
 707 843 l 17
707 172 m 17
 861 172 1055 194 1055 420 c 0xfa
 1055 619 900 664 707 669 c 1
 707 172 l 17
550 172 m 25
 550 669 l 1
 345 669 l 1
 345 172 l 1
 550 172 l 25
550 841 m 25
 550 1278 l 1
 345 1278 l 1
 345 843 l 1
 550 841 l 25
EndSplineSet
EndChar
StartChar: uni0E40
Encoding: 3648 3648 183
Width: 760
VWidth: 2045
Flags: W
HStem: -10 186<343.381 496.61> 354 184<369.296 498.068> 1234 20G<147.98 368>
VStem: 147 221<533 1254> 147 183<189.458 340.887> 510 185<187.75 340.268>
Fore
421 354 m 0xec
 370 354 330 313 330 266 c 0
 330 220 366 176 421 176 c 0
 477 176 510 221 510 266 c 0
 510 313 473 354 421 354 c 0xec
421 -10 m 0
 266 -10 147 114 147 264 c 2xec
 148 1254 l 1
 368 1254 l 1
 368 533 l 1xf4
 385 536 402 538 421 538 c 0
 576 538 695 414 695 264 c 0
 695 109 571 -10 421 -10 c 0
EndSplineSet
EndChar
StartChar: uni0E41
Encoding: 3649 3649 184
Width: 1400
VWidth: 2045
Flags: W
HStem: -10 186<343.381 496.61 973.381 1126.61> 354 184<369.296 498.068 999.296 1128.07> 1234 20G<147.98 368 777.98 998>
VStem: 147 221<533 1254> 147 183<189.458 340.887> 510 185<187.75 340.268> 777 221<533 1254> 777 183<189.458 340.887> 1140 185<187.75 340.18>
Fore
1051 354 m 0xe580
 1000 354 960 313 960 266 c 0
 960 220 996 176 1051 176 c 0
 1107 176 1140 221 1140 266 c 0
 1140 317 1098 354 1051 354 c 0xe580
1051 -10 m 0
 896 -10 777 114 777 264 c 2xe580
 778 1254 l 1
 998 1254 l 1
 998 533 l 1xe680
 1015 536 1032 538 1051 538 c 0
 1206 538 1325 414 1325 264 c 0
 1325 109 1201 -10 1051 -10 c 0
421 354 m 0
 370 354 330 313 330 266 c 0xec80
 330 220 366 176 421 176 c 0
 477 176 510 221 510 266 c 0
 510 313 473 354 421 354 c 0
421 -10 m 0
 266 -10 147 114 147 264 c 2xec80
 148 1254 l 1
 368 1254 l 1
 368 533 l 1xf480
 385 536 402 538 421 538 c 0
 576 538 695 414 695 264 c 0
 695 109 571 -10 421 -10 c 0
EndSplineSet
EndChar
StartChar: uni0E42
Encoding: 3650 3650 185
Width: 852
VWidth: 2045
Flags: W
HStem: -10 186<424.881 574.856> 354 184<451.71 576.265> 1522 186<-16 219.576> 1854 220<94.6012 423.517>
VStem: 230 221<533 1514.99> 230 180<189.458 340.887> 590 188<187.75 340.268>
Fore
501 354 m 0xf6
 450 354 410 313 410 266 c 0
 410 220 446 176 501 176 c 0
 557 176 590 221 590 266 c 0
 590 313 553 354 501 354 c 0xf6
504 -10 m 0
 349 -10 230 114 230 264 c 2xf6
 231 1438 l 2
 231 1494 202 1522 144 1522 c 2
 -294 1522 l 1
 -294 1843 -34 2074 258 2074 c 0
 478 2074 648 1951 736 1799 c 9
 558 1665 l 17
 531 1722 438 1854 258 1854 c 0
 94 1854 7 1744 -16 1708 c 1
 177 1708 l 2
 332 1708 451 1584 451 1434 c 2
 451 533 l 1xfa
 468 536 485 538 504 538 c 0
 659 538 778 414 778 264 c 0
 778 109 654 -10 504 -10 c 0
EndSplineSet
EndChar
StartChar: uni0E43
Encoding: 3651 3651 186
Width: 963
VWidth: 2045
Flags: W
HStem: -10 186<522.542 674.856> 354 184<551.71 676.265> 1334 186<-138.652 15.6101> 1872 210<25.3411 231.361>
VStem: -344 193<1532.9 1680.36> 29 185<1531.75 1683.76> 330 221<533 1767.15> 330 180<194.297 340.887> 690 188<187.75 340.268>
Fore
604 -10 m 0xfe80
 454 -10 330 109 330 264 c 2xfd80
 330 1597 l 2
 330 1764 242 1869 90 1872 c 0
 51 1873 27 1869 18 1860 c 1
 96 1860 214 1760 214 1608 c 0
 214 1453 90 1334 -60 1334 c 0
 -184 1334 -344 1431 -344 1638 c 0
 -344 1912 -128 2082 106 2082 c 0
 333 2082 551 1911 551 1598 c 2
 551 533 l 1
 568 536 585 538 604 538 c 0
 759 538 878 414 878 264 c 0
 878 109 754 -10 604 -10 c 0xfe80
-60 1698 m 0
 -111 1698 -151 1657 -151 1610 c 0
 -151 1564 -115 1520 -60 1520 c 0
 -4 1520 29 1565 29 1610 c 0
 29 1657 -8 1698 -60 1698 c 0
601 354 m 0
 550 354 510 313 510 266 c 0
 510 220 546 176 601 176 c 0
 657 176 690 221 690 266 c 0
 690 313 653 354 601 354 c 0
EndSplineSet
EndChar
StartChar: uni0E44
Encoding: 3652 3652 187
Width: 963
VWidth: 2045
Flags: W
HStem: -10 186<522.542 674.856> 354 184<551.71 676.265> 1481 21G<-172 54.7719>
VStem: -172 197<1745 2119.08> 330 221<533 1766> 330 180<194.297 340.887> 690 188<187.75 340.268>
Fore
604 -10 m 0xfa
 454 -10 330 109 330 264 c 2xf6
 330 1766 l 25xfa
 34 1481 l 1
 -172 1481 l 1
 -172 1997 l 2
 -172 2050 -192 2097 -231 2136 c 1
 -99 2268 l 1
 -16 2207 25 2116 25 1997 c 2
 25 1745 l 1
 330 2074 l 1xf6
 551 2074 l 25
 551 533 l 1
 568 536 585 538 604 538 c 0
 759 538 878 414 878 264 c 0
 878 109 754 -10 604 -10 c 0xfa
601 354 m 0
 550 354 510 313 510 266 c 0
 510 220 546 176 601 176 c 0
 657 176 690 221 690 266 c 0
 690 313 653 354 601 354 c 0
EndSplineSet
EndChar
StartChar: uni0E45
Encoding: 3653 3653 188
Width: 1126
VWidth: 2045
Flags: W
HStem: 1064 220<245.936 546.256>
VStem: -102 220<788 936.634> 670 220<788 940.142>
Fore
395 1064 m 0
 555 1064 670 936 670 788 c 2
 670 -550 l 1
 890 -550 l 9
 891 788 l 2
 891 1044 679 1284 394 1284 c 0
 118 1284 -102 1065 -102 788 c 9
 118 788 l 17
 118 944 243 1064 395 1064 c 0
EndSplineSet
EndChar
StartChar: uni0E46
Encoding: 3654 3654 189
Width: 1648
VWidth: 2045
Flags: W
HStem: 408 190<441.863 597.38> 774 191<458.527 598.757> 1244 20G<513 590.482 906.63 968>
VStem: 175 256<611.218 965.444> 611 187<609.19 760.042> 1052 217<-560 983.118>
Fore
522 774 m 0
 472 774 431 733 431 686 c 0
 431 634 471 598 525 598 c 0
 578 598 611 641 611 686 c 0
 611 738 568 774 522 774 c 0
798 686 m 0
 798 533 667 408 522 408 c 0
 428 408 175 459 175 794 c 0
 175 1170 472 1249 554 1264 c 1
 751 1156 l 1
 942 1264 l 1
 994 1257 1267 1149 1267 861 c 10
 1269 -560 l 17
 1052 -560 l 1
 1054 850 l 2
 1054 984 988 1018 932 1036 c 1
 747 940 l 1
 561 1033 l 1
 510 1024 470 994 443 942 c 1
 462 957 489 965 526 965 c 0
 652 965 798 847 798 686 c 0
EndSplineSet
EndChar
StartChar: uni0E47
Encoding: 3655 3655 190
Width: 0
VWidth: 2045
Flags: W
HStem: 1403 112<-496.358 -372.775> 1512 131<-832.509 -702.738> 1648 112<-495.703 -372.183> 1805 119<-926.959 -672.344 -679.182 -665.505 -672.344 -329.898>
VStem: -1095 131<1557.35 1766.14> -614 113<1548.43 1642.92> -367 113<1519.66 1643.93> -273 102<1940.13 2007.33>
AnchorPoint: "AboveMark" -659 1374 mark 0
AnchorPoint: "AboveBase" -272 1375 mark 0
Fore
-768 1805 m 0xbd
 -943 1805 -964 1733 -964 1655 c 0
 -964 1593 -942 1557 -899 1548 c 1
 -899 1617 -855 1643 -815 1643 c 0x7d
 -722 1643 -682 1562 -611 1548 c 1
 -613 1559 -614 1570 -614 1581 c 0
 -614 1688 -529 1760 -434 1760 c 0
 -337 1760 -254 1683 -254 1581 c 0
 -254 1504 -306 1403 -453 1403 c 0xbe
 -642 1403 -698 1512 -785 1512 c 0x7e
 -830 1512 -834 1488 -834 1440 c 0
 -834 1427 -833 1415 -832 1403 c 1
 -1065 1432 -1095 1566 -1095 1660 c 0
 -1095 1872 -915 1924 -776 1924 c 0
 -711 1924 -656 1912 -558 1912 c 0
 -392 1912 -297 1953 -273 2037 c 1
 -171 1977 l 1
 -206 1856 -325 1795 -529 1794 c 0
 -648 1794 -696 1805 -768 1805 c 0xbd
-434 1648 m 0
 -469 1648 -501 1621 -501 1581 c 0
 -501 1545 -474 1515 -434 1515 c 0
 -394 1515 -367 1546 -367 1581 c 0xbe
 -367 1619 -399 1648 -434 1648 c 0
EndSplineSet
Substitution2: "Thai Mark High Variant" uni0E47.high
Substitution2: "Thai Phinthu Maitaikhu Reordering" uni0E3A
EndChar
StartChar: uni0E48
Encoding: 3656 3656 191
Width: 0
VWidth: 2045
Flags: MW
VStem: -485 180<2178 2508>
AnchorPoint: "AboveMark" -395 2120 mark 0
Fore
-485 2178 m 17
 -485 2508 l 1
 -305 2508 l 1
 -305 2178 l 1
 -485 2178 l 17
EndSplineSet
MultipleSubs2: "Thai Tone Nikhahit Attachment" uni0E4D uni0E48
Substitution2: "Thai Tone Low Variant" uni0E48.low
Substitution2: "Thai Sara U Mai Ek Reordering" uni0E38
Substitution2: "Thai Sara UU Mai Ek Reordering" uni0E39
Substitution2: "Thai Phinthu Mai Ek Reordering" uni0E3A
EndChar
StartChar: uni0E49
Encoding: 3657 3657 192
Width: 0
VWidth: 2045
Flags: W
HStem: 2487 90<-540.813 -436.591>
VStem: -633 91<2389.14 2484.99> -435 90<2382.64 2472.16> -186 125<2402.93 2567>
AnchorPoint: "AboveMark" -347 2120 mark 0
Back
-527 2687 m 0
 -421 2687 -347 2605 -347 2509 c 0
 -347 2451 -367 2403 -406 2365 c 2
 -473 2293 l 1
 -391 2308 -316 2346 -249 2409 c 0
 -182 2472 -149 2560 -149 2675 c 1
 8 2675 l 1
 14 2359 -251 2137 -529 2137 c 2
 -678 2137 l 1
 -678 2291 l 1
 -576 2347 l 1
 -701 2371 -707 2483 -707 2510 c 0
 -707 2607 -632 2687 -527 2687 c 0
-527 2575 m 0
 -570 2575 -594 2542 -594 2509 c 0
 -594 2469 -562 2442 -527 2442 c 0
 -489 2442 -460 2474 -460 2509 c 0
 -460 2538 -484 2575 -527 2575 c 0
EndSplineSet
Fore
-489 2577 m 0
 -404 2577 -345 2511 -345 2434 c 0
 -345 2388 -361 2349 -392 2319 c 2
 -446 2261 l 1
 -380 2273 -320 2304 -266 2354 c 0
 -213 2405 -186 2475 -186 2567 c 1
 -61 2567 l 1
 -56 2314 -268 2137 -490 2137 c 2
 -610 2137 l 1
 -610 2260 l 1
 -528 2305 l 1
 -628 2324 -633 2413 -633 2435 c 0
 -633 2513 -573 2577 -489 2577 c 0
-489 2487 m 0
 -523 2487 -542 2461 -542 2434 c 0
 -542 2402 -517 2381 -489 2381 c 0
 -458 2381 -435 2406 -435 2434 c 0
 -435 2457 -454 2487 -489 2487 c 0
EndSplineSet
MultipleSubs2: "Thai Tone Nikhahit Attachment" uni0E4D uni0E49
Substitution2: "Thai Tone Low Variant" uni0E49.low
Substitution2: "Thai Sara U Mai Tho Reordering" uni0E38
Substitution2: "Thai Sara UU Mai Tho Reordering" uni0E39
Substitution2: "Thai Phinthu Mai Tho Reordering" uni0E3A
EndChar
StartChar: uni0E4A
Encoding: 3658 3658 193
Width: 0
VWidth: 2045
Flags: MW
HStem: 2150 90<-737.896 -633.767> 2346 90<-726.737 -633.681> 2479 102<-724.781 -587.963 -469.954 -313.208>
VStem: -855 116<2242.69 2403.7> -632 90<2240.92 2345.13> -295 102<2314.74 2461.81> -86 102<2388.58 2542>
AnchorPoint: "AboveMark" -487 2120 mark 0
Back
-127 2354 m 1
 -60 2405 14 2503 14 2640 c 1
 142 2640 l 17
 142 2339 -120 2150 -329 2150 c 1
 -329 2277 l 1
 -329 2277 -247 2328 -247 2419 c 0
 -247 2519 -318 2561 -360 2561 c 0
 -414 2561 -451 2539 -471 2496 c 1
 -572 2496 l 1
 -613 2539 -649 2561 -678 2561 c 0
 -728 2560 -768 2528 -790 2499 c 1
 -771 2504 -752 2507 -735 2507 c 0
 -630 2507 -555 2426 -555 2328 c 0
 -555 2231 -630 2150 -735 2150 c 0
 -832 2150 -947 2222 -947 2398 c 0
 -947 2609 -772 2688 -678 2688 c 0
 -609 2688 -556 2667 -520 2624 c 1
 -484 2667 -431 2688 -360 2688 c 0
 -258 2688 -119 2589 -119 2419 c 0
 -119 2394 -122 2373 -127 2354 c 1
-735 2395 m 0
 -773 2395 -802 2363 -802 2328 c 0
 -802 2295 -774 2262 -735 2262 c 0
 -698 2262 -668 2293 -668 2328 c 0
 -668 2367 -701 2395 -735 2395 c 0
EndSplineSet
Fore
-199 2314 m 1
 -146 2354 -86 2433 -86 2542 c 1
 16 2542 l 17
 16 2302 -194 2150 -361 2150 c 1
 -361 2252 l 1
 -361 2252 -295 2293 -295 2366 c 0
 -295 2446 -352 2479 -386 2479 c 0
 -429 2479 -458 2462 -474 2427 c 1
 -555 2427 l 1
 -588 2462 -617 2479 -640 2479 c 0
 -680 2478 -712 2453 -730 2430 c 1
 -714 2434 -699 2436 -686 2436 c 0
 -602 2436 -542 2371 -542 2293 c 0
 -542 2215 -602 2150 -686 2150 c 0
 -763 2150 -855 2208 -855 2349 c 0
 -855 2518 -715 2581 -640 2581 c 0
 -585 2581 -542 2564 -514 2530 c 1
 -485 2564 -442 2581 -386 2581 c 0
 -304 2581 -193 2502 -193 2366 c 0
 -193 2346 -195 2329 -199 2314 c 1
-686 2346 m 0
 -716 2346 -739 2321 -739 2293 c 0
 -739 2266 -717 2240 -686 2240 c 0
 -656 2240 -632 2265 -632 2293 c 0
 -632 2324 -658 2346 -686 2346 c 0
EndSplineSet
MultipleSubs2: "Thai Tone Nikhahit Attachment" uni0E4D uni0E4A
Substitution2: "Thai Tone Low Variant" uni0E4A.low
Substitution2: "Thai Sara U Mai Tri Reordering" uni0E38
Substitution2: "Thai Sara UU Mai Tri Reordering" uni0E39
Substitution2: "Thai Phinthu Mai Tri Reordering" uni0E3A
EndChar
StartChar: uni0E4B
Encoding: 3659 3659 194
Width: 0
VWidth: 2045
Flags: MW
HStem: 2297 144<-547 -427 -282 -162>
VStem: -427 145<2177 2297 2441 2560 2177 2560 2177 2177>
AnchorPoint: "AboveMark" -357 2120 mark 0
Back
-117 2327 m 1
 -267 2327 l 1
 -267 2177 l 1
 -448 2177 l 1
 -448 2327 l 1
 -598 2327 l 1
 -598 2507 l 1
 -448 2507 l 1
 -448 2656 l 1
 -267 2656 l 1
 -267 2507 l 1
 -117 2507 l 1
 -117 2327 l 1
EndSplineSet
Fore
-162 2297 m 1
 -282 2297 l 1
 -282 2177 l 1
 -427 2177 l 1
 -427 2297 l 1
 -547 2297 l 1
 -547 2441 l 1
 -427 2441 l 1
 -427 2560 l 1
 -282 2560 l 1
 -282 2441 l 1
 -162 2441 l 1
 -162 2297 l 1
EndSplineSet
MultipleSubs2: "Thai Tone Nikhahit Attachment" uni0E4D uni0E4B
Substitution2: "Thai Tone Low Variant" uni0E4B.low
Substitution2: "Thai Sara U Mai Chattawa Reordering" uni0E38
Substitution2: "Thai Sara UU Mai Chattawa Reordering" uni0E39
Substitution2: "Thai Phinthu Mai Chattawa Reordering" uni0E3A
EndChar
StartChar: uni0E4C
Encoding: 3660 3660 195
Width: 0
VWidth: 2045
Flags: W
HStem: 2188 106<-643.345 -513.76> 2421 124<-406 -147.869> 2437 108<-642.595 -511.343>
VStem: -758 108<2300.56 2430.74> -506 108<2300.94 2415.92>
AnchorPoint: "AboveMark" -453 2120 mark 0
Back
-611 2500 m 0xb8
 -658 2500 -701 2464 -701 2411 c 0
 -701 2359 -658 2321 -611 2321 c 0
 -564 2321 -521 2359 -521 2411 c 0
 -521 2464 -564 2500 -611 2500 c 0xb8
-835 2410 m 0
 -835 2542 -731 2634 -610 2634 c 2xb8
 -140 2632 l 2
 -76 2632 -29 2651 0 2690 c 1
 110 2581 l 1
 43 2512 -41 2478 -140 2478 c 2
 -396 2480 l 1xd8
 -389 2457 -385 2434 -385 2412 c 0
 -385 2289 -484 2188 -611 2188 c 0
 -730 2188 -835 2280 -835 2410 c 0
EndSplineSet
Fore
-578 2437 m 0xb8
 -616 2437 -650 2409 -650 2366 c 0
 -650 2325 -616 2294 -578 2294 c 0
 -541 2294 -506 2325 -506 2366 c 0
 -506 2409 -541 2437 -578 2437 c 0xb8
-758 2365 m 0
 -758 2471 -674 2545 -578 2545 c 2xb8
 -202 2543 l 2
 -150 2543 -113 2558 -90 2589 c 1
 -2 2502 l 1
 -55 2447 -122 2420 -202 2420 c 2
 -406 2421 l 1xd8
 -401 2403 -398 2385 -398 2367 c 0
 -398 2269 -477 2188 -578 2188 c 0
 -674 2188 -758 2261 -758 2365 c 0
EndSplineSet
MultipleSubs2: "Thai Tone Nikhahit Attachment" uni0E4D uni0E4C
Substitution2: "Thai Tone Low Variant" uni0E4C.low
Substitution2: "Thai Sara U Thanthakhat Reordering" uni0E38
Substitution2: "Thai Sara UU Thanthakhat Reordering" uni0E39
Substitution2: "Thai Phinthu Thanthakhat Reordering" uni0E3A
EndChar
StartChar: uni0E4D
Encoding: 3661 3661 196
Width: 0
VWidth: 2045
Flags: W
HStem: 1419 186<-481.619 -328.39> 1783 184<-480.823 -326.932>
VStem: -678 183<1618.09 1769.6> -315 185<1616.75 1769.27>
AnchorPoint: "AboveMark" -400 2120 basemark 0
AnchorPoint: "AboveBase" -202 1375 mark 0
Fore
-404 1419 m 0
 -559 1419 -678 1543 -678 1693 c 0
 -678 1848 -554 1967 -404 1967 c 0
 -249 1967 -130 1843 -130 1693 c 0
 -130 1538 -254 1419 -404 1419 c 0
-404 1783 m 0
 -455 1783 -495 1742 -495 1695 c 0
 -495 1649 -459 1605 -404 1605 c 0
 -348 1605 -315 1650 -315 1695 c 0
 -315 1742 -352 1783 -404 1783 c 0
EndSplineSet
Substitution2: "Thai Mark High Variant" uni0E4D.high
Substitution2: "Thai Sara U Nikhahit Reordering" uni0E38
Substitution2: "Thai Sara UU Nikhahit Reordering" uni0E39
Substitution2: "Thai Phinthu Nikhahit Reordering" uni0E3A
EndChar
StartChar: uni0E4E
Encoding: 3662 3662 197
Width: 0
VWidth: 2045
Flags: W
HStem: 1417 156<-561.206 -473> 1795 157<-558.885 -473> 2064 156<-290.796 -116.634>
VStem: -744 159<1596.54 1772.68> -473 157<1952 2040.62> -91 158<1952 2040.91>
AnchorPoint: "AboveBase" -140 1375 mark 0
Fore
-585 1684 m 0
 -585 1617 -533 1573 -473 1573 c 1
 -473 1417 l 17
 -626 1417 -744 1536 -744 1684 c 0
 -744 1838 -620 1952 -473 1952 c 1
 -473 2108 -348 2220 -204 2220 c 0
 -60 2220 67 2110 67 1952 c 1
 -91 1952 l 1
 -91 2011 -138 2064 -204 2064 c 0
 -269 2064 -316 2010 -316 1952 c 0
 -316 1923 -305 1896 -284 1873 c 1
 -284 1762 l 1
 -393 1762 l 1
 -416 1784 -443 1795 -473 1795 c 0
 -532 1795 -585 1751 -585 1684 c 0
EndSplineSet
EndChar
StartChar: uni0E4F
Encoding: 3663 3663 198
Width: 1571
VWidth: 2045
Flags: W
HStem: -23 133<599.306 967.265> 245 177<706.714 857.894> 600 179<707.687 861.795> 914 133<599.966 967.245>
VStem: 244 134<333.968 686.318> 514 179<436.721 586.97> 873 181<434.591 588.125> 1189 134<337.295 686.729>
Fore
784 600 m 0
 733 600 693 559 693 512 c 0
 693 466 729 422 784 422 c 0
 840 422 873 467 873 512 c 0
 873 559 836 600 784 600 c 0
784 -23 m 0
 485 -23 244 215 244 512 c 0
 244 809 485 1047 784 1047 c 0
 1081 1047 1323 810 1323 512 c 0
 1323 213 1080 -23 784 -23 c 0
784 914 m 0
 566 914 378 739 378 512 c 0
 378 288 563 110 784 110 c 0
 1002 110 1189 285 1189 512 c 0
 1189 740 1001 914 784 914 c 0
784 245 m 0
 630 245 514 364 514 512 c 0
 514 665 636 779 784 779 c 0
 944 779 1054 651 1054 512 c 0
 1054 372 944 245 784 245 c 0
EndSplineSet
EndChar
StartChar: uni0E50
Encoding: 3664 3664 199
Width: 1326
VWidth: 2045
Flags: W
HStem: 0 197<492.275 847.748> 697 197<492.244 831.999>
VStem: 123 220<327.68 567.316> 983 220<317.726 568.489>
Fore
663 697 m 0
 495 697 343 583 343 447 c 0
 343 289 528 197 663 197 c 0
 835 197 983 293 983 447 c 0
 983 597 810 697 663 697 c 0
663 0 m 0
 345 0 123 218 123 447 c 0
 123 679 349 894 663 894 c 0
 975 894 1203 683 1203 447 c 0
 1203 216 979 0 663 0 c 0
EndSplineSet
EndChar
StartChar: uni0E51
Encoding: 3665 3665 200
Width: 1388
VWidth: 2045
Flags: W
HStem: 0 226<403.036 755.248> 404 184<602.177 756.068> 679 215<511.939 857.498>
VStem: 127 230<242.293 540.312> 405 183<251.829 390.599> 768 185<240.409 390.268> 1024 220<162.331 522.296>
Fore
679 404 m 0
 628 404 588 363 588 316 c 0
 588 270 624 226 679 226 c 0
 735 226 768 271 768 316 c 0
 768 363 731 404 679 404 c 0
699 679 m 0
 479 679 357 540 357 409 c 0
 357 300 368 268 432 208 c 1
 414 237 405 273 405 314 c 0
 405 469 529 588 679 588 c 0
 834 588 953 464 953 314 c 0
 953 163 828 0 566 0 c 0
 206 0 127 269 127 414 c 0
 127 606 265 894 698 894 c 0
 986 894 1244 697 1244 364 c 0
 1244 231 1220 -1 952 -162 c 1
 816 -5 l 1
 980 113 1024 195 1024 364 c 0
 1024 539 876 679 699 679 c 0
EndSplineSet
EndChar
StartChar: uni0E52
Encoding: 3666 3666 201
Width: 1604
VWidth: 2045
Flags: W
HStem: 0 217<292 1236.18> 268 186<558.381 711.61> 632 265<557.44 820.628> 679 215<1156.49 1260.51>
VStem: 74 218<217 1161.64> 362 183<467.093 618.791> 725 185<465.75 619.433> 1294 231<278.24 656.319>
Fore
636 632 m 0xef
 585 632 545 591 545 544 c 0
 545 498 581 454 636 454 c 0
 692 454 725 499 725 544 c 0
 725 591 688 632 636 632 c 0xef
1085 217 m 2
 1222 217 1294 265 1294 449 c 0
 1294 602 1263 679 1201 679 c 0xdf
 1170 679 1147 633 1130 542 c 1
 944 542 l 1
 923 630 889 676 840 680 c 1
 887 627 910 581 910 542 c 0
 910 387 786 268 636 268 c 0
 481 268 362 392 362 542 c 0
 362 756 515 897 732 897 c 0xef
 872 897 974 859 1037 784 c 1
 1080 857 1133 894 1198 894 c 0xdf
 1416 894 1525 747 1525 453 c 0
 1525 70 1286 0 1137 0 c 2
 74 0 l 1
 74 1094 l 2
 74 1137 43 1169 2 1165 c 1
 2 1384 l 1
 244 1384 292 1190 292 1094 c 2
 292 217 l 1
 1085 217 l 2
EndSplineSet
EndChar
StartChar: uni0E53
Encoding: 3667 3667 202
Width: 1476
VWidth: 2045
Flags: W
HStem: 0 186<335.626 487.61> 364 184<347.069 489.068> 679 215<426.361 636.353 931.328 1075.81>
VStem: 103 218<202.612 478.175> 501 185<197.75 350.268> 666 220<458 646.825> 1093 220<0 653.929>
Fore
686 274 m 0xfa
 686 119 562 0 412 0 c 0
 290 0 103 75 103 440 c 0
 103 641 237 894 517 894 c 0
 624 894 709 864 772 804 c 1
 832 864 905 894 992 894 c 0
 1178 894 1313 765 1313 566 c 2
 1313 0 l 1
 1093 0 l 1
 1093 574 l 2
 1093 627 1061 677 987 677 c 0
 964 677 886 655 886 569 c 2
 886 458 l 1
 666 458 l 1
 666 566 l 2xf6
 666 611 625 679 516 679 c 0
 481 679 372 678 334 537 c 1
 359 544 385 548 412 548 c 0
 567 548 686 424 686 274 c 0xfa
412 364 m 0
 361 364 321 323 321 276 c 0
 321 230 357 186 412 186 c 0
 468 186 501 231 501 276 c 0xfa
 501 323 464 364 412 364 c 0
EndSplineSet
EndChar
StartChar: uni0E54
Encoding: 3668 3668 203
Width: 1498
VWidth: 2045
Flags: W
HStem: 0 218<421.346 645 825 1294> 532 134<727.302 880.905> 677 217<422.517 1247.96> 1054 20G<1311 1531>
VStem: 110 220<308.228 585.913> 555 160<365.966 517.446> 895 136<367.172 518.46> 1311 220<959.75 1074>
Fore
805 532 m 0
 755 532 715 492 715 443 c 0
 715 394 756 353 805 353 c 0
 851 353 895 392 895 443 c 0
 895 493 853 532 805 532 c 0
1531 1074 m 1
 1531 839 1373 677 1131 677 c 2
 563 677 l 2
 463 677 331 609 330 452 c 0
 327 314 429 218 561 218 c 2
 645 218 l 17
 585 277 555 349 555 435 c 0
 555 541 642 666 805 666 c 0
 934 666 1031 561 1031 443 c 0
 1031 313 918 218 825 218 c 9
 1294 218 l 1
 1294 0 l 1
 561 0 l 2
 297 0 110 208 110 447 c 0
 110 710 320 894 564 894 c 2
 1131 896 l 2
 1228 896 1311 972 1311 1074 c 1
 1531 1074 l 1
EndSplineSet
EndChar
StartChar: uni0E55
Encoding: 3669 3669 204
Width: 1489
VWidth: 2045
Flags: W
HStem: 0 218<421.346 645 825 1294> 532 134<727.302 880.905> 677 249<591.071 746.678> 677 219<917 1247.96> 1054 20G<1311 1531> 1104 184<593.177 747.068>
VStem: 110 220<308.228 584.631> 396 183<938.913 1090.6> 555 160<365.966 517.446> 759 185<950.659 1090.27> 895 136<367.172 518.46> 1311 220<959.75 1074>
Fore
670 1288 m 0xdf30
 825 1288 944 1164 944 1014 c 0
 944 971 935 932 917 896 c 9
 1131 896 l 2
 1228 896 1311 972 1311 1074 c 1
 1531 1074 l 1
 1531 839 1373 677 1131 677 c 2
 563 677 l 2
 463 677 331 609 330 452 c 0
 327 314 429 218 561 218 c 2
 645 218 l 17
 585 277 555 349 555 435 c 0xded0
 555 541 642 666 805 666 c 0
 934 666 1031 561 1031 443 c 0
 1031 313 918 218 825 218 c 9
 1294 218 l 1
 1294 0 l 1
 561 0 l 2
 297 0 110 208 110 447 c 0
 110 673 264 827 433 876 c 1
 408 917 396 963 396 1014 c 0
 396 1169 520 1288 670 1288 c 0xdf30
670 1104 m 0
 619 1104 579 1063 579 1016 c 0
 579 970 615 926 670 926 c 0xef50
 726 926 759 971 759 1016 c 0
 759 1063 722 1104 670 1104 c 0
805 532 m 0
 755 532 715 492 715 443 c 0
 715 394 756 353 805 353 c 0
 851 353 895 392 895 443 c 0xceb0
 895 493 853 532 805 532 c 0
EndSplineSet
EndChar
StartChar: uni0E56
Encoding: 3670 3670 205
Width: 1448
VWidth: 2045
Flags: W
HStem: 0 206<385.862 669.423> 384 184<387.177 541.068> 679 215<472.015 934.994>
VStem: 189 220<822 1254.39> 190 183<220.889 370.599> 553 185<236.005 370.268> 1049 220<379.167 582.983>
Fore
464 568 m 0xee
 619 568 738 444 738 294 c 0
 738 271 736 249 731 228 c 1
 820 243 1055 328 1049 504 c 0
 1047 552 985 679 710 679 c 0
 367 679 192 537 189 531 c 1
 189 1168 l 2
 189 1230 143 1279 76 1279 c 1
 76 1498 l 1
 254 1498 409 1362 409 1168 c 2
 409 822 l 1xf6
 500 870 612 894 744 894 c 0
 1024 894 1269 718 1269 474 c 0
 1269 311 1088 0 616 0 c 0
 255 0 190 176 190 294 c 0
 190 449 314 568 464 568 c 0xee
464 384 m 0
 413 384 373 343 373 296 c 0xee
 373 250 409 206 464 206 c 0
 520 206 553 251 553 296 c 0
 553 343 516 384 464 384 c 0
EndSplineSet
EndChar
StartChar: uni0E57
Encoding: 3671 3671 206
Width: 1768
VWidth: 2045
Flags: W
HStem: 0 186<335.255 487.61> 364 184<347.069 489.068> 679 215<426.361 636.353 916.291 1041.64> 1264 20G<1453 1505.87>
VStem: 103 218<201.537 478.175> 501 185<197.75 350.268> 666 220<458 647.573> 1053 220<218 665.265> 1387 220<242.855 328 328 1091.75>
Fore
970 677 m 0xfd80
 936 677 886 662 886 569 c 2
 886 458 l 1
 666 458 l 1
 666 566 l 2xfb80
 666 611 625 679 516 679 c 0
 481 679 372 678 334 537 c 1
 359 544 385 548 412 548 c 0
 567 548 686 424 686 274 c 0
 686 119 562 -0 412 0 c 0
 288 0 103 70 103 440 c 0
 103 641 237 894 517 894 c 0
 624 894 709 864 772 804 c 1
 832 864 899 894 972 894 c 0
 1119 894 1273 828 1273 566 c 2
 1273 218 l 17
 1335 218 1387 266 1387 328 c 2
 1387 1051 l 2
 1387 1156 1420 1234 1486 1284 c 1
 1639 1130 l 1
 1618 1109 1607 1082 1607 1051 c 2
 1607 333 l 2
 1607 173 1485 0 1274 0 c 10
 1053 0 l 17
 1053 574 l 2
 1053 649 1018 677 970 677 c 0xfd80
412 364 m 0
 361 364 321 323 321 276 c 0
 321 230 357 186 412 186 c 0
 468 186 501 231 501 276 c 0xfd80
 501 323 464 364 412 364 c 0
EndSplineSet
EndChar
StartChar: uni0E58
Encoding: 3672 3672 207
Width: 1548
VWidth: 2045
Flags: W
HStem: 0 186<937.991 1090.61> 228 286<467.931 617.316> 364 184<936.174 1092.07> 677 218<364.899 1244.43> 1054 20G<1311 1531>
VStem: 38 230<414.247 586.872> 1104 185<197.75 350.18> 1311 220<962.724 1074>
Fore
1289 274 m 0xbf
 1289 119 1165 -0 1015 0 c 0
 896 0 798 38 720 114 c 0
 642 190 583 228 542 228 c 0
 486 228 455 201 455 94 c 0
 455 68 457 37 461 0 c 1
 165 0 37 251 38 486 c 0
 40 656 158 895 494 895 c 2
 1131 895 l 2
 1232 895 1311 974 1311 1074 c 1
 1531 1074 l 1
 1531 873 1363 677 1131 677 c 2
 494 677 l 2
 337 677 268 542 268 492 c 0
 268 421 282 368 311 331 c 1
 338 454 401 514 499 514 c 0xdf
 570 514 640 468 707 377 c 2
 747 334 l 17
 769 435 865 548 1015 548 c 0
 1170 548 1289 424 1289 274 c 0xbf
1015 364 m 0xbf
 964 364 924 323 924 276 c 0
 924 230 960 186 1015 186 c 0
 1071 186 1104 231 1104 276 c 0
 1104 327 1062 364 1015 364 c 0xbf
EndSplineSet
EndChar
StartChar: uni0E59
Encoding: 3673 3673 208
Width: 1611
VWidth: 2045
Flags: W
HStem: -10 196<464.553 618.423> 364 184<465.172 617.62> 676 218<442.158 779.429 1076.79 1235.92>
VStem: 116 220<449 580.718> 632 185<198.242 350.621> 910 200<0 554.271> 1290 220<853 1207.06>
Fore
1290 566 m 1
 1282 588 1216 676 1125 676 c 8
 1098 676 1078 666 1063 645 c 1
 1094 600 1110 519 1110 402 c 2
 1110 0 l 1
 910 0 l 1
 910 408 l 2
 910 515 839 673 605 676 c 0
 449 679 336 594 336 449 c 1
 392 515 459 548 535 548 c 0
 697 548 817 426 817 274 c 0
 817 124 680 -10 513 -10 c 24
 249 -10 116 187 116 447 c 0
 116 644 253 894 605 894 c 0
 723 894 792 886 902 802 c 1
 962 863 1035 894 1122 894 c 0
 1201 894 1257 880 1290 853 c 1
 1290 1168 l 2
 1290 1250 1316 1318 1369 1373 c 1
 1543 1246 l 1
 1521 1225 1510 1199 1510 1168 c 2
 1510 665 l 1
 1290 566 l 1
543 364 m 0
 492 364 452 323 452 276 c 0
 452 230 488 186 543 186 c 0
 599 186 632 231 632 276 c 0
 632 323 595 364 543 364 c 0
EndSplineSet
EndChar
StartChar: uni0E5A
Encoding: 3674 3674 209
Width: 1695
VWidth: 2045
Flags: W
HStem: 0 21G<919 1139 1255 1475> 637 255<277.372 432.678> 1070 184<279.177 433.068>
VStem: 82 183<907.814 1056.6> 445 185<916.974 1056.27> 919 220<0 813 1068.66 1254> 1255 220<0 1254>
Fore
356 1070 m 0
 305 1070 265 1029 265 982 c 0
 265 936 301 892 356 892 c 0
 412 892 445 937 445 982 c 0
 445 1029 408 1070 356 1070 c 0
356 1254 m 0
 511 1254 630 1130 630 980 c 0
 630 944 622 909 606 876 c 1
 656 884 919 952 919 1254 c 1
 1139 1254 l 1
 1139 0 l 1
 919 0 l 1
 919 813 l 1
 787 684 651 636 444 637 c 0
 203 639 82 840 82 980 c 0
 82 1135 206 1254 356 1254 c 0
1255 1254 m 1
 1475 1254 l 1
 1475 0 l 1
 1255 0 l 1
 1255 1254 l 1
EndSplineSet
EndChar
StartChar: uni0E5B
Encoding: 3675 3675 210
Width: 2515
VWidth: 2045
Flags: W
HStem: 0 218<457.582 784.265> 292 186<562.381 716.768> 397 212<2219.89 2395> 849 209<436.434 607.885>
VStem: 82 217<380.897 687.682> 366 183<491.093 640.157> 729 233<491.733 641.057>
Fore
366 566 m 0xde
 366 726 498 841 622 838 c 1
 591 845 564 849 541 849 c 0
 436 849 299 690 299 535 c 0
 299 381 426 218 602 218 c 0
 747 218 922 309 992 444 c 2
 1156 757 l 1
 1262 757 l 1
 1387 548 l 1
 1512 757 l 1
 1619 757 l 1
 1744 548 l 1
 1868 757 l 1
 1974 757 l 1
 2099 528 l 1
 2125 582 2184 609 2275 609 c 2
 2395 609 l 1
 2395 397 l 1
 2282 397 l 2xbe
 2240 397 2197 338 2153 219 c 1
 2046 219 l 1
 1921 428 l 1
 1796 219 l 1
 1689 219 l 1
 1564 428 l 1
 1441 219 l 1
 1334 219 l 1
 1209 428 l 1
 1134 306 l 2
 965 35 745 0 617 0 c 0
 256 0 82 291 82 532 c 0
 82 850 338 1058 562 1058 c 0
 779 1058 962 915 962 610 c 8
 962 435 807 292 640 292 c 0
 485 292 366 416 366 566 c 0xde
640 656 m 0
 589 656 549 615 549 568 c 0
 549 522 585 478 640 478 c 0xde
 696 478 729 523 729 568 c 0
 729 615 692 656 640 656 c 0
EndSplineSet
EndChar
StartChar: afii301
Encoding: 8205 8205 212
Width: 0
Flags: W
VStem: -36 72<-275 1114>
Fore
36 -275 m 1
 -36 -275 l 1
 -36 1114 l 1
 -170 978 l 1
 -219 1027 l 1
 -48 1196 l 1
 -219 1364 l 1
 -170 1413 l 1
 0 1242 l 1
 170 1413 l 1
 219 1364 l 1
 48 1196 l 1
 219 1027 l 1
 170 978 l 1
 36 1114 l 1
 36 -275 l 1
EndSplineSet
EndChar
StartChar: afii299
Encoding: 8206 8206 213
Width: 0
Flags: W
HStem: 1163 71<35 301>
VStem: -36 71<-275 1163>
Fore
430 1198 m 1
 213 984 l 1
 164 1033 l 1
 301 1163 l 1
 35 1163 l 1
 35 -275 l 1
 -36 -275 l 1
 -36 1234 l 1
 301 1234 l 1
 164 1364 l 1
 213 1413 l 1
 430 1198 l 1
EndSplineSet
EndChar
StartChar: afii300
Encoding: 8207 8207 214
Width: 0
Flags: W
HStem: 1163 71<-302 -36>
VStem: -36 71<-275 1163>
Fore
35 -275 m 1
 -36 -275 l 1
 -36 1163 l 1
 -302 1163 l 1
 -165 1033 l 1
 -214 984 l 1
 -431 1198 l 1
 -214 1413 l 1
 -165 1364 l 1
 -302 1234 l 1
 35 1234 l 1
 35 -275 l 1
EndSplineSet
EndChar
StartChar: uni2010
Encoding: 8208 8208 215
Width: 973
Flags: MW
HStem: 543 225<190 815>
Fore
190 768 m 1
 815 768 l 1
 815 543 l 1
 190 543 l 1
 190 768 l 1
EndSplineSet
EndChar
StartChar: endash
Encoding: 8211 8211 216
Width: 1125
Flags: MW
HStem: 525 234<0 1126>
Fore
1126 525 m 1
 0 525 l 1
 0 759 l 1
 1126 759 l 1
 1126 525 l 1
EndSplineSet
EndChar
StartChar: emdash
Encoding: 8212 8212 217
Width: 1886
Flags: MW
HStem: 525 245<0 1870>
Fore
1870 525 m 1
 0 525 l 1
 0 770 l 1
 1870 770 l 1
 1870 525 l 1
EndSplineSet
EndChar
StartChar: afii00208
Encoding: 8213 8213 218
Width: 1862
Flags: MW
HStem: 572 160<110 1752>
Fore
1752 572 m 1
 110 572 l 1
 110 732 l 1
 1752 732 l 1
 1752 572 l 1
EndSplineSet
EndChar
StartChar: underscoredbl
Encoding: 8215 8215 219
Width: 1118
Flags: MW
HStem: -423 130<-16 1134> -212 130<-16 1134>
Fore
1134 -212 m 1
 -16 -212 l 1
 -16 -82 l 1
 1134 -82 l 1
 1134 -212 l 1
1134 -423 m 1
 -16 -423 l 1
 -16 -293 l 1
 1134 -293 l 1
 1134 -423 l 1
EndSplineSet
EndChar
StartChar: quoteleft
Encoding: 8216 8216 220
Width: 450
Flags: W
HStem: 997 559<197 222 -64 379 -64 -64>
Fore
379 997 m 1
 197 997 l 1
 -64 1556 l 1
 222 1556 l 1
 379 997 l 1
EndSplineSet
EndChar
StartChar: quoteright
Encoding: 8217 8217 221
Width: 580
Flags: W
HStem: 997 559<209 235 52 496 209 209>
Fore
496 1556 m 1
 235 997 l 1
 52 997 l 1
 209 1556 l 1
 496 1556 l 1
EndSplineSet
EndChar
StartChar: quotesinglbase
Encoding: 8218 8218 222
Width: 432
Flags: W
HStem: -276 559<125 386 386 386>
Fore
386 283 m 1
 125 -276 l 1
 -13 -276 l 1
 144 283 l 1
 386 283 l 1
EndSplineSet
EndChar
StartChar: quotereversed
Encoding: 8219 8219 223
Width: 432
Flags: W
HStem: 997 559<178 335 335 335>
Fore
335 1556 m 1
 178 997 l 1
 -64 997 l 1
 197 1556 l 1
 335 1556 l 1
EndSplineSet
EndChar
StartChar: quotedblleft
Encoding: 8220 8220 224
Width: 850
Flags: W
HStem: 997 559<197 219 546 568 285 725 -64 -64>
Fore
725 997 m 1
 546 997 l 1
 285 1556 l 1
 568 1556 l 1
 725 997 l 1
376 997 m 1
 197 997 l 1
 -64 1556 l 1
 219 1556 l 1
 376 997 l 1
EndSplineSet
EndChar
StartChar: quotedblright
Encoding: 8221 8221 225
Width: 1000
Flags: W
HStem: 997 559<264 286 613 635 107 896 264 264>
Fore
896 1556 m 1
 635 997 l 1
 456 997 l 1
 613 1556 l 1
 896 1556 l 1
547 1556 m 1
 286 997 l 1
 107 997 l 1
 264 1556 l 1
 547 1556 l 1
EndSplineSet
EndChar
StartChar: quotedblbase
Encoding: 8222 8222 226
Width: 814
Flags: W
HStem: -276 559<520 781 781 781>
Fore
781 283 m 1
 520 -276 l 1
 386 -276 l 1
 543 283 l 1
 781 283 l 1
387 283 m 1
 126 -276 l 1
 -8 -276 l 1
 149 283 l 1
 387 283 l 1
EndSplineSet
EndChar
StartChar: dagger
Encoding: 8224 8224 227
Width: 1118
Flags: W
HStem: 1034 129<135 498 620 983>
VStem: 493 132<135 1039 1158 1556>
Fore
983 1034 m 1
 620 1039 l 1
 625 135 l 1
 493 135 l 1
 498 1039 l 1
 135 1034 l 1
 135 1163 l 1
 498 1158 l 1
 493 1556 l 1
 625 1556 l 1
 620 1158 l 1
 983 1163 l 1
 983 1034 l 1
EndSplineSet
EndChar
StartChar: daggerdbl
Encoding: 8225 8225 228
Width: 1118
Flags: W
HStem: 507 129<135 498 620 983> 1044 129<135 498 620 983>
VStem: 498 122<124 512 631 1049 1168 1556>
Fore
983 507 m 1
 620 512 l 1
 625 124 l 1
 493 124 l 1
 498 512 l 1
 135 507 l 1
 135 636 l 1
 498 631 l 1
 498 1049 l 1
 135 1044 l 1
 135 1173 l 1
 498 1168 l 1
 493 1556 l 1
 625 1556 l 1
 620 1168 l 1
 983 1173 l 1
 983 1044 l 1
 620 1049 l 1
 620 631 l 1
 983 636 l 1
 983 507 l 1
EndSplineSet
EndChar
StartChar: bullet
Encoding: 8226 8226 229
Width: 950
Flags: W
HStem: 311 702<299.399 634.377>
VStem: 114 703<496.399 829.373>
Fore
465 1013 m 0
 663 1013 817 856 817 662 c 0
 817 473 667 311 465 311 c 0
 265 311 114 472 114 662 c 0
 114 862 275 1013 465 1013 c 0
EndSplineSet
EndChar
StartChar: ellipsis
Encoding: 8230 8230 230
Width: 1650
Flags: W
HStem: 0 223<177 381 735 939 1293 1497>
VStem: 177 204<0 223> 735 204<0 223> 1293 204<0 223>
CounterMasks: 1 70
Fore
1497 0 m 1
 1293 0 l 1
 1293 223 l 1
 1497 223 l 1
 1497 0 l 1
939 0 m 1
 735 0 l 1
 735 223 l 1
 939 223 l 1
 939 0 l 1
381 0 m 1
 177 0 l 1
 177 223 l 1
 381 223 l 1
 381 0 l 1
EndSplineSet
EndChar
StartChar: perthousand
Encoding: 8240 8240 231
Width: 2848
Flags: W
HStem: -29 133<1430.39 1657.4 2274.39 2501.4> 634 133<340.39 567.399> 721 133<1431.96 1657.4 2275.96 2501.4> 1384 133<341.958 567.399>
VStem: 102 178<832.041 1316.94> 629 178<833.225 1318.83> 1192 178<168.598 653.935> 1719 178<170.446 655.83> 2036 178<168.598 653.935> 2563 178<170.446 655.83>
Fore
455 1517 m 0xdfc0
 666 1517 807 1396 807 1076 c 0
 807 756 666 634 455 634 c 0
 243 634 102 758 102 1075 c 0
 102 1393 243 1517 455 1517 c 0xdfc0
1473 1489 m 1
 693 0 l 1
 528 0 l 1
 1308 1489 l 1
 1473 1489 l 1
1545 854 m 0xbfc0
 1756 854 1897 733 1897 413 c 0
 1897 94 1756 -29 1545 -29 c 0
 1333 -29 1192 93 1192 412 c 0
 1192 730 1333 854 1545 854 c 0xbfc0
455 767 m 0xdfc0
 559 767 629 821 629 1076 c 0
 629 1333 559 1384 455 1384 c 0
 350 1384 280 1328 280 1075 c 0
 280 814 350 767 455 767 c 0xdfc0
1545 104 m 0
 1649 104 1719 158 1719 413 c 0
 1719 670 1649 721 1545 721 c 0xbfc0
 1440 721 1370 665 1370 412 c 0
 1370 151 1440 104 1545 104 c 0
2389 854 m 0
 2600 854 2741 733 2741 413 c 0
 2741 94 2600 -29 2389 -29 c 0
 2177 -29 2036 93 2036 412 c 0
 2036 730 2177 854 2389 854 c 0
2389 104 m 0
 2493 104 2563 158 2563 413 c 0
 2563 670 2493 721 2389 721 c 0
 2284 721 2214 665 2214 412 c 0
 2214 151 2284 104 2389 104 c 0
EndSplineSet
EndChar
StartChar: minute
Encoding: 8242 8242 232
Width: 602
Flags: W
HStem: 870 619<273 571 571 571>
Fore
571 1489 m 1
 273 870 l 1
 137 870 l 1
 331 1489 l 1
 571 1489 l 1
EndSplineSet
EndChar
StartChar: second
Encoding: 8243 8243 233
Width: 972
Flags: W
HStem: 870 619<269 567 567 567>
Fore
567 1489 m 1
 269 870 l 1
 137 870 l 1
 331 1489 l 1
 567 1489 l 1
961 1489 m 1
 663 870 l 1
 531 870 l 1
 725 1489 l 1
 961 1489 l 1
EndSplineSet
EndChar
StartChar: guilsinglleft
Encoding: 8249 8249 234
Width: 784
Flags: MW
Fore
633 172 m 1
 123 608 l 1
 123 697 l 1
 633 1132 l 1
 633 933 l 1
 302 652 l 1
 633 371 l 1
 633 172 l 1
EndSplineSet
EndChar
StartChar: guilsinglright
Encoding: 8250 8250 235
Width: 784
Flags: MW
Fore
661 608 m 1
 151 172 l 1
 151 371 l 1
 482 652 l 1
 151 933 l 1
 151 1132 l 1
 661 697 l 1
 661 608 l 1
EndSplineSet
EndChar
StartChar: uni203E
Encoding: 8254 8254 237
Width: 1118
Flags: MW
HStem: 1658 131<-48 1118>
Fore
1118 1658 m 1
 -48 1658 l 1
 -48 1789 l 1
 1118 1789 l 1
 1118 1658 l 1
EndSplineSet
EndChar
StartChar: fraction
Encoding: 8260 8260 238
Width: 886
Flags: MW
HStem: 0 21G<-29 146.477>
Fore
916 1489 m 1
 136 0 l 1
 -29 0 l 1
 751 1489 l 1
 916 1489 l 1
EndSplineSet
EndChar
StartChar: uni207F
Encoding: 8319 8319 239
Width: 1010
Flags: W
HStem: 1368 151<499.963 671.724>
VStem: 125 171<566 1254 1388 1488> 718 172<566 1321.89>
Fore
586 1519 m 0
 689 1519 890 1482 890 1163 c 2
 890 566 l 1
 718 566 l 1
 718 1088 l 2
 718 1275 706 1368 541 1368 c 0
 492 1368 423 1357 296 1254 c 1
 296 566 l 1
 125 566 l 1
 125 1488 l 1
 296 1488 l 1
 296 1388 l 1
 442 1513 528 1519 586 1519 c 0
EndSplineSet
EndChar
StartChar: dottedcircle
Encoding: 9676 9676 240
Width: 1247
Flags: W
HStem: 7 121<553.139 669.635> 68 121<847.139 963.782> 98 121<288.139 404.913> 234 121<1013.14 1129.78> 249 121<145.139 261.635> 445 121<24.2128 141.099 1090.45 1202.81> 679 121<39.1394 155.635 1074.21 1191.1> 868 121<145.139 261.782> 891 121<967.139 1083.64> 1011 121<334.213 451.099> 1034 121<779.213 895.782> 1079 121<560.213 677.099>
VStem: 22 121<447.213 563.782> 37 121<681.213 797.635> 143 121<251.213 367.635 870.213 987.099> 286 121<100.213 216.709> 332 121<1013.14 1129.78> 551 121<11.5938 123.25 1081.14 1197.78> 777 121<1036.21 1153.1> 845 121<70.2128 187.099> 965 121<893.213 1009.64> 1011 121<236.213 353.099> 1086 121<440.213 556.975 686.328 792.637>
Fore
203 868 m 0x070240
 168 868 143 894 143 928 c 0
 143 962 167 989 203 989 c 0
 240 989 264 962 264 928 c 0
 264 894 238 868 203 868 c 0x070240
392 1011 m 0x0640c0
 358 1011 332 1036 332 1071 c 0
 332 1106 358 1132 392 1132 c 0
 426 1132 453 1108 453 1071 c 0
 453 1035 426 1011 392 1011 c 0x0640c0
618 1079 m 0x061040
 584 1079 558 1104 558 1139 c 0
 558 1174 584 1200 618 1200 c 0
 652 1200 679 1176 679 1139 c 0
 679 1103 652 1079 618 1079 c 0x061040
82 445 m 0
 47 445 22 471 22 505 c 0
 22 540 48 566 82 566 c 0
 116 566 143 542 143 505 c 0x060840
 143 469 116 445 82 445 c 0
203 249 m 0x0e0240
 168 249 143 275 143 309 c 0
 143 342 167 370 203 370 c 0
 238 370 264 343 264 309 c 0
 264 273 236 249 203 249 c 0x0e0240
346 98 m 0x260140
 311 98 286 124 286 158 c 0
 286 192 310 219 346 219 c 0
 377 219 407 197 407 158 c 0
 407 122 380 98 346 98 c 0x260140
611 7 m 0x860040
 576 7 551 33 551 67 c 0
 551 100 575 128 611 128 c 0
 646 128 672 101 672 67 c 0
 672 31 644 7 611 7 c 0x860040
905 68 m 0x460050
 870 68 845 94 845 128 c 0x860050
 845 162 869 189 905 189 c 0x460050
 942 189 966 162 966 128 c 0x860050
 966 94 940 68 905 68 c 0x460050
1071 234 m 0x160044
 1036 234 1011 260 1011 294 c 0
 1011 328 1035 355 1071 355 c 0
 1108 355 1132 328 1132 294 c 0
 1132 260 1106 234 1071 234 c 0x160044
1146 438 m 0
 1111 438 1086 464 1086 498 c 0
 1086 532 1110 559 1146 559 c 0
 1185 559 1207 530 1207 498 c 0x060042
 1207 462 1180 438 1146 438 c 0
1132 679 m 0x060044
 1097 679 1072 705 1072 739 c 0
 1072 774 1098 800 1132 800 c 0
 1166 800 1193 776 1193 739 c 0
 1193 703 1166 679 1132 679 c 0x060044
1025 891 m 0x068048
 990 891 965 917 965 951 c 0
 965 984 989 1012 1025 1012 c 0
 1060 1012 1086 985 1086 951 c 0
 1086 915 1058 891 1025 891 c 0x068048
837 1034 m 0x062060
 803 1034 777 1059 777 1094 c 0
 777 1128 801 1155 837 1155 c 0
 874 1155 898 1128 898 1094 c 0
 898 1060 872 1034 837 1034 c 0x062060
97 679 m 0
 62 679 37 705 37 739 c 0
 37 772 61 800 97 800 c 0
 132 800 158 773 158 739 c 0x060440
 158 703 130 679 97 679 c 0
EndSplineSet
EndChar
StartChar: uni0E10.descless
Encoding: 63232 63232 241
Width: 1245
VWidth: 2045
Flags: W
HStem: 0 21G<691.958 920.888> 132 186<404.116 544.304> 496 184<403.177 555.554> 732 186<384 772.629> 1064 220<494.601 820.816>
VStem: 206 183<330.739 482.599> 795 216<598.101 692.651> 980 204<847.318 976.567>
Fore
106 732 m 1xfe
 106 1053 366 1284 658 1284 c 0
 925 1284 1118 1104 1184 902 c 9
 980 818 l 17xfd
 955 913 851 1064 658 1064 c 0
 494 1064 407 954 384 918 c 1
 737 918 l 2
 892 918 1011 794 1011 644 c 1
 918 0 l 1
 698 0 l 1
 640 192 l 17
 600 145 531 132 472 132 c 0
 330 132 206 254 206 406 c 0
 206 561 330 680 480 680 c 0
 649 680 736 540 759 458 c 10
 776 400 l 1
 793 601 l 18
 794 619 795 631 795 637 c 0
 795 641 784 732 704 732 c 2
 106 732 l 1xfe
480 496 m 0
 429 496 389 455 389 408 c 0
 389 362 425 318 480 318 c 0
 536 318 569 363 569 408 c 0
 569 455 532 496 480 496 c 0
EndSplineSet
EndChar
StartChar: uni0E34.left
Encoding: 63233 63233 242
Width: 0
VWidth: 2045
Flags: W
HStem: 1762 174<-1170.75 -892.924>
Back
-1396 1593 m 13
 -883 1544 l 1
 -910.333 1582.67 -949.333 1615 -1000 1641 c 0
 -1050 1667 -1105.33 1681 -1166 1683 c 0
 -1194 1683 -1235 1674 -1289 1656 c 0
 -1343.67 1638.67 -1379.33 1617.67 -1396 1593 c 13
-1686 1464 m 21
 -1650 1594 -1581.33 1692 -1480 1758 c 0
 -1380 1825.33 -1275.33 1858.33 -1166 1857 c 0
 -1032 1855 -913 1810 -809 1722 c 0
 -705 1633.33 -644.667 1514.33 -628 1365 c 1
 -1686 1464 l 21
EndSplineSet
Refer: 175 3636 N 1 0 0 1 -352 0 2
EndChar
StartChar: uni0E35.left
Encoding: 63234 63234 243
Width: 0
VWidth: 2045
Flags: W
HStem: 1759 174<-1170.75 -890.245>
VStem: -680 157<1777 2076 1441 2076 1777 1777>
Back
-785 1701 m 13
 -785 2000 l 1
 -628 2000 l 1
 -628 1365 l 1
 -1686 1464 l 1
 -1650 1594 -1581.33 1692 -1480 1758 c 0
 -1380 1825.33 -1275.33 1858.33 -1166 1857 c 0
 -1033.33 1855 -906.333 1803 -785 1701 c 13
-1396 1593 m 13
 -883 1544 l 1
 -910.333 1582.67 -949.333 1615 -1000 1641 c 0
 -1050 1667 -1105.33 1681 -1166 1683 c 0
 -1194 1683 -1235 1674 -1289 1656 c 0
 -1343.67 1638.67 -1379.33 1617.67 -1396 1593 c 13
EndSplineSet
Refer: 176 3637 N 1 0 0 1 -352 0 2
EndChar
StartChar: uni0E36.left
Encoding: 63235 63235 244
Width: 0
VWidth: 2045
Flags: W
HStem: 1757 174<-1170.31 -955.432> 2007 133<-790.944 -639.157>
VStem: -940 135<1917 1992.81> -625 136<1841.36 1993.98>
Back
-761 1639 m 5
 -705 1563 -671 1471.67 -659 1365 c 1
 -1717 1464 l 1
 -1679.67 1594 -1611 1692 -1511 1758 c 0
 -1410.33 1824.67 -1305.67 1857.67 -1197 1857 c 0
 -1157 1856.33 -1116.67 1851.67 -1076 1843 c 1
 -1076 1905 -1054 1957.67 -1010 2001 c 0
 -966.667 2044.33 -913.667 2066 -851 2066 c 128
 -788.333 2066 -735 2044.33 -691 2001 c 128
 -647 1957.67 -625 1905.33 -625 1844 c 128
 -625 1782.67 -647.333 1730 -692 1686 c 0
 -710.667 1666 -733.667 1650.33 -761 1639 c 5
-941 1843 m 132
 -941 1818.33 -932 1797.67 -914 1781 c 0
 -895.333 1763.67 -874.333 1755 -851 1755 c 0
 -827 1755 -805.667 1763.67 -787 1781 c 0
 -769.667 1798.33 -761 1819 -761 1843 c 128
 -761 1867 -769.667 1888.33 -787 1907 c 0
 -804.333 1924.33 -825.667 1933 -851 1933 c 0
 -875.667 1933 -896.667 1924.33 -914 1907 c 0
 -932 1889 -941 1867.67 -941 1843 c 132
-1427 1593 m 13
 -913 1544 l 1
 -941.667 1582.67 -981 1615 -1031 1641 c 0
 -1079.67 1667 -1135 1681 -1197 1683 c 0
 -1224.33 1683 -1265.33 1674 -1320 1656 c 0
 -1374.67 1638.67 -1410.33 1617.67 -1427 1593 c 13
EndSplineSet
Refer: 177 3638 N 1 0 0 1 -352 0 2
EndChar
StartChar: uni0E37.left
Encoding: 63236 63236 245
Width: 0
VWidth: 2045
Flags: W
HStem: 1764 174<-1170.75 -949.829>
VStem: -916 157<1915 2081> -680 157<1782 2081>
Back
-864 1761 m 21
 -840 1744.33 -813.667 1724.33 -785 1701 c 1
 -785 2000 l 1
 -628 2000 l 1
 -628 1365 l 1
 -1686 1464 l 1
 -1650 1594 -1581.33 1692 -1480 1758 c 0
 -1380 1825.33 -1275.33 1858.33 -1166 1857 c 0
 -1118.67 1856.33 -1070.33 1848.67 -1021 1834 c 1
 -1021 2000 l 1
 -864 2000 l 1
 -864 1761 l 21
-1396 1593 m 13
 -883 1544 l 1
 -910.333 1582.67 -949.333 1615 -1000 1641 c 0
 -1050 1667 -1105.33 1681 -1166 1683 c 0
 -1194 1683 -1235 1674 -1289 1656 c 0
 -1343.67 1638.67 -1379.33 1617.67 -1396 1593 c 13
EndSplineSet
Refer: 178 3639 N 1 0 0 1 -352 0 2
EndChar
StartChar: uni0E48.low_left
Encoding: 63237 63237 246
Width: 0
VWidth: 2045
Flags: W
HStem: 1451 464<-695 -515 -695 -515 -695 -695>
VStem: -695 180<1451 1915>
Back
-820 1298 m 17
 -820 1628 l 1
 -640 1628 l 1
 -640 1298 l 1
 -820 1298 l 17
EndSplineSet
Refer: 251 63242 N 1 0 0 1 -326 0 2
EndChar
StartChar: uni0E49.low_left
Encoding: 63238 63238 247
Width: 0
VWidth: 2045
Flags: W
HStem: 1846 112<-1023.5 -900.383>
VStem: -1142 113<1726.17 1841.62> -895 113<1733.81 1840.36> -584 157<1765.25 1945>
Back
-808 1897 m 0
 -702 1897 -628 1815 -628 1719 c 0
 -628 1661 -648 1613 -687 1575 c 2
 -754 1503 l 1
 -672 1518 -597 1556 -530 1619 c 0
 -463 1682 -430 1770 -430 1885 c 1
 -273 1885 l 1
 -267 1569 -532 1347 -810 1347 c 2
 -959 1347 l 1
 -959 1501 l 1
 -857 1557 l 1
 -982 1581 -988 1693 -988 1720 c 0
 -988 1817 -913 1897 -808 1897 c 0
-808 1785 m 0
 -851 1785 -875 1752 -875 1719 c 0
 -875 1679 -843 1652 -808 1652 c 0
 -770 1652 -741 1684 -741 1719 c 0
 -741 1748 -765 1785 -808 1785 c 0
EndSplineSet
Refer: 252 63243 N 1 0 0 1 -435 0 2
EndChar
StartChar: uni0E4A.low_left
Encoding: 63239 63239 248
Width: 0
VWidth: 2045
Flags: W
HStem: 1413 112<-1147.36 -1023.68> 1657 112<-1135.54 -1023.68> 1823 127<-1124.39 -970.219 -782.416 -630.912>
VStem: -1298 145<1528.71 1762.69> -1019 113<1530.29 1651.71> -598 128<1619.16 1792.52> -337 128<1736.29 1902>
Back
-313 1551 m 1x8f
 -246 1602 -172 1700 -172 1837 c 1
 -44 1837 l 17
 -44 1536 -306 1347 -515 1347 c 1x8f
 -515 1474 l 1
 -515 1474 -433 1525 -433 1616 c 0
 -433 1716 -504 1758 -546 1758 c 0
 -600 1758 -637 1736 -657 1693 c 1
 -758 1693 l 1
 -799 1736 -835 1758 -864 1758 c 0
 -914 1757 -954 1725 -976 1696 c 1
 -957 1701 -938 1704 -921 1704 c 0x3f
 -816 1704 -741 1623 -741 1525 c 0
 -741 1428 -816 1347 -921 1347 c 0
 -1018 1347 -1133 1419 -1133 1595 c 0
 -1133 1806 -958 1885 -864 1885 c 0
 -795 1885 -742 1864 -706 1821 c 1
 -670 1864 -617 1885 -546 1885 c 0
 -444 1885 -305 1786 -305 1616 c 0
 -305 1591 -308 1570 -313 1551 c 1x8f
-921 1592 m 0x6f
 -959 1592 -988 1560 -988 1525 c 0
 -988 1492 -960 1459 -921 1459 c 0
 -884 1459 -854 1490 -854 1525 c 0
 -854 1564 -887 1592 -921 1592 c 0x6f
EndSplineSet
Refer: 253 63244 N 1 0 0 1 -351 0 2
EndChar
StartChar: uni0E4B.low_left
Encoding: 63240 63240 249
Width: 0
VWidth: 2045
Flags: W
HStem: 1574 178<-996 -846 -665 -515>
VStem: -846 181<1423 1574 1752 1903 1423 1903 1423 1423>
Back
-340 1521 m 1
 -490 1521 l 1
 -490 1371 l 1
 -671 1371 l 1
 -671 1521 l 1
 -821 1521 l 1
 -821 1701 l 1
 -671 1701 l 1
 -671 1850 l 1
 -490 1850 l 1
 -490 1701 l 1
 -340 1701 l 1
 -340 1521 l 1
EndSplineSet
Refer: 254 63245 N 1 0 0 1 -398 0 2
EndChar
StartChar: uni0E4C.low_left
Encoding: 63241 63241 250
Width: 0
VWidth: 2045
Flags: W
HStem: 1442 134<-836.463 -682.652> 1734 154<-544 -158.875> 1755 133<-834.456 -681.511>
VStem: -983 134<1590.05 1740.9> -669 136<1589.15 1725>
Back
-779 1680 m 0xb8
 -826 1680 -869 1644 -869 1591 c 0
 -869 1539 -826 1501 -779 1501 c 0
 -732 1501 -689 1539 -689 1591 c 0
 -689 1644 -732 1680 -779 1680 c 0xb8
-1003 1590 m 0
 -1003 1722 -899 1814 -778 1814 c 2xb8
 -308 1812 l 2
 -244 1812 -197 1831 -168 1870 c 1
 -58 1761 l 1
 -125 1692 -209 1658 -308 1658 c 2
 -564 1660 l 1xd8
 -557 1637 -553 1614 -553 1592 c 0
 -553 1469 -652 1368 -779 1368 c 0
 -898 1368 -1003 1460 -1003 1590 c 0
EndSplineSet
Refer: 255 63246 N 1 0 0 1 -148 0 2
EndChar
StartChar: uni0E48.low
Encoding: 63242 63242 251
Width: 0
VWidth: 2045
Flags: W
HStem: 1451 464<-369 -189 -369 -189 -369 -369>
VStem: -369 180<1451 1915>
AnchorPoint: "AboveBase" -189 1375 mark 0
Fore
-369 1451 m 17
 -369 1915 l 1
 -189 1915 l 1
 -189 1451 l 1
 -369 1451 l 17
EndSplineSet
EndChar
StartChar: uni0E49.low
Encoding: 63243 63243 252
Width: 0
VWidth: 2045
Flags: W
HStem: 1846 112<-588.502 -465.383>
VStem: -707 113<1726.17 1841.62> -460 113<1733.81 1840.36> -149 157<1765.25 1945>
AnchorPoint: "AboveBase" -80 1375 mark 0
Fore
-527 1958 m 0
 -431 1958 -347 1884 -347 1779 c 0
 -347 1722 -367 1674 -406 1636 c 2
 -473 1563 l 1
 -416 1574 -149 1639 -149 1945 c 1
 8 1945 l 1
 14 1629 -249 1408 -529 1408 c 2
 -678 1408 l 1
 -678 1562 l 1
 -576 1618 l 1
 -702 1643 -707 1753 -707 1781 c 0
 -707 1887 -621 1958 -527 1958 c 0
-527 1846 m 0
 -562 1846 -594 1819 -594 1779 c 0
 -594 1743 -567 1713 -527 1713 c 0
 -480 1713 -460 1754 -460 1779 c 0
 -460 1816 -492 1846 -527 1846 c 0
EndSplineSet
EndChar
StartChar: uni0E4A.low
Encoding: 63244 63244 253
Width: 0
VWidth: 2045
Flags: MW
HStem: 1413 112<-796.36 -672.684> 1657 112<-784.539 -672.684> 1823 127<-773.389 -619.219 -431.416 -279.912>
VStem: -947 145<1528.71 1762.69> -668 113<1530.29 1651.71> -247 128<1619.16 1792.52> 14 128<1736.29 1902>
AnchorPoint: "AboveBase" -164 1375 mark 0
Fore
-127 1617 m 1
 -51 1675 14 1774 14 1902 c 1
 142 1902 l 17
 142 1609 -112 1413 -329 1413 c 1
 -329 1540 l 1
 -329 1540 -247 1590 -247 1682 c 0
 -247 1784 -322 1823 -355 1823 c 0
 -383 1823 -443 1818 -471 1759 c 1
 -572 1759 l 1
 -613 1802 -648 1823 -678 1823 c 0
 -742 1821 -784 1771 -790 1762 c 1
 -773 1767 -755 1769 -735 1769 c 0
 -627 1769 -555 1685 -555 1591 c 0
 -555 1497 -627 1413 -735 1413 c 0
 -830 1413 -947 1481 -947 1660 c 0
 -947 1872 -773 1950 -678 1950 c 0
 -609 1950 -556 1929 -520 1887 c 1
 -484 1930 -431 1950 -360 1950 c 0
 -251 1950 -119 1844 -119 1682 c 0
 -119 1657 -122 1636 -127 1617 c 1
-735 1657 m 0
 -775 1657 -802 1626 -802 1591 c 0
 -802 1556 -775 1525 -735 1525 c 0
 -697 1525 -668 1555 -668 1591 c 0
 -668 1627 -697 1657 -735 1657 c 0
EndSplineSet
EndChar
StartChar: uni0E4B.low
Encoding: 63245 63245 254
Width: 0
VWidth: 2045
Flags: MW
HStem: 1574 178<-598 -448 -267 -117>
VStem: -448 181<1423 1574 1752 1903 1423 1903 1423 1423>
AnchorPoint: "AboveBase" -117 1375 mark 0
Fore
-117 1574 m 1
 -267 1574 l 1
 -267 1423 l 1
 -448 1423 l 1
 -448 1574 l 1
 -598 1574 l 1
 -598 1752 l 1
 -448 1752 l 1
 -448 1903 l 1
 -267 1903 l 1
 -267 1752 l 1
 -117 1752 l 1
 -117 1574 l 1
EndSplineSet
EndChar
StartChar: uni0E4C.low
Encoding: 63246 63246 255
Width: 0
VWidth: 2045
Flags: W
HStem: 1442 134<-688.463 -534.652> 1734 154<-396 -10.8749> 1755 133<-686.456 -533.511>
VStem: -835 134<1590.05 1740.9> -521 136<1589.15 1725>
AnchorPoint: "AboveBase" -367 1375 mark 0
Fore
-611 1755 m 0xb8
 -658 1755 -701 1717 -701 1665 c 0
 -701 1612 -658 1576 -611 1576 c 0
 -564 1576 -521 1612 -521 1665 c 0
 -521 1717 -564 1755 -611 1755 c 0xb8
-835 1666 m 0
 -835 1794 -732 1888 -610 1888 c 2xb8
 -140 1888 l 2
 -76 1887 -29 1906 0 1945 c 1
 110 1836 l 1
 43 1768 -41 1734 -140 1734 c 2
 -396 1734 l 1xd8
 -389 1710 -385 1687 -385 1664 c 0
 -385 1548 -482 1442 -611 1442 c 0
 -733 1442 -835 1537 -835 1666 c 0
EndSplineSet
EndChar
StartChar: uni0E0D.descless
Encoding: 63247 63247 256
Width: 1940
VWidth: 2045
Flags: W
HStem: -10 186<410.027 563.61> 0 220<1258 1552> 354 184<436.296 565.068> 701 220<435 546> 1062 222<501.127 847.251>
VStem: 214 183<189.812 340.887> 215 220<533 701> 577 185<187.75 340.268> 1038 220<220 864.928> 1552 220<220 1254>
Fore
677 1284 m 0xbbc0
 996 1284 1256 1032 1258 703 c 2
 1258 220 l 17
 1552 220 l 9
 1552 1254 l 1
 1772 1254 l 1
 1772 0 l 25
 1038 0 l 25
 1038 700 l 2
 1038 911 870 1062 675 1062 c 0
 504 1062 413 952 390 921 c 1
 546 921 l 1
 546 701 l 1
 435 701 l 1
 435 533 l 17x7bc0
 452 536 469 538 488 538 c 0
 643 538 762 414 762 264 c 0
 762 109 638 -10 488 -10 c 0
 331 -10 214 115 214 264 c 2xbdc0
 215 701 l 1
 95 701 l 1
 95 1022 350 1284 677 1284 c 0xbbc0
488 354 m 0
 437 354 397 313 397 266 c 0
 397 220 433 176 488 176 c 0xbdc0
 544 176 577 221 577 266 c 0
 577 313 540 354 488 354 c 0
EndSplineSet
EndChar
StartChar: uni0E38.low
Encoding: 63256 63256 265
Width: 0
VWidth: 2045
Flags: W
HStem: -1105 133<-616.914 -496.863> -794 134<-618.23 -465.081>
VStem: -768 136<-957.115 -806.507> -496 180<-1328 -1102> -452 136<-959.272 -808.239>
Back
-478 -657 m 0
 -414 -657 -317 -685 -317 -872 c 2
 -317 -1108 l 1
 -448 -1108 l 1
 -448 -932 l 1
 -458 -943 -469 -948 -480 -948 c 0
 -576 -948 -631 -911 -631 -818 c 0
 -631 -738 -600 -657 -478 -657 c 0
-439 -810 m 0
 -439 -748 -469 -736 -489 -736 c 0
 -533 -736 -555 -760 -555 -809 c 0
 -555 -858 -533 -882 -489 -882 c 0
 -456 -882 -439 -858 -439 -810 c 0
EndSplineSet
Refer: 179 3640 N 1 0 0 1 -158 -573 2
EndChar
StartChar: uni0E39.low
Encoding: 63257 63257 266
Width: 0
VWidth: 2045
Flags: W
HStem: -1351 156<-699 -536> -1108 133<-1000.03 -879.618> -797 134<-1001.4 -847.67>
VStem: -1150 136<-962.112 -809.654> -879 180<-1195 -1105> -835 136<-962.504 -810.438> -536 180<-1195 -661>
Back
-756 -657 m 0
 -659 -657 -594 -708 -594 -872 c 2
 -594 -1008 l 1
 -451 -1008 l 1
 -451 -670 l 1
 -317 -670 l 1
 -317 -1108 l 1
 -725 -1108 l 1
 -725 -932 l 1
 -738 -949 -760 -949 -792 -949 c 0
 -857 -949 -908 -893 -908 -818 c 0
 -908 -719 -840 -657 -756 -657 c 0
-718 -806 m 0
 -718 -770 -728 -736 -768 -736 c 0
 -804 -736 -832 -765 -832 -809 c 0
 -832 -857 -814 -881 -777 -881 c 0
 -730 -881 -718 -842 -718 -806 c 0
EndSplineSet
Refer: 180 3641 N 1 0 0 1 -205 -576 2
EndChar
StartChar: uni0E3A.low
Encoding: 63258 63258 267
Width: 0
VWidth: 2045
Flags: W
HStem: -1013 356<-620.489 -385.23>
VStem: -684 360<-951.849 -718.31>
Back
-542 -768 m 0
 -542 -684 -472 -633 -408 -633 c 0
 -324 -633 -274 -709 -274 -768 c 0
 -274 -855 -352 -902 -408 -902 c 0
 -477 -902 -542 -848 -542 -768 c 0
EndSplineSet
Refer: 181 3642 N 1 0 0 1 -132 -575 2
EndChar
StartChar: uniF71B
Encoding: 63259 63259 268
Width: 998
VWidth: 2045
Flags: W
HStem: 60 1024<215 829 215 829 215 215>
VStem: 215 614<60 1084>
Fore
829 1084 m 1
 829 60 l 1
 215 60 l 1
 215 1084 l 1
 829 1084 l 1
EndSplineSet
EndChar
StartChar: uniF71C
Encoding: 63260 63260 269
Width: 698
VWidth: 2045
Flags: W
HStem: -423 269<107 244 244 244>
Fore
107 -423 m 1
 244 -154 l 1
 485 -154 l 1
 244 -423 l 1
 107 -423 l 1
EndSplineSet
EndChar
StartChar: uniF71D
Encoding: 63261 63261 270
Width: 798
VWidth: 2045
Flags: W
HStem: -127 102<265 531>
VStem: 183 82<-236 -127> 531 85<-236 -127>
Fore
616 -236 m 1
 531 -236 l 1
 531 -127 l 1
 265 -127 l 1
 265 -236 l 1
 183 -236 l 1
 183 -25 l 1
 616 -25 l 1
 616 -236 l 1
EndSplineSet
EndChar
StartChar: afii61664
Encoding: 8204 8204 271
Width: 0
Flags: W
HStem: -275 1564<-36 36 -36 36 -36 -36>
VStem: -36 72<-275 1289>
Fore
36 1289 m 1
 36 -275 l 1
 -36 -275 l 1
 -36 1289 l 1
 36 1289 l 1
EndSplineSet
EndChar
